<svg width="1440" height="507" viewBox="0 0 1440 507" fill="none" xmlns="http://www.w3.org/2000/svg">
<path d="M1258.63 -330.75C1271.53 -334.997 1285.71 -332.042 1295.83 -322.999L1442.86 -191.683C1452.99 -182.64 1457.52 -168.881 1454.75 -155.59L1414.55 37.3942C1411.78 50.685 1402.13 61.4888 1389.23 65.7359L1202 127.405C1189.11 131.652 1174.93 128.698 1164.8 119.654L1017.78 -11.6616C1007.65 -20.7052 1003.12 -34.4637 1005.89 -47.7544L1046.09 -240.739C1048.86 -254.03 1058.51 -264.834 1071.4 -269.081L1258.63 -330.75Z" stroke="url(#paint0_linear_119_2)" stroke-width="4"/>
<path d="M549.633 255.25C562.527 251.003 576.708 253.958 586.834 263.001L733.86 394.317C743.986 403.36 748.518 417.119 745.749 430.41L705.545 623.394C702.777 636.685 693.128 647.489 680.233 651.736L493.003 713.405C480.108 717.652 465.928 714.698 455.802 705.654L308.775 574.338C298.65 565.295 294.118 551.536 296.886 538.246L337.09 345.261C339.859 331.97 349.508 321.166 362.402 316.919L549.633 255.25Z" stroke="url(#paint1_linear_119_2)" stroke-width="4"/>
<path d="M506.403 245.254C507.769 244.103 509.646 243.768 511.326 244.375L529.407 250.913C531.087 251.52 532.315 252.977 532.629 254.736L536.008 273.663C536.322 275.422 535.674 277.214 534.308 278.365L519.606 290.755C518.24 291.906 516.364 292.241 514.684 291.634L496.603 285.097C494.923 284.489 493.694 283.032 493.381 281.273L490.001 262.346C489.688 260.588 490.336 258.795 491.702 257.644L506.403 245.254Z" fill="#3F7E3F" fill-opacity="0.7"/>
<path d="M480.894 420.033C482.593 419.481 484.457 419.876 485.785 421.071L507.514 440.617C508.842 441.811 509.432 443.624 509.062 445.371L502.999 473.962C502.628 475.709 501.353 477.126 499.655 477.679L471.863 486.724C470.165 487.277 468.3 486.881 466.972 485.687L445.243 466.141C443.915 464.946 443.325 463.134 443.696 461.386L449.758 432.796C450.129 431.048 451.404 429.631 453.102 429.078L480.894 420.033Z" fill="#3F7E3F" fill-opacity="0.7"/>
<path d="M750.811 425.254C752.552 425.65 753.95 426.946 754.478 428.652L757.942 439.856C758.47 441.562 758.047 443.421 756.833 444.731L748.862 453.332C747.648 454.643 745.827 455.206 744.085 454.809L732.651 452.208C730.909 451.811 729.511 450.516 728.984 448.809L725.52 437.606C724.992 435.899 725.415 434.041 726.629 432.731L734.599 424.129C735.814 422.819 737.635 422.256 739.376 422.652L750.811 425.254Z" fill="#3F7E3F" fill-opacity="0.7"/>
<path d="M1350.48 73.5085C1352.1 74.2683 1353.19 75.8328 1353.34 77.6128L1354.33 89.2977C1354.48 91.0777 1353.67 92.8027 1352.2 93.8229L1342.57 100.52C1341.11 101.54 1339.21 101.701 1337.59 100.941L1326.98 95.9532C1325.36 95.1934 1324.27 93.6288 1324.12 91.8488L1323.14 80.164C1322.99 78.384 1323.8 76.659 1325.26 75.6388L1334.89 68.9416C1336.35 67.9214 1338.25 67.761 1339.87 68.5208L1350.48 73.5085Z" fill="#3F7E3F" fill-opacity="0.7"/>
<path d="M111.726 383.793C118.558 385.885 123.755 391.464 125.358 398.427L150.907 509.357C152.51 516.32 150.278 523.61 145.049 528.48L61.7551 606.071C56.5268 610.941 49.0973 612.653 42.2653 610.56L-66.5775 577.22C-73.4095 575.128 -78.6061 569.549 -80.2097 562.586L-105.758 451.656C-107.362 444.693 -105.129 437.403 -99.9008 432.533L-16.6066 354.942C-11.3783 350.072 -3.94883 348.36 2.88317 350.453L111.726 383.793Z" fill="url(#paint2_linear_119_2)"/>
<path d="M96.3051 390.473C102.796 392.461 107.732 397.76 109.256 404.375L134.804 515.306C136.328 521.921 134.207 528.846 129.24 533.472L45.9455 611.063C40.9786 615.69 33.9206 617.316 27.4302 615.328L-81.4125 581.988C-87.9029 580 -92.8397 574.701 -94.3632 568.086L-119.912 457.155C-121.435 450.54 -119.314 443.615 -114.347 438.989L-31.0529 361.398C-26.086 356.771 -19.028 355.145 -12.5376 357.133L96.3051 390.473Z" stroke="#00A4F1" stroke-width="2"/>
<defs>
<linearGradient id="paint0_linear_119_2" x1="1050.17" y1="-247.821" x2="1456.78" y2="-167.904" gradientUnits="userSpaceOnUse">
<stop stop-color="#45CCEF"/>
<stop offset="1" stop-color="#5AD26A"/>
</linearGradient>
<linearGradient id="paint1_linear_119_2" x1="341.174" y1="338.179" x2="747.777" y2="418.096" gradientUnits="userSpaceOnUse">
<stop stop-color="#45CCEF"/>
<stop offset="1" stop-color="#5AD26A"/>
</linearGradient>
<linearGradient id="paint2_linear_119_2" x1="-65.6744" y1="406.507" x2="66.5846" y2="600.454" gradientUnits="userSpaceOnUse">
<stop stop-color="#5CD258"/>
<stop offset="1" stop-color="#42CBFF"/>
</linearGradient>
</defs>
</svg>
