<svg width="267" height="260" viewBox="0 0 267 260" fill="none" xmlns="http://www.w3.org/2000/svg">
<circle cx="137" cy="130" r="130" fill="#45CAEB"/>
<path d="M235.073 215.333C237.576 212.456 239.951 209.472 242.191 206.387L137 130L235.073 215.333Z" fill="#CD5B7B"/>
<path d="M242.116 206.49C244.84 202.746 247.362 198.86 249.671 194.847L137 130L242.116 206.49Z" fill="#7B7BB6"/>
<path d="M249.642 194.899C257.958 180.464 263.423 164.565 265.738 148.067L137 130L249.642 194.899Z" fill="#E09F5E"/>
<path d="M265.731 148.12C266.148 145.154 266.463 142.175 266.675 139.187L137 130L265.731 148.12Z" fill="#32964D"/>
<path d="M266.675 139.187C266.906 135.928 267.014 132.661 266.999 129.393L137 130L266.675 139.187Z" fill="#444449"/>
<path d="M266.999 129.422C266.945 117.423 265.231 105.489 261.905 93.9603L137 130L266.999 129.422Z" fill="#8EB0DD"/>
<path d="M261.895 93.9259C256.508 75.2765 247.013 58.0701 234.107 43.5698L137 130L261.895 93.9259Z" fill="#588F8E"/>
<path d="M233.993 43.4416C233.63 43.0353 233.265 42.6313 232.898 42.2296L137 130L233.993 43.4416Z" fill="#FFEC1B"/>
<path d="M232.904 42.2363C232.536 41.8346 232.166 41.4352 231.793 41.0381L137 130L232.904 42.2363Z" fill="#C32328"/>
<path d="M231.817 41.0636C229.023 38.0843 226.089 35.2383 223.027 32.5352L137 130L231.817 41.0636Z" fill="#8EB0DD"/>
<path d="M223.414 32.8782C217.511 27.626 211.141 22.9229 204.384 18.8273L137 130L223.414 32.8782Z" fill="#32964D"/>
<path d="M204.327 18.7925C198.034 14.983 191.43 11.7144 184.585 9.02191L137 130L204.327 18.7925Z" fill="#A2C477"/>
<circle cx="130" cy="130" r="129" stroke="#01A3EF" stroke-width="2"/>
</svg>
