<svg width="836" height="337" viewBox="0 0 836 337" fill="none" xmlns="http://www.w3.org/2000/svg">
<path d="M586.835 93.0012L733.861 224.317C743.987 233.36 748.519 247.119 745.75 260.41L705.546 453.394C702.778 466.685 693.129 477.489 680.234 481.736L493.004 543.405C480.109 547.652 465.928 544.698 455.803 535.654L308.776 404.338C298.651 395.295 294.119 381.536 296.887 368.246L337.091 175.261C339.86 161.97 349.509 151.166 362.403 146.919L549.634 85.2499C562.528 81.0028 576.709 83.9576 586.835 93.0012Z" stroke="url(#paint0_linear_128_2)" stroke-width="4"/>
<path d="M506.404 75.254C507.77 74.1029 509.647 73.7679 511.327 74.3753L529.408 80.9125C531.088 81.5199 532.316 82.9774 532.63 84.7359L536.009 103.663C536.323 105.422 535.675 107.214 534.309 108.365L519.607 120.755C518.241 121.906 516.364 122.241 514.685 121.634L496.604 115.097C494.924 114.489 493.695 113.032 493.381 111.273L490.002 92.3461C489.688 90.5876 490.337 88.7951 491.702 87.644L506.404 75.254Z" fill="#3F7E3F" fill-opacity="0.7"/>
<path d="M480.895 250.033C482.594 249.481 484.458 249.876 485.786 251.071L507.515 270.617C508.843 271.811 509.433 273.624 509.063 275.371L503 303.962C502.629 305.709 501.354 307.126 499.656 307.679L471.864 316.724C470.165 317.277 468.301 316.881 466.973 315.687L445.244 296.141C443.916 294.946 443.326 293.134 443.697 291.386L449.759 262.796C450.13 261.048 451.405 259.631 453.103 259.078L480.895 250.033Z" fill="#3F7E3F" fill-opacity="0.7"/>
<path d="M750.812 255.254C752.553 255.65 753.951 256.946 754.479 258.652L757.943 269.856C758.471 271.562 758.048 273.421 756.834 274.731L748.863 283.332C747.649 284.643 745.828 285.206 744.086 284.809L732.652 282.208C730.91 281.811 729.512 280.516 728.985 278.809L725.521 267.606C724.993 265.899 725.416 264.041 726.63 262.731L734.6 254.129C735.815 252.819 737.636 252.256 739.377 252.652L750.812 255.254Z" fill="#3F7E3F" fill-opacity="0.7"/>
<path d="M111.727 213.793C118.559 215.885 123.756 221.464 125.359 228.427L150.908 339.357C152.511 346.32 150.279 353.61 145.05 358.48L61.7561 436.071C56.5277 440.941 49.0983 442.653 42.2663 440.56L-66.5765 407.22C-73.4085 405.128 -78.6051 399.549 -80.2088 392.586L-105.757 281.656C-107.361 274.693 -105.128 267.403 -99.8998 262.533L-16.6056 184.942C-11.3773 180.072 -3.94785 178.36 2.88414 180.453L111.727 213.793Z" fill="url(#paint1_linear_128_2)"/>
<path d="M109.257 234.375L134.805 345.306C136.329 351.921 134.208 358.846 129.241 363.472L45.9465 441.063C40.9796 445.69 33.9216 447.316 27.4312 445.328L-81.4116 411.988C-87.9019 410 -92.8387 404.701 -94.3622 398.086L-119.911 287.155C-121.434 280.54 -119.313 273.615 -114.346 268.989L-31.052 191.398C-26.085 186.771 -19.0271 185.145 -12.5367 187.133L96.3061 220.473C102.797 222.461 107.733 227.76 109.257 234.375Z" stroke="#00A4F1" stroke-width="2"/>
<defs>
<linearGradient id="paint0_linear_128_2" x1="341.175" y1="168.179" x2="747.777" y2="248.096" gradientUnits="userSpaceOnUse">
<stop stop-color="#45CCEF"/>
<stop offset="1" stop-color="#5AD26A"/>
</linearGradient>
<linearGradient id="paint1_linear_128_2" x1="-65.6734" y1="236.507" x2="66.5856" y2="430.454" gradientUnits="userSpaceOnUse">
<stop stop-color="#5CD258"/>
<stop offset="1" stop-color="#42CBFF"/>
</linearGradient>
</defs>
</svg>
