<svg width="616" height="265" viewBox="0 0 616 265" fill="none" xmlns="http://www.w3.org/2000/svg">
<path d="M155.32 -35.7848C149.411 -56.3903 154.944 -78.5828 169.835 -94.0025L229.38 -155.663C244.27 -171.083 266.256 -177.387 287.055 -172.201L370.227 -151.464C391.026 -146.278 407.479 -130.39 413.388 -109.785L437.015 -27.3872C442.923 -6.78162 437.39 15.4109 422.499 30.8306L362.955 92.4909C348.064 107.911 326.078 114.215 305.279 109.029L222.107 88.2921C201.308 83.1063 184.855 67.2182 178.947 46.6126L155.32 -35.7848Z" fill="url(#paint0_linear_29_411)"/>
<path d="M138.516 -57.8186C133.107 -78.0064 138.879 -99.5467 153.657 -114.325L236.543 -197.211C251.322 -211.989 272.862 -217.761 293.05 -212.352L406.273 -182.014C426.461 -176.604 442.23 -160.836 447.639 -140.648L477.977 -27.4239C483.387 -7.23601 477.615 14.3042 462.837 29.0828L379.951 111.968C365.172 126.747 343.632 132.519 323.444 127.109L210.22 96.771C190.033 91.3617 174.264 75.5932 168.855 55.4053L138.516 -57.8186Z" stroke="url(#paint1_linear_29_411)" stroke-width="3"/>
<defs>
<linearGradient id="paint0_linear_29_411" x1="280.39" y1="97.8242" x2="382.846" y2="-147.364" gradientUnits="userSpaceOnUse">
<stop stop-color="#42CBFF"/>
<stop offset="0.510417" stop-color="#5CD258"/>
</linearGradient>
<linearGradient id="paint1_linear_29_411" x1="148.239" y1="-20.6855" x2="488.465" y2="4.67172" gradientUnits="userSpaceOnUse">
<stop stop-color="#44CCF4"/>
<stop offset="1" stop-color="#5BD361"/>
</linearGradient>
</defs>
</svg>
