<svg width="840" height="509" viewBox="0 0 840 509" fill="none" xmlns="http://www.w3.org/2000/svg">
<path d="M379.32 -35.7847C373.411 -56.3903 378.944 -78.5827 393.835 -94.0025L453.38 -155.663C468.27 -171.083 490.256 -177.387 511.055 -172.201L594.227 -151.464C615.026 -146.278 631.479 -130.39 637.388 -109.784L661.015 -27.3871C666.923 -6.78155 661.39 15.4109 646.499 30.8307L586.955 92.491C572.064 107.911 550.078 114.215 529.279 109.029L446.107 88.2922C425.308 83.1064 408.855 67.2182 402.947 46.6127L379.32 -35.7847Z" fill="url(#paint0_linear_111_10)"/>
<path d="M377.657 -114.325L460.543 -197.211C475.322 -211.989 496.862 -217.761 517.05 -212.352L630.273 -182.013C650.461 -176.604 666.23 -160.836 671.639 -140.648L701.977 -27.4238C707.387 -7.23596 701.615 14.3043 686.837 29.0828L603.951 111.968C589.172 126.747 567.632 132.519 547.444 127.109L434.22 96.7711C414.033 91.3618 398.264 75.5932 392.855 55.4054L362.516 -57.8185C357.107 -78.0064 362.879 -99.5466 377.657 -114.325Z" stroke="url(#paint1_linear_111_10)" stroke-width="3"/>
<path d="M88.5761 810.142C75.7642 814.632 61.5299 811.945 51.2354 803.095L-98.2439 674.578C-108.538 665.727 -113.329 652.057 -110.812 638.716L-74.2584 445.007C-71.741 431.666 -62.2977 420.682 -49.4857 416.192L136.547 351C149.359 346.51 163.593 349.196 173.888 358.047L323.367 486.564C333.662 495.415 338.453 509.085 335.935 522.426L299.382 716.135C296.864 729.476 287.421 740.46 274.609 744.95L88.5761 810.142Z" stroke="url(#paint2_linear_111_10)" stroke-width="4"/>
<defs>
<linearGradient id="paint0_linear_111_10" x1="504.39" y1="97.8243" x2="606.846" y2="-147.363" gradientUnits="userSpaceOnUse">
<stop stop-color="#42CBFF"/>
<stop offset="0.510417" stop-color="#5CD258"/>
</linearGradient>
<linearGradient id="paint1_linear_111_10" x1="372.239" y1="-20.6855" x2="712.465" y2="4.67178" gradientUnits="userSpaceOnUse">
<stop stop-color="#44CCF4"/>
<stop offset="1" stop-color="#5BD361"/>
</linearGradient>
<linearGradient id="paint2_linear_111_10" x1="295.432" y1="723.292" x2="-112.607" y2="651.065" gradientUnits="userSpaceOnUse">
<stop stop-color="#5AD26A"/>
<stop offset="1" stop-color="#45CCEF"/>
</linearGradient>
</defs>
</svg>
