<svg width="722" height="481" viewBox="0 0 722 481" fill="none" xmlns="http://www.w3.org/2000/svg">
<path d="M264.896 -63.6448L351.384 22.8428C360.983 32.4425 364.732 46.4345 361.219 59.548L329.562 177.692C326.048 190.806 315.805 201.049 302.692 204.562L184.548 236.219C171.434 239.733 157.442 235.984 147.842 226.384L61.3548 139.896C51.7551 130.296 48.0059 116.305 51.5197 103.191L83.1764 -14.9533C86.6901 -28.0667 96.9329 -38.3095 110.046 -41.8233L228.191 -73.48C241.304 -76.9937 255.296 -73.2446 264.896 -63.6448Z" stroke="url(#paint0_linear_146_4)" stroke-width="4"/>
<path d="M253.859 206.395C254.322 204.669 255.67 203.322 257.395 202.859L266.307 200.471C268.033 200.009 269.874 200.502 271.137 201.765L277.661 208.29C278.924 209.553 279.417 211.394 278.955 213.119L276.567 222.031C276.105 223.757 274.757 225.105 273.031 225.567L264.119 227.955C262.394 228.417 260.553 227.924 259.29 226.661L252.766 220.137C251.502 218.874 251.009 217.032 251.471 215.307L253.859 206.395Z" fill="#3F7E3F" fill-opacity="0.7"/>
<path d="M515.129 436.93C522.005 438.859 527.331 444.314 529.101 451.24L541.831 501.071C543.601 507.998 541.545 515.343 536.438 520.341L499.698 556.296C494.592 561.293 487.21 563.184 480.333 561.255L430.863 547.379C423.986 545.45 418.66 539.995 416.891 533.068L404.16 483.237C402.39 476.311 404.446 468.965 409.553 463.967L446.293 428.013C451.4 423.015 458.781 421.124 465.658 423.053L515.129 436.93Z" fill="#008CCF"/>
<path d="M513.142 439.129L529.249 502.207C530.93 508.786 528.976 515.763 524.125 520.511L477.605 566.037C472.754 570.784 465.743 572.58 459.211 570.748L396.59 553.191C390.055 551.359 384.994 546.175 383.314 539.594L367.206 476.517C365.526 469.937 367.479 462.96 372.33 458.213L418.85 412.687C423.701 407.939 430.713 406.143 437.245 407.975L499.866 425.532C506.4 427.364 511.461 432.548 513.142 439.129Z" stroke="#BADCF6" stroke-width="2"/>
<path d="M540.76 345.501L647.607 456.144C657.038 465.91 660.542 479.965 656.8 493.015L614.404 640.869C610.662 653.919 600.242 663.982 587.069 667.266L437.826 704.476C424.653 707.761 410.729 703.768 401.298 694.002L294.451 583.359C285.02 573.593 281.516 559.538 285.258 546.488L327.654 398.634C331.397 385.584 341.817 375.522 354.989 372.237L504.232 335.027C517.405 331.742 531.33 335.735 540.76 345.501Z" stroke="url(#paint1_linear_146_4)" stroke-width="4"/>
<defs>
<linearGradient id="paint0_linear_146_4" x1="87.5206" y1="-26.7083" x2="319.489" y2="196.273" gradientUnits="userSpaceOnUse">
<stop stop-color="#5AD26A"/>
<stop offset="1" stop-color="#45CCEF"/>
</linearGradient>
<linearGradient id="paint1_linear_146_4" x1="332.223" y1="389.027" x2="660.681" y2="479.202" gradientUnits="userSpaceOnUse">
<stop stop-color="#5AD26A"/>
<stop offset="1" stop-color="#45CCEF"/>
</linearGradient>
</defs>
</svg>
