<svg width="447" height="231" viewBox="0 0 447 231" fill="none" xmlns="http://www.w3.org/2000/svg">
<path d="M314.126 92.8753C321.202 93.8697 327.21 98.5635 329.886 105.189L378.55 225.635C381.227 232.26 380.166 239.81 375.767 245.441L295.788 347.808C291.389 353.439 284.321 356.295 277.245 355.3L148.603 337.221C141.527 336.226 135.519 331.532 132.843 324.907L84.1791 204.461C81.5024 197.836 82.5635 190.286 86.9626 184.655L166.941 82.288C171.34 76.6574 178.409 73.8015 185.484 74.7959L314.126 92.8753Z" fill="url(#paint0_linear_15_21)"/>
<path d="M298.156 96.8656C304.878 97.8103 310.585 102.269 313.128 108.563L361.792 229.01C364.335 235.304 363.327 242.476 359.147 247.825L279.169 350.192C274.99 355.541 268.275 358.255 261.553 357.31L132.911 339.23C126.189 338.286 120.482 333.827 117.939 327.533L69.2752 207.086C66.7324 200.792 67.7404 193.62 71.9195 188.271L151.898 85.9037C156.077 80.5546 162.792 77.8414 169.514 78.7862L298.156 96.8656Z" stroke="#00A4F1" stroke-width="2"/>
<path d="M264.694 72.0439C265.774 70.6213 267.531 69.8832 269.303 70.1076L283.417 71.8948C285.189 72.1192 286.707 73.272 287.399 74.9189L292.908 88.0354C293.6 89.6823 293.36 91.5732 292.28 92.9958L283.675 104.325C282.595 105.748 280.838 106.486 279.066 106.261L264.952 104.474C263.18 104.25 261.662 103.097 260.97 101.45L255.461 88.3336C254.769 86.6867 255.008 84.7958 256.089 83.3732L264.694 72.0439Z" fill="#3F7E3F" fill-opacity="0.7"/>
<defs>
<linearGradient id="paint0_linear_15_21" x1="121.002" y1="148.864" x2="300.967" y2="339.695" gradientUnits="userSpaceOnUse">
<stop stop-color="#5CD258"/>
<stop offset="1" stop-color="#42CBFF"/>
</linearGradient>
</defs>
</svg>
