<svg width="12" height="12" viewBox="0 0 12 12" fill="none" xmlns="http://www.w3.org/2000/svg">
<path d="M10.9453 1.78125H1.05469C0.474328 1.78125 0 2.25349 0 2.83594V9.16406C0 9.74672 0.474633 10.2188 1.05469 10.2188H10.9453C11.5257 10.2188 12 9.74651 12 9.16406V2.83594C12 2.25335 11.5254 1.78125 10.9453 1.78125ZM10.7834 2.48438L6.27244 7.01002C6.135 7.14787 5.86507 7.14797 5.72756 7.01002L1.21664 2.48438H10.7834ZM0.703125 9.0348V2.9652L3.72809 6L0.703125 9.0348ZM1.21664 9.51562L4.22447 6.498L5.22959 7.5064C5.64148 7.91963 6.35869 7.91946 6.77044 7.5064L7.77555 6.49802L10.7834 9.51562H1.21664ZM11.2969 9.0348L8.27191 6L11.2969 2.9652V9.0348Z" fill="#008CCF"/>
</svg>
