<svg width="642" height="361" viewBox="0 0 642 361" fill="none" xmlns="http://www.w3.org/2000/svg">
<path d="M296.955 269.236C284.149 273.743 269.911 271.077 259.604 262.24L109.947 133.93C99.6405 125.094 94.8307 111.43 97.3296 98.0858L133.615 -95.6739C136.114 -109.018 145.542 -120.015 158.348 -124.523L344.29 -189.973C357.096 -194.48 371.334 -191.813 381.641 -182.977L531.298 -54.6672C541.604 -45.8306 546.414 -32.1668 543.915 -18.8226L507.63 174.937C505.131 188.281 495.703 199.278 482.897 203.786L296.955 269.236Z" stroke="url(#paint0_linear_26_208)" stroke-width="4"/>
<path d="M330.749 271.45C329.407 272.629 327.538 273.002 325.846 272.429L317.107 269.468C315.415 268.895 314.158 267.463 313.808 265.711L312.003 256.663C311.654 254.911 312.265 253.106 313.608 251.927L320.541 245.84C321.883 244.661 323.752 244.288 325.444 244.861L334.183 247.822C335.875 248.395 337.132 249.827 337.482 251.579L339.287 260.627C339.637 262.379 339.025 264.184 337.683 265.363L330.749 271.45Z" fill="#3F7E3F" fill-opacity="0.7"/>
<path d="M101.158 92.7689C99.4662 93.3434 97.5968 92.9718 96.2536 91.7942L78.0369 75.8231C76.6937 74.6455 76.0808 72.8408 76.429 71.0887L81.152 47.3271C81.5002 45.575 82.7567 44.1418 84.4482 43.5674L107.388 35.7768C109.079 35.2023 110.949 35.5739 112.292 36.7515L130.509 52.7226C131.852 53.9002 132.465 55.7049 132.117 57.457L127.394 81.2187C127.045 82.9707 125.789 84.4039 124.097 84.9783L101.158 92.7689Z" fill="#3F7E3F" fill-opacity="0.7"/>
<defs>
<linearGradient id="paint0_linear_26_208" x1="503.69" y1="182.1" x2="95.5521" y2="110.438" gradientUnits="userSpaceOnUse">
<stop stop-color="#45CCEF"/>
<stop offset="1" stop-color="#5AD26A"/>
</linearGradient>
</defs>
</svg>
