<svg width="1000" height="510" viewBox="0 0 1000 510" fill="none" xmlns="http://www.w3.org/2000/svg">
<path d="M276.516 373.369C287.214 365.011 301.558 362.995 314.146 368.08L384.878 396.658C397.465 401.744 406.383 413.158 408.273 426.602L418.89 502.146C420.779 515.59 415.353 529.021 404.655 537.379L344.54 584.346C333.842 592.704 319.497 594.72 306.91 589.635L236.178 561.057C223.591 555.971 214.673 544.557 212.783 531.113L202.166 455.569C200.277 442.125 205.703 428.694 216.401 420.336L276.516 373.369Z" stroke="url(#paint0_linear_111_7)" stroke-width="4"/>
<path d="M195.919 438.289C209.328 436.165 222.852 441.357 231.395 451.907L282.881 515.487C291.425 526.038 293.691 540.345 288.826 553.019L259.507 629.397C254.642 642.072 243.385 651.188 229.976 653.311L149.171 666.11C135.762 668.233 122.239 663.042 113.695 652.492L62.2089 588.912C53.6652 578.361 51.3991 564.054 56.2644 551.38L85.5832 475.002C90.4484 462.327 101.706 453.211 115.115 451.087L195.919 438.289Z" stroke="url(#paint1_linear_111_7)" stroke-width="4"/>
<path d="M927.091 161.564C923.221 149.051 925.837 135.589 934.037 125.831L1013.41 31.3613C1022.24 20.8624 1036.16 16.2555 1049.71 19.3496L1162.82 45.1675C1176.38 48.2616 1187.4 58.5627 1191.56 72.0256L1229.03 193.166C1232.9 205.679 1230.28 219.141 1222.08 228.899L1142.71 323.369C1133.89 333.868 1119.96 338.475 1106.41 335.38L993.301 309.563C979.745 306.468 968.721 296.167 964.557 282.704L927.091 161.564Z" stroke="url(#paint2_linear_111_7)" stroke-width="4"/>
<path d="M931.85 205.496C934.194 202.8 937.798 201.559 941.305 202.241L954.511 204.808C958.018 205.489 960.895 207.99 962.058 211.368L966.438 224.088C967.601 227.466 966.874 231.208 964.53 233.905L955.704 244.058C953.36 246.754 949.756 247.995 946.249 247.313L933.043 244.746C929.536 244.065 926.659 241.564 925.496 238.186L921.116 225.466C919.953 222.088 920.68 218.346 923.024 215.65L931.85 205.496Z" fill="#3F7E3F" fill-opacity="0.7"/>
<path d="M340.54 368.674C341.634 367.754 343.135 367.487 344.478 367.974L351.888 370.66C353.231 371.147 354.213 372.313 354.463 373.72L355.842 381.48C356.092 382.887 355.572 384.321 354.479 385.241L348.448 390.315C347.355 391.235 345.854 391.501 344.51 391.014L337.101 388.329C335.757 387.842 334.775 386.675 334.525 385.268L333.146 377.508C332.896 376.101 333.416 374.668 334.509 373.748L340.54 368.674Z" fill="#3F7E3F" fill-opacity="0.7"/>
<path d="M96.2687 433.597C97.465 432.816 98.9875 432.732 100.263 433.377L117.768 442.237C119.043 442.882 119.877 444.159 119.956 445.585L121.036 465.176C121.115 466.603 120.427 467.963 119.23 468.745L102.805 479.475C101.608 480.257 100.086 480.341 98.8107 479.696L81.3049 470.836C80.0298 470.191 79.1959 468.914 79.1172 467.487L78.0369 447.897C77.9582 446.47 78.6468 445.11 79.8431 444.328L96.2687 433.597Z" fill="#3F7E3F" fill-opacity="0.7"/>
<defs>
<linearGradient id="paint0_linear_111_7" x1="200.315" y1="440.299" x2="406.525" y2="408.935" gradientUnits="userSpaceOnUse">
<stop stop-color="#5AD26A"/>
<stop offset="1" stop-color="#45CCEF"/>
</linearGradient>
<linearGradient id="paint1_linear_111_7" x1="91.339" y1="461.111" x2="295.723" y2="536.925" gradientUnits="userSpaceOnUse">
<stop stop-color="#5AD26A"/>
<stop offset="1" stop-color="#45CCEF"/>
</linearGradient>
<linearGradient id="paint2_linear_111_7" x1="980.433" y1="305.356" x2="1042.55" y2="17.3923" gradientUnits="userSpaceOnUse">
<stop stop-color="#5AD26A"/>
<stop offset="1" stop-color="#45CCEF"/>
</linearGradient>
</defs>
</svg>
