<svg width="556" height="337" viewBox="0 0 556 337" fill="none" xmlns="http://www.w3.org/2000/svg">
<path d="M75 0H154C165.046 0 174 8.95431 174 20V38H95C83.9543 38 75 29.0457 75 18V0Z" fill="#008CCF"/>
<path d="M82.9588 23V14.2727H86.0696C86.7486 14.2727 87.3111 14.3963 87.7571 14.6435C88.2031 14.8906 88.5369 15.2287 88.7585 15.6577C88.9801 16.0838 89.0909 16.5639 89.0909 17.098C89.0909 17.6349 88.9787 18.1179 88.7543 18.5469C88.5327 18.973 88.1974 19.3111 87.7486 19.5611C87.3026 19.8082 86.7415 19.9318 86.0653 19.9318H83.9261V18.8153H85.946C86.375 18.8153 86.723 18.7415 86.9901 18.5938C87.2571 18.4432 87.4531 18.2386 87.5781 17.9801C87.7031 17.7216 87.7656 17.4276 87.7656 17.098C87.7656 16.7685 87.7031 16.4759 87.5781 16.2202C87.4531 15.9645 87.2557 15.7642 86.9858 15.6193C86.7188 15.4744 86.3665 15.402 85.929 15.402H84.2756V23H82.9588ZM93.2713 23.1321C92.6264 23.1321 92.071 22.9943 91.6051 22.7188C91.142 22.4403 90.7841 22.0497 90.5312 21.5469C90.2812 21.0412 90.1562 20.4489 90.1562 19.7699C90.1562 19.0994 90.2812 18.5085 90.5312 17.9972C90.7841 17.4858 91.1364 17.0866 91.5881 16.7997C92.0426 16.5128 92.5739 16.3693 93.1818 16.3693C93.5511 16.3693 93.9091 16.4304 94.2557 16.5526C94.6023 16.6747 94.9134 16.8665 95.1889 17.1278C95.4645 17.3892 95.6818 17.7287 95.8409 18.1463C96 18.5611 96.0795 19.0653 96.0795 19.6591V20.1108H90.8764V19.1562H94.831C94.831 18.821 94.7628 18.5241 94.6264 18.2656C94.4901 18.0043 94.2983 17.7983 94.0511 17.6477C93.8068 17.4972 93.5199 17.4219 93.1903 17.4219C92.8324 17.4219 92.5199 17.5099 92.2528 17.6861C91.9886 17.8594 91.7841 18.0866 91.6392 18.3679C91.4972 18.6463 91.4261 18.9489 91.4261 19.2756V20.0213C91.4261 20.4588 91.5028 20.831 91.6562 21.1378C91.8125 21.4446 92.0298 21.679 92.3082 21.8409C92.5866 22 92.9119 22.0795 93.2841 22.0795C93.5256 22.0795 93.7457 22.0455 93.9446 21.9773C94.1435 21.9062 94.3153 21.8011 94.4602 21.6619C94.6051 21.5227 94.7159 21.3509 94.7926 21.1463L95.9986 21.3636C95.902 21.7187 95.7287 22.0298 95.4787 22.2969C95.2315 22.5611 94.9205 22.767 94.5455 22.9148C94.1733 23.0597 93.7486 23.1321 93.2713 23.1321ZM101.678 16.4545V17.554H98.7504V23H97.4933V16.4545H101.678ZM104.273 21.2145L107.158 16.4545H108.53V23H107.282V18.2358L104.409 23H103.025V16.4545H104.273V21.2145ZM113 23.1321C112.367 23.1321 111.821 22.9886 111.364 22.7017C110.909 22.4119 110.56 22.0128 110.316 21.5043C110.071 20.9957 109.949 20.4134 109.949 19.7571C109.949 19.0923 110.074 18.5057 110.324 17.9972C110.574 17.4858 110.926 17.0866 111.381 16.7997C111.836 16.5128 112.371 16.3693 112.988 16.3693C113.485 16.3693 113.928 16.4616 114.317 16.6463C114.706 16.8281 115.02 17.0838 115.259 17.4134C115.5 17.7429 115.644 18.1278 115.689 18.5682H114.449C114.381 18.2614 114.225 17.9972 113.98 17.7756C113.739 17.554 113.415 17.4432 113.009 17.4432C112.654 17.4432 112.343 17.5369 112.076 17.7244C111.811 17.9091 111.605 18.1733 111.458 18.517C111.31 18.858 111.236 19.2614 111.236 19.7273C111.236 20.2045 111.309 20.6165 111.453 20.9631C111.598 21.3097 111.803 21.5781 112.067 21.7685C112.334 21.9588 112.648 22.054 113.009 22.054C113.25 22.054 113.469 22.0099 113.665 21.9219C113.864 21.831 114.03 21.7017 114.164 21.5341C114.3 21.3665 114.395 21.1648 114.449 20.929H115.689C115.644 21.3523 115.506 21.7301 115.276 22.0625C115.046 22.3949 114.738 22.6562 114.351 22.8466C113.968 23.0369 113.517 23.1321 113 23.1321ZM116.556 17.554V16.4545H122.079V17.554H119.944V23H118.7V17.554H116.556ZM123.427 25.4545V16.4545H124.671V17.5156H124.778C124.852 17.3793 124.958 17.2216 125.097 17.0426C125.237 16.8636 125.43 16.7074 125.677 16.5739C125.924 16.4375 126.251 16.3693 126.657 16.3693C127.185 16.3693 127.657 16.5028 128.072 16.7699C128.487 17.0369 128.812 17.4219 129.048 17.9247C129.286 18.4276 129.406 19.0327 129.406 19.7401C129.406 20.4474 129.288 21.054 129.052 21.5597C128.816 22.0625 128.492 22.4503 128.08 22.723C127.668 22.9929 127.198 23.1278 126.67 23.1278C126.272 23.1278 125.947 23.0611 125.694 22.9276C125.444 22.794 125.248 22.6378 125.106 22.4588C124.964 22.2798 124.854 22.1207 124.778 21.9815H124.701V25.4545H123.427ZM124.675 19.7273C124.675 20.1875 124.742 20.5909 124.876 20.9375C125.009 21.2841 125.202 21.5554 125.455 21.7514C125.708 21.9446 126.018 22.0412 126.384 22.0412C126.765 22.0412 127.083 21.9403 127.339 21.7386C127.594 21.5341 127.788 21.2571 127.918 20.9077C128.052 20.5582 128.119 20.1648 128.119 19.7273C128.119 19.2955 128.053 18.9077 127.923 18.5639C127.795 18.2202 127.602 17.9489 127.343 17.75C127.087 17.5511 126.768 17.4517 126.384 17.4517C126.015 17.4517 125.702 17.5469 125.447 17.7372C125.194 17.9276 125.002 18.1932 124.871 18.5341C124.741 18.875 124.675 19.2727 124.675 19.7273ZM132.738 23.1449C132.323 23.1449 131.948 23.0682 131.613 22.9148C131.278 22.7585 131.012 22.5327 130.816 22.2372C130.623 21.9418 130.526 21.5795 130.526 21.1506C130.526 20.7812 130.597 20.4773 130.739 20.2386C130.881 20 131.073 19.8111 131.315 19.6719C131.556 19.5327 131.826 19.4276 132.124 19.3565C132.423 19.2855 132.727 19.2315 133.036 19.1946C133.428 19.1491 133.746 19.1122 133.991 19.0838C134.235 19.0526 134.413 19.0028 134.523 18.9347C134.634 18.8665 134.69 18.7557 134.69 18.6023V18.5724C134.69 18.2003 134.585 17.9119 134.374 17.7074C134.167 17.5028 133.857 17.4006 133.445 17.4006C133.016 17.4006 132.678 17.4957 132.431 17.6861C132.187 17.8736 132.018 18.0824 131.924 18.3125L130.727 18.0398C130.869 17.642 131.076 17.321 131.349 17.0767C131.624 16.8295 131.941 16.6506 132.299 16.5398C132.657 16.4261 133.033 16.3693 133.428 16.3693C133.69 16.3693 133.967 16.4006 134.259 16.4631C134.555 16.5227 134.83 16.6335 135.086 16.7955C135.344 16.9574 135.556 17.1889 135.721 17.4901C135.886 17.7884 135.968 18.1761 135.968 18.6534V23H134.724V22.1051H134.673C134.59 22.2699 134.467 22.4318 134.302 22.5909C134.137 22.75 133.925 22.8821 133.667 22.9872C133.408 23.0923 133.099 23.1449 132.738 23.1449ZM133.015 22.1222C133.367 22.1222 133.668 22.0526 133.918 21.9134C134.171 21.7741 134.363 21.5923 134.494 21.3679C134.627 21.1406 134.694 20.8977 134.694 20.6392V19.7955C134.648 19.8409 134.56 19.8835 134.43 19.9233C134.302 19.9602 134.156 19.9929 133.991 20.0213C133.826 20.0469 133.665 20.071 133.509 20.0938C133.353 20.1136 133.222 20.1307 133.117 20.1449C132.87 20.1761 132.644 20.2287 132.44 20.3026C132.238 20.3764 132.076 20.483 131.954 20.6222C131.835 20.7585 131.775 20.9403 131.775 21.1676C131.775 21.483 131.891 21.7216 132.124 21.8835C132.357 22.0426 132.654 22.1222 133.015 22.1222ZM136.853 17.554V16.4545H142.376V17.554H140.241V23H138.997V17.554H136.853ZM144.529 25.4545C144.339 25.4545 144.165 25.4389 144.009 25.4077C143.853 25.3793 143.737 25.348 143.66 25.3139L143.967 24.2699C144.2 24.3324 144.407 24.3594 144.589 24.3509C144.771 24.3423 144.931 24.2741 145.07 24.1463C145.212 24.0185 145.337 23.8097 145.445 23.5199L145.603 23.0852L143.208 16.4545H144.572L146.229 21.5341H146.298L147.955 16.4545H149.323L146.626 23.8736C146.501 24.2145 146.342 24.5028 146.148 24.7386C145.955 24.9773 145.725 25.1563 145.458 25.2756C145.191 25.3949 144.881 25.4545 144.529 25.4545ZM150.521 25.4545V16.4545H151.765V17.5156H151.871C151.945 17.3793 152.052 17.2216 152.191 17.0426C152.33 16.8636 152.523 16.7074 152.771 16.5739C153.018 16.4375 153.344 16.3693 153.751 16.3693C154.279 16.3693 154.751 16.5028 155.165 16.7699C155.58 17.0369 155.906 17.4219 156.141 17.9247C156.38 18.4276 156.499 19.0327 156.499 19.7401C156.499 20.4474 156.381 21.054 156.146 21.5597C155.91 22.0625 155.586 22.4503 155.174 22.723C154.762 22.9929 154.292 23.1278 153.763 23.1278C153.366 23.1278 153.04 23.0611 152.788 22.9276C152.538 22.794 152.342 22.6378 152.2 22.4588C152.058 22.2798 151.948 22.1207 151.871 21.9815H151.795V25.4545H150.521ZM151.769 19.7273C151.769 20.1875 151.836 20.5909 151.969 20.9375C152.103 21.2841 152.296 21.5554 152.549 21.7514C152.802 21.9446 153.112 22.0412 153.478 22.0412C153.859 22.0412 154.177 21.9403 154.433 21.7386C154.688 21.5341 154.881 21.2571 155.012 20.9077C155.146 20.5582 155.212 20.1648 155.212 19.7273C155.212 19.2955 155.147 18.9077 155.016 18.5639C154.888 18.2202 154.695 17.9489 154.437 17.75C154.181 17.5511 153.862 17.4517 153.478 17.4517C153.109 17.4517 152.796 17.5469 152.54 17.7372C152.288 17.9276 152.096 18.1932 151.965 18.5341C151.835 18.875 151.769 19.2727 151.769 19.7273ZM159.832 23.1449C159.417 23.1449 159.042 23.0682 158.707 22.9148C158.371 22.7585 158.106 22.5327 157.91 22.2372C157.717 21.9418 157.62 21.5795 157.62 21.1506C157.62 20.7812 157.691 20.4773 157.833 20.2386C157.975 20 158.167 19.8111 158.408 19.6719C158.65 19.5327 158.92 19.4276 159.218 19.3565C159.516 19.2855 159.82 19.2315 160.13 19.1946C160.522 19.1491 160.84 19.1122 161.085 19.0838C161.329 19.0526 161.506 19.0028 161.617 18.9347C161.728 18.8665 161.783 18.7557 161.783 18.6023V18.5724C161.783 18.2003 161.678 17.9119 161.468 17.7074C161.261 17.5028 160.951 17.4006 160.539 17.4006C160.11 17.4006 159.772 17.4957 159.525 17.6861C159.281 17.8736 159.112 18.0824 159.018 18.3125L157.82 18.0398C157.962 17.642 158.17 17.321 158.442 17.0767C158.718 16.8295 159.035 16.6506 159.393 16.5398C159.751 16.4261 160.127 16.3693 160.522 16.3693C160.783 16.3693 161.06 16.4006 161.353 16.4631C161.648 16.5227 161.924 16.6335 162.18 16.7955C162.438 16.9574 162.65 17.1889 162.815 17.4901C162.979 17.7884 163.062 18.1761 163.062 18.6534V23H161.817V22.1051H161.766C161.684 22.2699 161.56 22.4318 161.396 22.5909C161.231 22.75 161.019 22.8821 160.761 22.9872C160.502 23.0923 160.192 23.1449 159.832 23.1449ZM160.109 22.1222C160.461 22.1222 160.762 22.0526 161.012 21.9134C161.265 21.7741 161.457 21.5923 161.587 21.3679C161.721 21.1406 161.788 20.8977 161.788 20.6392V19.7955C161.742 19.8409 161.654 19.8835 161.523 19.9233C161.396 19.9602 161.249 19.9929 161.085 20.0213C160.92 20.0469 160.759 20.071 160.603 20.0938C160.447 20.1136 160.316 20.1307 160.211 20.1449C159.964 20.1761 159.738 20.2287 159.533 20.3026C159.332 20.3764 159.17 20.483 159.048 20.6222C158.928 20.7585 158.869 20.9403 158.869 21.1676C158.869 21.483 158.985 21.7216 159.218 21.8835C159.451 22.0426 159.748 22.1222 160.109 22.1222Z" fill="white"/>
<path d="M0 76H79C90.0457 76 99 84.9543 99 96V114H20C8.95431 114 0 105.046 0 94V76Z" fill="#008CCF"/>
<path d="M20.7812 84.2727V93H19.4688V85.3977H15.3608V93H14.0483V84.2727H20.7812ZM22.6925 95.4545V86.4545H23.9368V87.5156H24.0433C24.1172 87.3793 24.2237 87.2216 24.3629 87.0426C24.5021 86.8636 24.6953 86.7074 24.9425 86.5739C25.1896 86.4375 25.5163 86.3693 25.9226 86.3693C26.451 86.3693 26.9226 86.5028 27.3374 86.7699C27.7521 87.0369 28.0774 87.4219 28.3132 87.9247C28.5518 88.4276 28.6712 89.0327 28.6712 89.7401C28.6712 90.4474 28.5533 91.054 28.3175 91.5597C28.0817 92.0625 27.7578 92.4503 27.3459 92.723C26.9339 92.9929 26.4638 93.1278 25.9354 93.1278C25.5376 93.1278 25.2124 93.0611 24.9595 92.9276C24.7095 92.794 24.5135 92.6378 24.3714 92.4588C24.2294 92.2798 24.12 92.1207 24.0433 91.9815H23.9666V95.4545H22.6925ZM23.9411 89.7273C23.9411 90.1875 24.0078 90.5909 24.1413 90.9375C24.2749 91.2841 24.468 91.5554 24.7209 91.7514C24.9737 91.9446 25.2834 92.0412 25.6499 92.0412C26.0305 92.0412 26.3487 91.9403 26.6044 91.7386C26.8601 91.5341 27.0533 91.2571 27.1839 90.9077C27.3175 90.5582 27.3842 90.1648 27.3842 89.7273C27.3842 89.2955 27.3189 88.9077 27.1882 88.5639C27.0604 88.2202 26.8672 87.9489 26.6087 87.75C26.353 87.5511 26.0334 87.4517 25.6499 87.4517C25.2805 87.4517 24.968 87.5469 24.7124 87.7372C24.4595 87.9276 24.2678 88.1932 24.1371 88.5341C24.0064 88.875 23.9411 89.2727 23.9411 89.7273ZM31.3473 91.2145L34.2322 86.4545H35.6044V93H34.3558V88.2358L31.4837 93H30.0987V86.4545H31.3473V91.2145ZM40.1385 93.1321C39.4936 93.1321 38.9382 92.9943 38.4723 92.7188C38.0092 92.4403 37.6513 92.0497 37.3984 91.5469C37.1484 91.0412 37.0234 90.4489 37.0234 89.7699C37.0234 89.0994 37.1484 88.5085 37.3984 87.9972C37.6513 87.4858 38.0036 87.0866 38.4553 86.7997C38.9098 86.5128 39.4411 86.3693 40.049 86.3693C40.4183 86.3693 40.7763 86.4304 41.1229 86.5526C41.4695 86.6747 41.7805 86.8665 42.0561 87.1278C42.3317 87.3892 42.549 87.7287 42.7081 88.1463C42.8672 88.5611 42.9467 89.0653 42.9467 89.6591V90.1108H37.7436V89.1562H41.6982C41.6982 88.821 41.63 88.5241 41.4936 88.2656C41.3572 88.0043 41.1655 87.7983 40.9183 87.6477C40.674 87.4972 40.3871 87.4219 40.0575 87.4219C39.6996 87.4219 39.3871 87.5099 39.12 87.6861C38.8558 87.8594 38.6513 88.0866 38.5064 88.3679C38.3643 88.6463 38.2933 88.9489 38.2933 89.2756V90.0213C38.2933 90.4588 38.37 90.831 38.5234 91.1378C38.6797 91.4446 38.897 91.679 39.1754 91.8409C39.4538 92 39.7791 92.0795 40.1513 92.0795C40.3928 92.0795 40.6129 92.0455 40.8118 91.9773C41.0107 91.9062 41.1825 91.8011 41.3274 91.6619C41.4723 91.5227 41.5831 91.3509 41.6598 91.1463L42.8658 91.3636C42.7692 91.7187 42.5959 92.0298 42.3459 92.2969C42.0987 92.5611 41.7876 92.767 41.4126 92.9148C41.0405 93.0597 40.6158 93.1321 40.1385 93.1321ZM48.0337 91.4233L50.1474 86.4545H51.2468L48.5067 93H47.5607L44.8761 86.4545H45.9627L48.0337 91.4233ZM45.609 86.4545V93H44.3604V86.4545H45.609ZM50.4925 93V86.4545H51.7326V93H50.4925ZM57.8668 89.1776V90.2812H54.3214V89.1776H57.8668ZM54.6793 86.4545V93H53.4308V86.4545H54.6793ZM58.7575 86.4545V93H57.5131V86.4545H58.7575ZM61.4208 88.7045H63.3214C64.1225 88.7045 64.739 88.9034 65.1708 89.3011C65.6026 89.6989 65.8185 90.2116 65.8185 90.8395C65.8185 91.2486 65.7219 91.6165 65.5288 91.9432C65.3356 92.2699 65.0529 92.5284 64.6808 92.7188C64.3086 92.9062 63.8555 93 63.3214 93H60.462V86.4545H61.7106V91.9006H63.3214C63.6879 91.9006 63.989 91.8054 64.2248 91.6151C64.4606 91.4219 64.5785 91.1761 64.5785 90.8778C64.5785 90.5625 64.4606 90.3054 64.2248 90.1065C63.989 89.9048 63.6879 89.804 63.3214 89.804H61.4208V88.7045ZM66.7475 93V86.4545H68.0217V93H66.7475ZM70.9801 91.2145L73.8651 86.4545H75.2372V93H73.9886V88.2358L71.1165 93H69.7315V86.4545H70.9801V91.2145ZM73.3196 84.2386H74.3679C74.3679 84.7187 74.1974 85.1094 73.8565 85.4105C73.5185 85.7088 73.0611 85.858 72.4844 85.858C71.9105 85.858 71.4545 85.7088 71.1165 85.4105C70.7784 85.1094 70.6094 84.7187 70.6094 84.2386H71.6534C71.6534 84.4517 71.7159 84.6406 71.8409 84.8054C71.9659 84.9673 72.1804 85.0483 72.4844 85.0483C72.7827 85.0483 72.9957 84.9673 73.1236 84.8054C73.2543 84.6435 73.3196 84.4545 73.3196 84.2386ZM13.8565 105V98.4545H19.196V105H17.9474V99.554H15.0966V105H13.8565ZM23.6566 105.132C23.043 105.132 22.5075 104.991 22.0501 104.71C21.5927 104.429 21.2376 104.036 20.9847 103.53C20.7319 103.024 20.6055 102.433 20.6055 101.757C20.6055 101.078 20.7319 100.484 20.9847 99.9759C21.2376 99.4673 21.5927 99.0724 22.0501 98.7912C22.5075 98.5099 23.043 98.3693 23.6566 98.3693C24.2702 98.3693 24.8058 98.5099 25.2631 98.7912C25.7205 99.0724 26.0756 99.4673 26.3285 99.9759C26.5813 100.484 26.7077 101.078 26.7077 101.757C26.7077 102.433 26.5813 103.024 26.3285 103.53C26.0756 104.036 25.7205 104.429 25.2631 104.71C24.8058 104.991 24.2702 105.132 23.6566 105.132ZM23.6609 104.062C24.0586 104.062 24.3881 103.957 24.6495 103.747C24.9109 103.537 25.104 103.257 25.229 102.908C25.3569 102.558 25.4208 102.173 25.4208 101.753C25.4208 101.335 25.3569 100.952 25.229 100.602C25.104 100.25 24.9109 99.9673 24.6495 99.7543C24.3881 99.5412 24.0586 99.4347 23.6609 99.4347C23.2603 99.4347 22.9279 99.5412 22.6637 99.7543C22.4023 99.9673 22.2077 100.25 22.0799 100.602C21.9549 100.952 21.8924 101.335 21.8924 101.753C21.8924 102.173 21.9549 102.558 22.0799 102.908C22.2077 103.257 22.4023 103.537 22.6637 103.747C22.9279 103.957 23.2603 104.062 23.6609 104.062ZM28.13 105V98.4545H29.4041V101.199H30.0178L32.1783 98.4545H33.755L31.2195 101.638L33.7848 105H32.2038L30.2308 102.384H29.4041V105H28.13ZM37.2621 105.132C36.6484 105.132 36.1129 104.991 35.6555 104.71C35.1982 104.429 34.843 104.036 34.5902 103.53C34.3374 103.024 34.2109 102.433 34.2109 101.757C34.2109 101.078 34.3374 100.484 34.5902 99.9759C34.843 99.4673 35.1982 99.0724 35.6555 98.7912C36.1129 98.5099 36.6484 98.3693 37.2621 98.3693C37.8757 98.3693 38.4112 98.5099 38.8686 98.7912C39.326 99.0724 39.6811 99.4673 39.9339 99.9759C40.1868 100.484 40.3132 101.078 40.3132 101.757C40.3132 102.433 40.1868 103.024 39.9339 103.53C39.6811 104.036 39.326 104.429 38.8686 104.71C38.4112 104.991 37.8757 105.132 37.2621 105.132ZM37.2663 104.062C37.6641 104.062 37.9936 103.957 38.255 103.747C38.5163 103.537 38.7095 103.257 38.8345 102.908C38.9624 102.558 39.0263 102.173 39.0263 101.753C39.0263 101.335 38.9624 100.952 38.8345 100.602C38.7095 100.25 38.5163 99.9673 38.255 99.7543C37.9936 99.5412 37.6641 99.4347 37.2663 99.4347C36.8658 99.4347 36.5334 99.5412 36.2692 99.7543C36.0078 99.9673 35.8132 100.25 35.6854 100.602C35.5604 100.952 35.4979 101.335 35.4979 101.753C35.4979 102.173 35.5604 102.558 35.6854 102.908C35.8132 103.257 36.0078 103.537 36.2692 103.747C36.5334 103.957 36.8658 104.062 37.2663 104.062ZM42.984 103.214L45.869 98.4545H47.2411V105H45.9925V100.236L43.1204 105H41.7354V98.4545H42.984V103.214ZM45.3235 96.2386H46.3718C46.3718 96.7187 46.2013 97.1094 45.8604 97.4105C45.5224 97.7088 45.065 97.858 44.4883 97.858C43.9144 97.858 43.4585 97.7088 43.1204 97.4105C42.7823 97.1094 42.6133 96.7187 42.6133 96.2386H43.6573C43.6573 96.4517 43.7198 96.6406 43.8448 96.8054C43.9698 96.9673 44.1843 97.0483 44.4883 97.0483C44.7866 97.0483 44.9996 96.9673 45.1275 96.8054C45.2582 96.6435 45.3235 96.4545 45.3235 96.2386Z" fill="white"/>
<path d="M154 76H233C244.046 76 253 84.9543 253 96V114H174C162.954 114 154 105.046 154 94V76Z" fill="#008CCF"/>
<path d="M192.577 99.1193V97.9602H193.101C193.32 97.9602 193.5 97.9233 193.642 97.8494C193.787 97.7756 193.905 97.6761 193.996 97.5511C194.089 97.4233 194.168 97.2841 194.23 97.1335L194.354 96.8224L191.286 90.2727H192.683L194.972 95.3182L197.009 90.2727H198.389L195.372 97.4872C195.244 97.777 195.097 98.0455 194.929 98.2926C194.764 98.5398 194.544 98.7401 194.268 98.8935C193.993 99.044 193.628 99.1193 193.173 99.1193H192.577ZM202.554 99.1193C201.968 99.1193 201.446 99.0185 200.985 98.8168C200.528 98.6151 200.166 98.3352 199.899 97.9773C199.635 97.6165 199.493 97.1989 199.473 96.7244H200.811C200.828 96.983 200.914 97.2074 201.071 97.3977C201.23 97.5852 201.437 97.7301 201.693 97.8324C201.949 97.9347 202.233 97.9858 202.545 97.9858C202.889 97.9858 203.193 97.9261 203.457 97.8068C203.724 97.6875 203.933 97.5213 204.083 97.3082C204.234 97.0923 204.309 96.8438 204.309 96.5625C204.309 96.2699 204.234 96.0128 204.083 95.7912C203.936 95.5668 203.718 95.3906 203.431 95.2628C203.147 95.1349 202.804 95.071 202.4 95.071H201.663V93.9972H202.4C202.724 93.9972 203.008 93.9389 203.252 93.8224C203.5 93.706 203.693 93.544 203.832 93.3366C203.971 93.1264 204.041 92.8807 204.041 92.5994C204.041 92.3295 203.98 92.0952 203.858 91.8963C203.738 91.6946 203.568 91.5369 203.346 91.4233C203.127 91.3097 202.869 91.2528 202.571 91.2528C202.287 91.2528 202.021 91.3054 201.774 91.4105C201.529 91.5128 201.331 91.6605 201.177 91.8537C201.024 92.044 200.941 92.2727 200.93 92.5398H199.656C199.67 92.0682 199.809 91.6534 200.074 91.2955C200.341 90.9375 200.693 90.6577 201.13 90.456C201.568 90.2543 202.054 90.1534 202.588 90.1534C203.147 90.1534 203.63 90.2628 204.037 90.4815C204.446 90.6974 204.761 90.9858 204.983 91.3466C205.207 91.7074 205.318 92.1023 205.315 92.5312C205.318 93.0199 205.181 93.4347 204.906 93.7756C204.633 94.1165 204.27 94.3452 203.815 94.4616V94.5298C204.395 94.6179 204.843 94.848 205.162 95.2202C205.483 95.5923 205.642 96.054 205.639 96.6051C205.642 97.0852 205.508 97.5156 205.238 97.8963C204.971 98.277 204.606 98.5767 204.143 98.7955C203.68 99.0114 203.15 99.1193 202.554 99.1193ZM207.369 90.2727H208.673V96.6818H208.754L213.194 90.2727H214.413V99H213.096V92.5994H213.015L208.583 99H207.369V90.2727Z" fill="white"/>
<path d="M303 76H382C393.046 76 402 84.9543 402 96V114H323C311.954 114 303 105.046 303 94V76Z" fill="#008CCF"/>
<path d="M343.588 94.1847V95.3011H339.936V94.1847H343.588ZM337.682 96.2301H339.02C339.094 96.804 339.284 97.2429 339.591 97.5469C339.901 97.8509 340.382 98.0028 341.036 98.0028C341.518 98.0028 341.916 97.875 342.229 97.6193C342.541 97.3608 342.773 97.0114 342.923 96.571C343.077 96.1307 343.153 95.6364 343.153 95.0881V94.2017C343.153 93.6108 343.068 93.0966 342.898 92.6591C342.727 92.2216 342.479 91.8835 342.152 91.6449C341.828 91.4062 341.432 91.2869 340.963 91.2869C340.54 91.2869 340.193 91.3594 339.923 91.5043C339.653 91.6491 339.446 91.8565 339.301 92.1264C339.159 92.3935 339.065 92.7159 339.02 93.0938H337.678C337.734 92.5312 337.891 92.0284 338.146 91.5852C338.405 91.142 338.767 90.7926 339.233 90.5369C339.702 90.2812 340.278 90.1534 340.963 90.1534C341.685 90.1534 342.308 90.321 342.834 90.6562C343.362 90.9886 343.77 91.4574 344.057 92.0625C344.344 92.6676 344.487 93.3778 344.487 94.1932V95.1009C344.487 95.9162 344.345 96.625 344.061 97.2273C343.78 97.8295 343.381 98.2955 342.864 98.625C342.347 98.9545 341.737 99.1193 341.036 99.1193C340.334 99.1193 339.744 98.9943 339.267 98.7443C338.79 98.4915 338.42 98.1477 338.159 97.7131C337.898 97.2756 337.739 96.7812 337.682 96.2301ZM350.461 95.1776V96.2812H346.915V95.1776H350.461ZM347.273 92.4545V99H346.025V92.4545H347.273ZM351.351 92.4545V99H350.107V92.4545H351.351ZM352.417 100.888V97.8963H352.949C353.086 97.7713 353.201 97.6222 353.294 97.4489C353.391 97.2756 353.472 97.0696 353.537 96.831C353.605 96.5923 353.662 96.3139 353.708 95.9957C353.753 95.6747 353.793 95.3082 353.827 94.8963L354.032 92.4545H358.48V97.8963H359.486V100.888H358.242V99H353.678V100.888H352.417ZM354.313 97.8963H357.236V93.5455H355.174L355.037 94.8963C354.972 95.5838 354.89 96.1804 354.79 96.6861C354.691 97.1889 354.532 97.5923 354.313 97.8963ZM363.489 99.1321C362.875 99.1321 362.339 98.9915 361.882 98.7102C361.425 98.429 361.07 98.0355 360.817 97.5298C360.564 97.0241 360.438 96.4332 360.438 95.7571C360.438 95.0781 360.564 94.4844 360.817 93.9759C361.07 93.4673 361.425 93.0724 361.882 92.7912C362.339 92.5099 362.875 92.3693 363.489 92.3693C364.102 92.3693 364.638 92.5099 365.095 92.7912C365.553 93.0724 365.908 93.4673 366.161 93.9759C366.413 94.4844 366.54 95.0781 366.54 95.7571C366.54 96.4332 366.413 97.0241 366.161 97.5298C365.908 98.0355 365.553 98.429 365.095 98.7102C364.638 98.9915 364.102 99.1321 363.489 99.1321ZM363.493 98.0625C363.891 98.0625 364.22 97.9574 364.482 97.7472C364.743 97.5369 364.936 97.2571 365.061 96.9077C365.189 96.5582 365.253 96.1733 365.253 95.7528C365.253 95.3352 365.189 94.9517 365.061 94.6023C364.936 94.25 364.743 93.9673 364.482 93.7543C364.22 93.5412 363.891 93.4347 363.493 93.4347C363.092 93.4347 362.76 93.5412 362.496 93.7543C362.234 93.9673 362.04 94.25 361.912 94.6023C361.787 94.9517 361.724 95.3352 361.724 95.7528C361.724 96.1733 361.787 96.5582 361.912 96.9077C362.04 97.2571 362.234 97.5369 362.496 97.7472C362.76 97.9574 363.092 98.0625 363.493 98.0625Z" fill="white"/>
<path d="M457 76H536C547.046 76 556 84.9543 556 96V114H477C465.954 114 457 105.046 457 94V76Z" fill="#008CCF"/>
<path d="M482.207 93.1108H480.878C480.827 92.8267 480.732 92.5767 480.592 92.3608C480.453 92.1449 480.283 91.9616 480.081 91.8111C479.879 91.6605 479.653 91.5469 479.403 91.4702C479.156 91.3935 478.893 91.3551 478.615 91.3551C478.112 91.3551 477.662 91.4815 477.264 91.7344C476.869 91.9872 476.557 92.358 476.327 92.8466C476.099 93.3352 475.986 93.9318 475.986 94.6364C475.986 95.3466 476.099 95.946 476.327 96.4347C476.557 96.9233 476.871 97.2926 477.268 97.5426C477.666 97.7926 478.114 97.9176 478.611 97.9176C478.886 97.9176 479.148 97.8807 479.395 97.8068C479.645 97.7301 479.871 97.6179 480.072 97.4702C480.274 97.3224 480.445 97.142 480.584 96.929C480.726 96.7131 480.824 96.4659 480.878 96.1875L482.207 96.1918C482.136 96.6207 481.999 97.0156 481.794 97.3764C481.592 97.7344 481.332 98.044 481.014 98.3054C480.699 98.5639 480.338 98.7642 479.932 98.9062C479.526 99.0483 479.082 99.1193 478.602 99.1193C477.847 99.1193 477.173 98.9403 476.582 98.5824C475.991 98.2216 475.526 97.706 475.185 97.0355C474.847 96.3651 474.678 95.5653 474.678 94.6364C474.678 93.7045 474.848 92.9048 475.189 92.2372C475.53 91.5668 475.996 91.0526 476.587 90.6946C477.178 90.3338 477.849 90.1534 478.602 90.1534C479.065 90.1534 479.497 90.2202 479.898 90.3537C480.301 90.4844 480.663 90.6776 480.984 90.9332C481.305 91.1861 481.571 91.4957 481.781 91.8622C481.991 92.2259 482.134 92.642 482.207 93.1108ZM483.314 93.554V92.4545H488.837V93.554H486.702V99H485.458V93.554H483.314ZM491.785 99.1449C491.37 99.1449 490.995 99.0682 490.66 98.9148C490.325 98.7585 490.059 98.5327 489.863 98.2372C489.67 97.9418 489.573 97.5795 489.573 97.1506C489.573 96.7812 489.644 96.4773 489.786 96.2386C489.928 96 490.12 95.8111 490.362 95.6719C490.603 95.5327 490.873 95.4276 491.171 95.3565C491.469 95.2855 491.773 95.2315 492.083 95.1946C492.475 95.1491 492.793 95.1122 493.038 95.0838C493.282 95.0526 493.46 95.0028 493.57 94.9347C493.681 94.8665 493.737 94.7557 493.737 94.6023V94.5724C493.737 94.2003 493.631 93.9119 493.421 93.7074C493.214 93.5028 492.904 93.4006 492.492 93.4006C492.063 93.4006 491.725 93.4957 491.478 93.6861C491.234 93.8736 491.065 94.0824 490.971 94.3125L489.773 94.0398C489.915 93.642 490.123 93.321 490.396 93.0767C490.671 92.8295 490.988 92.6506 491.346 92.5398C491.704 92.4261 492.08 92.3693 492.475 92.3693C492.737 92.3693 493.013 92.4006 493.306 92.4631C493.602 92.5227 493.877 92.6335 494.133 92.7955C494.391 92.9574 494.603 93.1889 494.768 93.4901C494.933 93.7884 495.015 94.1761 495.015 94.6534V99H493.771V98.1051H493.719C493.637 98.2699 493.513 98.4318 493.349 98.5909C493.184 98.75 492.972 98.8821 492.714 98.9872C492.455 99.0923 492.146 99.1449 491.785 99.1449ZM492.062 98.1222C492.414 98.1222 492.715 98.0526 492.965 97.9134C493.218 97.7741 493.41 97.5923 493.54 97.3679C493.674 97.1406 493.741 96.8977 493.741 96.6392V95.7955C493.695 95.8409 493.607 95.8835 493.477 95.9233C493.349 95.9602 493.202 95.9929 493.038 96.0213C492.873 96.0469 492.712 96.071 492.556 96.0938C492.4 96.1136 492.269 96.1307 492.164 96.1449C491.917 96.1761 491.691 96.2287 491.487 96.3026C491.285 96.3764 491.123 96.483 491.001 96.6222C490.881 96.7585 490.822 96.9403 490.822 97.1676C490.822 97.483 490.938 97.7216 491.171 97.8835C491.404 98.0426 491.701 98.1222 492.062 98.1222ZM502.051 92.4545V97.956H503.01V101.109H501.753V99H496.712V92.4545H497.961V97.9006H500.807V92.4545H502.051ZM505.672 97.2145L508.556 92.4545H509.929V99H508.68V94.2358L505.808 99H504.423V92.4545H505.672V97.2145ZM514.399 99.1321C513.785 99.1321 513.25 98.9915 512.792 98.7102C512.335 98.429 511.98 98.0355 511.727 97.5298C511.474 97.0241 511.348 96.4332 511.348 95.7571C511.348 95.0781 511.474 94.4844 511.727 93.9759C511.98 93.4673 512.335 93.0724 512.792 92.7912C513.25 92.5099 513.785 92.3693 514.399 92.3693C515.012 92.3693 515.548 92.5099 516.005 92.7912C516.463 93.0724 516.818 93.4673 517.071 93.9759C517.324 94.4844 517.45 95.0781 517.45 95.7571C517.45 96.4332 517.324 97.0241 517.071 97.5298C516.818 98.0355 516.463 98.429 516.005 98.7102C515.548 98.9915 515.012 99.1321 514.399 99.1321ZM514.403 98.0625C514.801 98.0625 515.13 97.9574 515.392 97.7472C515.653 97.5369 515.846 97.2571 515.971 96.9077C516.099 96.5582 516.163 96.1733 516.163 95.7528C516.163 95.3352 516.099 94.9517 515.971 94.6023C515.846 94.25 515.653 93.9673 515.392 93.7543C515.13 93.5412 514.801 93.4347 514.403 93.4347C514.002 93.4347 513.67 93.5412 513.406 93.7543C513.145 93.9673 512.95 94.25 512.822 94.6023C512.697 94.9517 512.635 95.3352 512.635 95.7528C512.635 96.1733 512.697 96.5582 512.822 96.9077C512.95 97.2571 513.145 97.5369 513.406 97.7472C513.67 97.9574 514.002 98.0625 514.403 98.0625ZM523.308 95.1776V96.2812H519.763V95.1776H523.308ZM520.121 92.4545V99H518.872V92.4545H520.121ZM524.199 92.4545V99H522.955V92.4545H524.199ZM527.808 99.1449C527.393 99.1449 527.018 99.0682 526.683 98.9148C526.348 98.7585 526.082 98.5327 525.886 98.2372C525.693 97.9418 525.597 97.5795 525.597 97.1506C525.597 96.7812 525.668 96.4773 525.81 96.2386C525.952 96 526.143 95.8111 526.385 95.6719C526.626 95.5327 526.896 95.4276 527.195 95.3565C527.493 95.2855 527.797 95.2315 528.107 95.1946C528.499 95.1491 528.817 95.1122 529.061 95.0838C529.305 95.0526 529.483 95.0028 529.594 94.9347C529.705 94.8665 529.76 94.7557 529.76 94.6023V94.5724C529.76 94.2003 529.655 93.9119 529.445 93.7074C529.237 93.5028 528.928 93.4006 528.516 93.4006C528.087 93.4006 527.749 93.4957 527.501 93.6861C527.257 93.8736 527.088 94.0824 526.994 94.3125L525.797 94.0398C525.939 93.642 526.146 93.321 526.419 93.0767C526.695 92.8295 527.011 92.6506 527.369 92.5398C527.727 92.4261 528.104 92.3693 528.499 92.3693C528.76 92.3693 529.037 92.4006 529.33 92.4631C529.625 92.5227 529.901 92.6335 530.156 92.7955C530.415 92.9574 530.626 93.1889 530.791 93.4901C530.956 93.7884 531.038 94.1761 531.038 94.6534V99H529.794V98.1051H529.743C529.661 98.2699 529.537 98.4318 529.372 98.5909C529.207 98.75 528.996 98.8821 528.737 98.9872C528.479 99.0923 528.169 99.1449 527.808 99.1449ZM528.085 98.1222C528.438 98.1222 528.739 98.0526 528.989 97.9134C529.241 97.7741 529.433 97.5923 529.564 97.3679C529.697 97.1406 529.764 96.8977 529.764 96.6392V95.7955C529.719 95.8409 529.631 95.8835 529.5 95.9233C529.372 95.9602 529.226 95.9929 529.061 96.0213C528.896 96.0469 528.736 96.071 528.58 96.0938C528.423 96.1136 528.293 96.1307 528.188 96.1449C527.94 96.1761 527.714 96.2287 527.51 96.3026C527.308 96.3764 527.146 96.483 527.024 96.6222C526.905 96.7585 526.845 96.9403 526.845 97.1676C526.845 97.483 526.962 97.7216 527.195 97.8835C527.428 98.0426 527.724 98.1222 528.085 98.1222ZM532.735 101.455V92.4545H533.98V93.5156H534.086C534.16 93.3793 534.267 93.2216 534.406 93.0426C534.545 92.8636 534.738 92.7074 534.985 92.5739C535.233 92.4375 535.559 92.3693 535.966 92.3693C536.494 92.3693 536.966 92.5028 537.38 92.7699C537.795 93.0369 538.12 93.4219 538.356 93.9247C538.595 94.4276 538.714 95.0327 538.714 95.7401C538.714 96.4474 538.596 97.054 538.36 97.5597C538.125 98.0625 537.801 98.4503 537.389 98.723C536.977 98.9929 536.507 99.1278 535.978 99.1278C535.581 99.1278 535.255 99.0611 535.002 98.9276C534.752 98.794 534.556 98.6378 534.414 98.4588C534.272 98.2798 534.163 98.1207 534.086 97.9815H534.01V101.455H532.735ZM533.984 95.7273C533.984 96.1875 534.051 96.5909 534.184 96.9375C534.318 97.2841 534.511 97.5554 534.764 97.7514C535.017 97.9446 535.326 98.0412 535.693 98.0412C536.074 98.0412 536.392 97.9403 536.647 97.7386C536.903 97.5341 537.096 97.2571 537.227 96.9077C537.36 96.5582 537.427 96.1648 537.427 95.7273C537.427 95.2955 537.362 94.9077 537.231 94.5639C537.103 94.2202 536.91 93.9489 536.652 93.75C536.396 93.5511 536.076 93.4517 535.693 93.4517C535.324 93.4517 535.011 93.5469 534.755 93.7372C534.502 93.9276 534.311 94.1932 534.18 94.5341C534.049 94.875 533.984 95.2727 533.984 95.7273Z" fill="white"/>
<path d="M0 156H79C90.0457 156 99 164.954 99 176V194H20C8.95431 194 0 185.046 0 174V156Z" fill="#008CCF"/>
<path d="M19.9588 179V170.273H25.4006V171.406H21.2756V173.793H23.2273C23.875 173.793 24.4247 173.898 24.8764 174.108C25.331 174.318 25.6776 174.615 25.9162 174.999C26.1577 175.382 26.2784 175.834 26.2784 176.354C26.2784 176.874 26.1577 177.332 25.9162 177.73C25.6776 178.128 25.331 178.439 24.8764 178.663C24.4247 178.888 23.875 179 23.2273 179H19.9588ZM21.2756 177.892H23.2273C23.6023 177.892 23.919 177.818 24.1776 177.67C24.4389 177.523 24.6364 177.331 24.7699 177.095C24.9063 176.859 24.9744 176.607 24.9744 176.337C24.9744 175.945 24.8239 175.608 24.5227 175.327C24.2216 175.043 23.7898 174.901 23.2273 174.901H21.2756V177.892ZM28.5369 181.455C28.3466 181.455 28.1733 181.439 28.017 181.408C27.8608 181.379 27.7443 181.348 27.6676 181.314L27.9744 180.27C28.2074 180.332 28.4148 180.359 28.5966 180.351C28.7784 180.342 28.9389 180.274 29.0781 180.146C29.2202 180.018 29.3452 179.81 29.4531 179.52L29.6108 179.085L27.2159 172.455H28.5795L30.2372 177.534H30.3054L31.9631 172.455H33.331L30.6335 179.874C30.5085 180.214 30.3494 180.503 30.1562 180.739C29.9631 180.977 29.733 181.156 29.4659 181.276C29.1989 181.395 28.8892 181.455 28.5369 181.455ZM35.5341 172.455L36.9787 175.003L38.4361 172.455H39.8295L37.7884 175.727L39.8466 179H38.4531L36.9787 176.554L35.5085 179H34.1108L36.1477 175.727L34.1364 172.455H35.5341ZM45.3224 172.455V173.554H42.3949V179H41.1378V172.455H45.3224ZM48.2692 179.145C47.8544 179.145 47.4794 179.068 47.1442 178.915C46.8089 178.759 46.5433 178.533 46.3473 178.237C46.1541 177.942 46.0575 177.58 46.0575 177.151C46.0575 176.781 46.1286 176.477 46.2706 176.239C46.4126 176 46.6044 175.811 46.8459 175.672C47.0874 175.533 47.3572 175.428 47.6555 175.357C47.9538 175.286 48.2578 175.232 48.5675 175.195C48.9595 175.149 49.2777 175.112 49.522 175.084C49.7663 175.053 49.9439 175.003 50.0547 174.935C50.1655 174.866 50.2209 174.756 50.2209 174.602V174.572C50.2209 174.2 50.1158 173.912 49.9055 173.707C49.6982 173.503 49.3885 173.401 48.9766 173.401C48.5476 173.401 48.2095 173.496 47.9624 173.686C47.718 173.874 47.549 174.082 47.4553 174.312L46.2578 174.04C46.3999 173.642 46.6072 173.321 46.88 173.077C47.1555 172.83 47.4723 172.651 47.8303 172.54C48.1882 172.426 48.5646 172.369 48.9595 172.369C49.2209 172.369 49.4979 172.401 49.7905 172.463C50.0859 172.523 50.3615 172.634 50.6172 172.795C50.8757 172.957 51.0874 173.189 51.2521 173.49C51.4169 173.788 51.4993 174.176 51.4993 174.653V179H50.255V178.105H50.2038C50.1214 178.27 49.9979 178.432 49.8331 178.591C49.6683 178.75 49.4567 178.882 49.1982 178.987C48.9396 179.092 48.63 179.145 48.2692 179.145ZM48.5462 178.122C48.8984 178.122 49.1996 178.053 49.4496 177.913C49.7024 177.774 49.8942 177.592 50.0249 177.368C50.1584 177.141 50.2251 176.898 50.2251 176.639V175.795C50.1797 175.841 50.0916 175.884 49.9609 175.923C49.8331 175.96 49.6868 175.993 49.522 176.021C49.3572 176.047 49.1967 176.071 49.0405 176.094C48.8842 176.114 48.7536 176.131 48.6484 176.145C48.4013 176.176 48.1754 176.229 47.9709 176.303C47.7692 176.376 47.6072 176.483 47.4851 176.622C47.3658 176.759 47.3061 176.94 47.3061 177.168C47.3061 177.483 47.4226 177.722 47.6555 177.884C47.8885 178.043 48.1854 178.122 48.5462 178.122ZM52.6808 179L52.6765 177.896H52.9109C53.0927 177.896 53.2447 177.858 53.3668 177.781C53.4918 177.702 53.5941 177.568 53.6737 177.381C53.7532 177.193 53.8143 176.935 53.8569 176.605C53.8995 176.273 53.9308 175.855 53.9506 175.352L54.0657 172.455H58.6339V179H57.3853V173.554H55.2461L55.1438 175.778C55.1183 176.318 55.0629 176.79 54.9776 177.193C54.8952 177.597 54.7745 177.933 54.6154 178.203C54.4563 178.47 54.2518 178.67 54.0018 178.804C53.7518 178.935 53.4478 179 53.0898 179H52.6808ZM59.5213 173.554V172.455H65.044V173.554H62.9091V179H61.6648V173.554H59.5213ZM68.908 179.132C68.2631 179.132 67.7077 178.994 67.2418 178.719C66.7788 178.44 66.4208 178.05 66.168 177.547C65.918 177.041 65.793 176.449 65.793 175.77C65.793 175.099 65.918 174.509 66.168 173.997C66.4208 173.486 66.7731 173.087 67.2248 172.8C67.6793 172.513 68.2106 172.369 68.8185 172.369C69.1879 172.369 69.5458 172.43 69.8924 172.553C70.239 172.675 70.5501 172.866 70.8256 173.128C71.1012 173.389 71.3185 173.729 71.4776 174.146C71.6367 174.561 71.7163 175.065 71.7163 175.659V176.111H66.5131V175.156H70.4677C70.4677 174.821 70.3995 174.524 70.2631 174.266C70.1268 174.004 69.935 173.798 69.6879 173.648C69.4435 173.497 69.1566 173.422 68.8271 173.422C68.4691 173.422 68.1566 173.51 67.8896 173.686C67.6254 173.859 67.4208 174.087 67.2759 174.368C67.1339 174.646 67.0629 174.949 67.0629 175.276V176.021C67.0629 176.459 67.1396 176.831 67.293 177.138C67.4492 177.445 67.6665 177.679 67.945 177.841C68.2234 178 68.5487 178.08 68.9208 178.08C69.1623 178.08 69.3825 178.045 69.5813 177.977C69.7802 177.906 69.9521 177.801 70.0969 177.662C70.2418 177.523 70.3526 177.351 70.4293 177.146L71.6353 177.364C71.5387 177.719 71.3654 178.03 71.1154 178.297C70.8683 178.561 70.5572 178.767 70.1822 178.915C69.81 179.06 69.3853 179.132 68.908 179.132ZM73.13 181.455V172.455H74.3743V173.516H74.4808C74.5547 173.379 74.6612 173.222 74.8004 173.043C74.9396 172.864 75.1328 172.707 75.38 172.574C75.6271 172.438 75.9538 172.369 76.3601 172.369C76.8885 172.369 77.3601 172.503 77.7749 172.77C78.1896 173.037 78.5149 173.422 78.7507 173.925C78.9893 174.428 79.1087 175.033 79.1087 175.74C79.1087 176.447 78.9908 177.054 78.755 177.56C78.5192 178.062 78.1953 178.45 77.7834 178.723C77.3714 178.993 76.9013 179.128 76.3729 179.128C75.9751 179.128 75.6499 179.061 75.397 178.928C75.147 178.794 74.951 178.638 74.8089 178.459C74.6669 178.28 74.5575 178.121 74.4808 177.982H74.4041V181.455H73.13ZM74.3786 175.727C74.3786 176.187 74.4453 176.591 74.5788 176.938C74.7124 177.284 74.9055 177.555 75.1584 177.751C75.4112 177.945 75.7209 178.041 76.0874 178.041C76.468 178.041 76.7862 177.94 77.0419 177.739C77.2976 177.534 77.4908 177.257 77.6214 176.908C77.755 176.558 77.8217 176.165 77.8217 175.727C77.8217 175.295 77.7564 174.908 77.6257 174.564C77.4979 174.22 77.3047 173.949 77.0462 173.75C76.7905 173.551 76.4709 173.452 76.0874 173.452C75.718 173.452 75.4055 173.547 75.1499 173.737C74.897 173.928 74.7053 174.193 74.5746 174.534C74.4439 174.875 74.3786 175.273 74.3786 175.727Z" fill="white"/>
<path d="M227 156H306C317.046 156 326 164.954 326 176V194H247C235.954 194 227 185.046 227 174V156Z" fill="#008CCF"/>
<path d="M264.136 179L261.205 175.088H260.276V179H258.959V170.273H260.276V173.959H260.706L264.004 170.273H265.611L262.121 174.18L265.743 179H264.136ZM268.765 179.145C268.35 179.145 267.975 179.068 267.64 178.915C267.305 178.759 267.039 178.533 266.843 178.237C266.65 177.942 266.554 177.58 266.554 177.151C266.554 176.781 266.625 176.477 266.767 176.239C266.909 176 267.1 175.811 267.342 175.672C267.583 175.533 267.853 175.428 268.152 175.357C268.45 175.286 268.754 175.232 269.064 175.195C269.456 175.149 269.774 175.112 270.018 175.084C270.262 175.053 270.44 175.003 270.551 174.935C270.662 174.866 270.717 174.756 270.717 174.602V174.572C270.717 174.2 270.612 173.912 270.402 173.707C270.194 173.503 269.885 173.401 269.473 173.401C269.044 173.401 268.706 173.496 268.458 173.686C268.214 173.874 268.045 174.082 267.951 174.312L266.754 174.04C266.896 173.642 267.103 173.321 267.376 173.077C267.652 172.83 267.968 172.651 268.326 172.54C268.684 172.426 269.061 172.369 269.456 172.369C269.717 172.369 269.994 172.401 270.287 172.463C270.582 172.523 270.858 172.634 271.113 172.795C271.372 172.957 271.583 173.189 271.748 173.49C271.913 173.788 271.995 174.176 271.995 174.653V179H270.751V178.105H270.7C270.618 178.27 270.494 178.432 270.329 178.591C270.164 178.75 269.953 178.882 269.694 178.987C269.436 179.092 269.126 179.145 268.765 179.145ZM269.042 178.122C269.395 178.122 269.696 178.053 269.946 177.913C270.199 177.774 270.39 177.592 270.521 177.368C270.654 177.141 270.721 176.898 270.721 176.639V175.795C270.676 175.841 270.588 175.884 270.457 175.923C270.329 175.96 270.183 175.993 270.018 176.021C269.853 176.047 269.693 176.071 269.537 176.094C269.38 176.114 269.25 176.131 269.145 176.145C268.897 176.176 268.672 176.229 268.467 176.303C268.265 176.376 268.103 176.483 267.981 176.622C267.862 176.759 267.802 176.94 267.802 177.168C267.802 177.483 267.919 177.722 268.152 177.884C268.385 178.043 268.681 178.122 269.042 178.122ZM276.45 179.132C275.816 179.132 275.271 178.989 274.813 178.702C274.359 178.412 274.009 178.013 273.765 177.504C273.521 176.996 273.398 176.413 273.398 175.757C273.398 175.092 273.523 174.506 273.773 173.997C274.023 173.486 274.376 173.087 274.83 172.8C275.285 172.513 275.82 172.369 276.437 172.369C276.934 172.369 277.377 172.462 277.766 172.646C278.156 172.828 278.469 173.084 278.708 173.413C278.95 173.743 279.093 174.128 279.138 174.568H277.898C277.83 174.261 277.674 173.997 277.43 173.776C277.188 173.554 276.864 173.443 276.458 173.443C276.103 173.443 275.792 173.537 275.525 173.724C275.261 173.909 275.055 174.173 274.907 174.517C274.759 174.858 274.685 175.261 274.685 175.727C274.685 176.205 274.758 176.616 274.903 176.963C275.048 177.31 275.252 177.578 275.516 177.768C275.783 177.959 276.097 178.054 276.458 178.054C276.7 178.054 276.918 178.01 277.114 177.922C277.313 177.831 277.479 177.702 277.613 177.534C277.749 177.366 277.844 177.165 277.898 176.929H279.138C279.093 177.352 278.955 177.73 278.725 178.062C278.495 178.395 278.187 178.656 277.8 178.847C277.417 179.037 276.967 179.132 276.45 179.132ZM283.258 179.132C282.625 179.132 282.079 178.989 281.622 178.702C281.167 178.412 280.818 178.013 280.574 177.504C280.329 176.996 280.207 176.413 280.207 175.757C280.207 175.092 280.332 174.506 280.582 173.997C280.832 173.486 281.184 173.087 281.639 172.8C282.093 172.513 282.629 172.369 283.245 172.369C283.743 172.369 284.186 172.462 284.575 172.646C284.964 172.828 285.278 173.084 285.517 173.413C285.758 173.743 285.902 174.128 285.947 174.568H284.707C284.639 174.261 284.483 173.997 284.238 173.776C283.997 173.554 283.673 173.443 283.267 173.443C282.912 173.443 282.6 173.537 282.333 173.724C282.069 173.909 281.863 174.173 281.716 174.517C281.568 174.858 281.494 175.261 281.494 175.727C281.494 176.205 281.566 176.616 281.711 176.963C281.856 177.31 282.061 177.578 282.325 177.768C282.592 177.959 282.906 178.054 283.267 178.054C283.508 178.054 283.727 178.01 283.923 177.922C284.122 177.831 284.288 177.702 284.422 177.534C284.558 177.366 284.653 177.165 284.707 176.929H285.947C285.902 177.352 285.764 177.73 285.534 178.062C285.304 178.395 284.995 178.656 284.609 178.847C284.225 179.037 283.775 179.132 283.258 179.132ZM289.214 179.145C288.8 179.145 288.425 179.068 288.089 178.915C287.754 178.759 287.489 178.533 287.293 178.237C287.099 177.942 287.003 177.58 287.003 177.151C287.003 176.781 287.074 176.477 287.216 176.239C287.358 176 287.55 175.811 287.791 175.672C288.033 175.533 288.303 175.428 288.601 175.357C288.899 175.286 289.203 175.232 289.513 175.195C289.905 175.149 290.223 175.112 290.467 175.084C290.712 175.053 290.889 175.003 291 174.935C291.111 174.866 291.166 174.756 291.166 174.602V174.572C291.166 174.2 291.061 173.912 290.851 173.707C290.643 173.503 290.334 173.401 289.922 173.401C289.493 173.401 289.155 173.496 288.908 173.686C288.663 173.874 288.494 174.082 288.401 174.312L287.203 174.04C287.345 173.642 287.553 173.321 287.825 173.077C288.101 172.83 288.418 172.651 288.776 172.54C289.134 172.426 289.51 172.369 289.905 172.369C290.166 172.369 290.443 172.401 290.736 172.463C291.031 172.523 291.307 172.634 291.562 172.795C291.821 172.957 292.033 173.189 292.197 173.49C292.362 173.788 292.445 174.176 292.445 174.653V179H291.2V178.105H291.149C291.067 178.27 290.943 178.432 290.778 178.591C290.614 178.75 290.402 178.882 290.143 178.987C289.885 179.092 289.575 179.145 289.214 179.145ZM289.491 178.122C289.844 178.122 290.145 178.053 290.395 177.913C290.648 177.774 290.839 177.592 290.97 177.368C291.104 177.141 291.17 176.898 291.17 176.639V175.795C291.125 175.841 291.037 175.884 290.906 175.923C290.778 175.96 290.632 175.993 290.467 176.021C290.303 176.047 290.142 176.071 289.986 176.094C289.83 176.114 289.699 176.131 289.594 176.145C289.347 176.176 289.121 176.229 288.916 176.303C288.714 176.376 288.553 176.483 288.43 176.622C288.311 176.759 288.251 176.94 288.251 177.168C288.251 177.483 288.368 177.722 288.601 177.884C288.834 178.043 289.131 178.122 289.491 178.122Z" fill="white"/>
<path d="M457 156H536C547.046 156 556 164.954 556 176V194H477C465.954 194 457 185.046 457 174V156Z" fill="#008CCF"/>
<path d="M474.781 170.273V179H473.469V171.398H469.361V179H468.048V170.273H474.781ZM478.597 179.145C478.183 179.145 477.808 179.068 477.472 178.915C477.137 178.759 476.871 178.533 476.675 178.237C476.482 177.942 476.386 177.58 476.386 177.151C476.386 176.781 476.457 176.477 476.599 176.239C476.741 176 476.933 175.811 477.174 175.672C477.415 175.533 477.685 175.428 477.984 175.357C478.282 175.286 478.586 175.232 478.896 175.195C479.288 175.149 479.606 175.112 479.85 175.084C480.094 175.053 480.272 175.003 480.383 174.935C480.494 174.866 480.549 174.756 480.549 174.602V174.572C480.549 174.2 480.444 173.912 480.234 173.707C480.026 173.503 479.717 173.401 479.305 173.401C478.876 173.401 478.538 173.496 478.29 173.686C478.046 173.874 477.877 174.082 477.783 174.312L476.586 174.04C476.728 173.642 476.935 173.321 477.208 173.077C477.484 172.83 477.8 172.651 478.158 172.54C478.516 172.426 478.893 172.369 479.288 172.369C479.549 172.369 479.826 172.401 480.119 172.463C480.414 172.523 480.69 172.634 480.945 172.795C481.204 172.957 481.415 173.189 481.58 173.49C481.745 173.788 481.827 174.176 481.827 174.653V179H480.583V178.105H480.532C480.45 178.27 480.326 178.432 480.161 178.591C479.996 178.75 479.785 178.882 479.526 178.987C479.268 179.092 478.958 179.145 478.597 179.145ZM478.874 178.122C479.227 178.122 479.528 178.053 479.778 177.913C480.031 177.774 480.222 177.592 480.353 177.368C480.487 177.141 480.553 176.898 480.553 176.639V175.795C480.508 175.841 480.42 175.884 480.289 175.923C480.161 175.96 480.015 175.993 479.85 176.021C479.685 176.047 479.525 176.071 479.369 176.094C479.212 176.114 479.082 176.131 478.977 176.145C478.729 176.176 478.504 176.229 478.299 176.303C478.097 176.376 477.935 176.483 477.813 176.622C477.694 176.759 477.634 176.94 477.634 177.168C477.634 177.483 477.751 177.722 477.984 177.884C478.217 178.043 478.513 178.122 478.874 178.122ZM482.713 173.554V172.455H488.235V173.554H486.1V179H484.856V173.554H482.713ZM491.183 179.145C490.768 179.145 490.393 179.068 490.058 178.915C489.723 178.759 489.457 178.533 489.261 178.237C489.068 177.942 488.972 177.58 488.972 177.151C488.972 176.781 489.043 176.477 489.185 176.239C489.327 176 489.518 175.811 489.76 175.672C490.001 175.533 490.271 175.428 490.57 175.357C490.868 175.286 491.172 175.232 491.482 175.195C491.874 175.149 492.192 175.112 492.436 175.084C492.68 175.053 492.858 175.003 492.969 174.935C493.08 174.866 493.135 174.756 493.135 174.602V174.572C493.135 174.2 493.03 173.912 492.82 173.707C492.612 173.503 492.303 173.401 491.891 173.401C491.462 173.401 491.124 173.496 490.876 173.686C490.632 173.874 490.463 174.082 490.369 174.312L489.172 174.04C489.314 173.642 489.521 173.321 489.794 173.077C490.07 172.83 490.386 172.651 490.744 172.54C491.102 172.426 491.479 172.369 491.874 172.369C492.135 172.369 492.412 172.401 492.705 172.463C493 172.523 493.276 172.634 493.531 172.795C493.79 172.957 494.001 173.189 494.166 173.49C494.331 173.788 494.413 174.176 494.413 174.653V179H493.169V178.105H493.118C493.036 178.27 492.912 178.432 492.747 178.591C492.582 178.75 492.371 178.882 492.112 178.987C491.854 179.092 491.544 179.145 491.183 179.145ZM491.46 178.122C491.813 178.122 492.114 178.053 492.364 177.913C492.616 177.774 492.808 177.592 492.939 177.368C493.072 177.141 493.139 176.898 493.139 176.639V175.795C493.094 175.841 493.006 175.884 492.875 175.923C492.747 175.96 492.601 175.993 492.436 176.021C492.271 176.047 492.111 176.071 491.955 176.094C491.798 176.114 491.668 176.131 491.562 176.145C491.315 176.176 491.089 176.229 490.885 176.303C490.683 176.376 490.521 176.483 490.399 176.622C490.28 176.759 490.22 176.94 490.22 177.168C490.22 177.483 490.337 177.722 490.57 177.884C490.803 178.043 491.099 178.122 491.46 178.122ZM500.547 175.178V176.281H497.001V175.178H500.547ZM497.359 172.455V179H496.11V172.455H497.359ZM501.437 172.455V179H500.193V172.455H501.437ZM505.047 179.145C504.632 179.145 504.257 179.068 503.922 178.915C503.586 178.759 503.321 178.533 503.125 178.237C502.931 177.942 502.835 177.58 502.835 177.151C502.835 176.781 502.906 176.477 503.048 176.239C503.19 176 503.382 175.811 503.623 175.672C503.865 175.533 504.135 175.428 504.433 175.357C504.731 175.286 505.035 175.232 505.345 175.195C505.737 175.149 506.055 175.112 506.299 175.084C506.544 175.053 506.721 175.003 506.832 174.935C506.943 174.866 506.998 174.756 506.998 174.602V174.572C506.998 174.2 506.893 173.912 506.683 173.707C506.475 173.503 506.166 173.401 505.754 173.401C505.325 173.401 504.987 173.496 504.74 173.686C504.495 173.874 504.326 174.082 504.233 174.312L503.035 174.04C503.177 173.642 503.385 173.321 503.657 173.077C503.933 172.83 504.25 172.651 504.608 172.54C504.966 172.426 505.342 172.369 505.737 172.369C505.998 172.369 506.275 172.401 506.568 172.463C506.863 172.523 507.139 172.634 507.395 172.795C507.653 172.957 507.865 173.189 508.029 173.49C508.194 173.788 508.277 174.176 508.277 174.653V179H507.032V178.105H506.981C506.899 178.27 506.775 178.432 506.61 178.591C506.446 178.75 506.234 178.882 505.975 178.987C505.717 179.092 505.407 179.145 505.047 179.145ZM505.324 178.122C505.676 178.122 505.977 178.053 506.227 177.913C506.48 177.774 506.672 177.592 506.802 177.368C506.936 177.141 507.002 176.898 507.002 176.639V175.795C506.957 175.841 506.869 175.884 506.738 175.923C506.61 175.96 506.464 175.993 506.299 176.021C506.135 176.047 505.974 176.071 505.818 176.094C505.662 176.114 505.531 176.131 505.426 176.145C505.179 176.176 504.953 176.229 504.748 176.303C504.547 176.376 504.385 176.483 504.262 176.622C504.143 176.759 504.083 176.94 504.083 177.168C504.083 177.483 504.2 177.722 504.433 177.884C504.666 178.043 504.963 178.122 505.324 178.122ZM509.162 173.554V172.455H514.685V173.554H512.55V179H511.305V173.554H509.162ZM518.485 179.132C517.871 179.132 517.336 178.991 516.878 178.71C516.421 178.429 516.066 178.036 515.813 177.53C515.56 177.024 515.434 176.433 515.434 175.757C515.434 175.078 515.56 174.484 515.813 173.976C516.066 173.467 516.421 173.072 516.878 172.791C517.336 172.51 517.871 172.369 518.485 172.369C519.098 172.369 519.634 172.51 520.091 172.791C520.549 173.072 520.904 173.467 521.157 173.976C521.409 174.484 521.536 175.078 521.536 175.757C521.536 176.433 521.409 177.024 521.157 177.53C520.904 178.036 520.549 178.429 520.091 178.71C519.634 178.991 519.098 179.132 518.485 179.132ZM518.489 178.062C518.887 178.062 519.216 177.957 519.478 177.747C519.739 177.537 519.932 177.257 520.057 176.908C520.185 176.558 520.249 176.173 520.249 175.753C520.249 175.335 520.185 174.952 520.057 174.602C519.932 174.25 519.739 173.967 519.478 173.754C519.216 173.541 518.887 173.435 518.489 173.435C518.088 173.435 517.756 173.541 517.492 173.754C517.23 173.967 517.036 174.25 516.908 174.602C516.783 174.952 516.721 175.335 516.721 175.753C516.721 176.173 516.783 176.558 516.908 176.908C517.036 177.257 517.23 177.537 517.492 177.747C517.756 177.957 518.088 178.062 518.489 178.062ZM526.631 177.423L528.745 172.455H529.844L527.104 179H526.158L523.474 172.455H524.56L526.631 177.423ZM524.207 172.455V179H522.958V172.455H524.207ZM529.09 179V172.455H530.33V179H529.09ZM533.277 177.214L536.162 172.455H537.534V179H536.286V174.236L533.413 179H532.028V172.455H533.277V177.214ZM543.151 179V173.541H541.582C541.21 173.541 540.92 173.628 540.713 173.801C540.506 173.974 540.402 174.202 540.402 174.483C540.402 174.761 540.497 174.986 540.688 175.156C540.881 175.324 541.151 175.408 541.497 175.408H543.521V176.439H541.497C541.014 176.439 540.597 176.359 540.244 176.2C539.895 176.038 539.625 175.81 539.435 175.514C539.247 175.219 539.153 174.869 539.153 174.466C539.153 174.054 539.25 173.699 539.443 173.401C539.639 173.099 539.919 172.866 540.283 172.702C540.649 172.537 541.082 172.455 541.582 172.455H544.348V179H543.151ZM538.855 179L540.7 175.693H542.004L540.159 179H538.855Z" fill="white"/>
<path d="M0 221H79C90.0457 221 99 229.954 99 241V259H20C8.95431 259 0 250.046 0 239V221Z" fill="#008CCF"/>
<path d="M22.5881 239.185V240.301H18.9361V239.185H22.5881ZM16.6818 241.23H18.0199C18.0938 241.804 18.2841 242.243 18.5909 242.547C18.9006 242.851 19.3821 243.003 20.0355 243.003C20.5185 243.003 20.9162 242.875 21.2287 242.619C21.5412 242.361 21.7727 242.011 21.9233 241.571C22.0767 241.131 22.1534 240.636 22.1534 240.088V239.202C22.1534 238.611 22.0682 238.097 21.8977 237.659C21.7273 237.222 21.4787 236.884 21.152 236.645C20.8281 236.406 20.4318 236.287 19.9631 236.287C19.5398 236.287 19.1932 236.359 18.9233 236.504C18.6534 236.649 18.446 236.857 18.3011 237.126C18.1591 237.393 18.0653 237.716 18.0199 238.094H16.6776C16.7344 237.531 16.8906 237.028 17.1463 236.585C17.4048 236.142 17.767 235.793 18.233 235.537C18.7017 235.281 19.2784 235.153 19.9631 235.153C20.6847 235.153 21.3082 235.321 21.8338 235.656C22.3622 235.989 22.7699 236.457 23.0568 237.062C23.3438 237.668 23.4872 238.378 23.4872 239.193V240.101C23.4872 240.916 23.3452 241.625 23.0611 242.227C22.7798 242.83 22.3807 243.295 21.8636 243.625C21.3466 243.955 20.7372 244.119 20.0355 244.119C19.3338 244.119 18.7443 243.994 18.267 243.744C17.7898 243.491 17.4205 243.148 17.1591 242.713C16.8977 242.276 16.7386 241.781 16.6818 241.23ZM25.0245 244V237.455H26.2987V240.199H26.9123L29.0728 237.455H30.6495L28.114 240.638L30.6793 244H29.0984L27.1254 241.384H26.2987V244H25.0245ZM34.1566 244.132C33.543 244.132 33.0075 243.991 32.5501 243.71C32.0927 243.429 31.7376 243.036 31.4847 242.53C31.2319 242.024 31.1055 241.433 31.1055 240.757C31.1055 240.078 31.2319 239.484 31.4847 238.976C31.7376 238.467 32.0927 238.072 32.5501 237.791C33.0075 237.51 33.543 237.369 34.1566 237.369C34.7702 237.369 35.3058 237.51 35.7631 237.791C36.2205 238.072 36.5756 238.467 36.8285 238.976C37.0813 239.484 37.2077 240.078 37.2077 240.757C37.2077 241.433 37.0813 242.024 36.8285 242.53C36.5756 243.036 36.2205 243.429 35.7631 243.71C35.3058 243.991 34.7702 244.132 34.1566 244.132ZM34.1609 243.062C34.5586 243.062 34.8881 242.957 35.1495 242.747C35.4109 242.537 35.604 242.257 35.729 241.908C35.8569 241.558 35.9208 241.173 35.9208 240.753C35.9208 240.335 35.8569 239.952 35.729 239.602C35.604 239.25 35.4109 238.967 35.1495 238.754C34.8881 238.541 34.5586 238.435 34.1609 238.435C33.7603 238.435 33.4279 238.541 33.1637 238.754C32.9023 238.967 32.7077 239.25 32.5799 239.602C32.4549 239.952 32.3924 240.335 32.3924 240.753C32.3924 241.173 32.4549 241.558 32.5799 241.908C32.7077 242.257 32.9023 242.537 33.1637 242.747C33.4279 242.957 33.7603 243.062 34.1609 243.062ZM43.0661 240.178V241.281H39.5206V240.178H43.0661ZM39.8786 237.455V244H38.63V237.455H39.8786ZM43.9567 237.455V244H42.7124V237.455H43.9567ZM48.4183 244.132C47.8047 244.132 47.2692 243.991 46.8118 243.71C46.3544 243.429 45.9993 243.036 45.7464 242.53C45.4936 242.024 45.3672 241.433 45.3672 240.757C45.3672 240.078 45.4936 239.484 45.7464 238.976C45.9993 238.467 46.3544 238.072 46.8118 237.791C47.2692 237.51 47.8047 237.369 48.4183 237.369C49.032 237.369 49.5675 237.51 50.0249 237.791C50.4822 238.072 50.8374 238.467 51.0902 238.976C51.343 239.484 51.4695 240.078 51.4695 240.757C51.4695 241.433 51.343 242.024 51.0902 242.53C50.8374 243.036 50.4822 243.429 50.0249 243.71C49.5675 243.991 49.032 244.132 48.4183 244.132ZM48.4226 243.062C48.8203 243.062 49.1499 242.957 49.4112 242.747C49.6726 242.537 49.8658 242.257 49.9908 241.908C50.1186 241.558 50.1825 241.173 50.1825 240.753C50.1825 240.335 50.1186 239.952 49.9908 239.602C49.8658 239.25 49.6726 238.967 49.4112 238.754C49.1499 238.541 48.8203 238.435 48.4226 238.435C48.022 238.435 47.6896 238.541 47.4254 238.754C47.1641 238.967 46.9695 239.25 46.8416 239.602C46.7166 239.952 46.6541 240.335 46.6541 240.753C46.6541 241.173 46.7166 241.558 46.8416 241.908C46.9695 242.257 47.1641 242.537 47.4254 242.747C47.6896 242.957 48.022 243.062 48.4226 243.062ZM56.565 242.423L58.6786 237.455H59.7781L57.038 244H56.092L53.4073 237.455H54.494L56.565 242.423ZM54.1403 237.455V244H52.8917V237.455H54.1403ZM59.0238 244V237.455H60.2638V244H59.0238ZM63.2106 242.214L66.0955 237.455H67.4677V244H66.2191V239.236L63.3469 244H61.962V237.455H63.2106V242.214ZM71.9379 244.132C71.3043 244.132 70.7589 243.989 70.3015 243.702C69.8469 243.412 69.4975 243.013 69.2532 242.504C69.0089 241.996 68.8867 241.413 68.8867 240.757C68.8867 240.092 69.0117 239.506 69.2617 238.997C69.5117 238.486 69.864 238.087 70.3185 237.8C70.7731 237.513 71.3086 237.369 71.9251 237.369C72.4222 237.369 72.8654 237.462 73.2546 237.646C73.6438 237.828 73.9577 238.084 74.1964 238.413C74.4379 238.743 74.5813 239.128 74.6268 239.568H73.3867C73.3185 239.261 73.1623 238.997 72.918 238.776C72.6765 238.554 72.3526 238.443 71.9464 238.443C71.5913 238.443 71.2802 238.537 71.0131 238.724C70.7489 238.909 70.543 239.173 70.3952 239.517C70.2475 239.858 70.1737 240.261 70.1737 240.727C70.1737 241.205 70.2461 241.616 70.391 241.963C70.5359 242.31 70.7404 242.578 71.0046 242.768C71.2717 242.959 71.5856 243.054 71.9464 243.054C72.1879 243.054 72.4066 243.01 72.6026 242.922C72.8015 242.831 72.9677 242.702 73.1012 242.534C73.2376 242.366 73.3327 242.165 73.3867 241.929H74.6268C74.5813 242.352 74.4435 242.73 74.2134 243.062C73.9833 243.395 73.6751 243.656 73.2887 243.847C72.9052 244.037 72.4549 244.132 71.9379 244.132ZM75.494 238.554V237.455H81.0167V238.554H78.8817V244H77.6374V238.554H75.494Z" fill="white"/>
<path d="M154 299H233C244.046 299 253 307.954 253 319V337H174C162.954 337 154 328.046 154 317V299Z" fill="#008CCF"/>
<path d="M167.298 318.109V314.884H167.874C168.07 314.719 168.253 314.484 168.423 314.18C168.594 313.876 168.739 313.466 168.858 312.949C168.977 312.432 169.06 311.768 169.105 310.959L169.31 307.273H174.692V314.884H175.68V318.097H174.419V316H168.56V318.109H167.298ZM169.425 314.884H173.43V308.406H170.503L170.366 310.959C170.33 311.575 170.268 312.129 170.183 312.621C170.101 313.112 169.994 313.547 169.864 313.925C169.736 314.3 169.589 314.619 169.425 314.884ZM179.778 316.132C179.164 316.132 178.629 315.991 178.171 315.71C177.714 315.429 177.359 315.036 177.106 314.53C176.853 314.024 176.727 313.433 176.727 312.757C176.727 312.078 176.853 311.484 177.106 310.976C177.359 310.467 177.714 310.072 178.171 309.791C178.629 309.51 179.164 309.369 179.778 309.369C180.391 309.369 180.927 309.51 181.384 309.791C181.842 310.072 182.197 310.467 182.45 310.976C182.702 311.484 182.829 312.078 182.829 312.757C182.829 313.433 182.702 314.024 182.45 314.53C182.197 315.036 181.842 315.429 181.384 315.71C180.927 315.991 180.391 316.132 179.778 316.132ZM179.782 315.062C180.18 315.062 180.509 314.957 180.771 314.747C181.032 314.537 181.225 314.257 181.35 313.908C181.478 313.558 181.542 313.173 181.542 312.753C181.542 312.335 181.478 311.952 181.35 311.602C181.225 311.25 181.032 310.967 180.771 310.754C180.509 310.541 180.18 310.435 179.782 310.435C179.381 310.435 179.049 310.541 178.785 310.754C178.523 310.967 178.329 311.25 178.201 311.602C178.076 311.952 178.013 312.335 178.013 312.753C178.013 313.173 178.076 313.558 178.201 313.908C178.329 314.257 178.523 314.537 178.785 314.747C179.049 314.957 179.381 315.062 179.782 315.062ZM184.251 316V309.455H185.525V312.199H186.139L188.299 309.455H189.876L187.341 312.638L189.906 316H188.325L186.352 313.384H185.525V316H184.251ZM191.736 318.455C191.546 318.455 191.373 318.439 191.216 318.408C191.06 318.379 190.944 318.348 190.867 318.314L191.174 317.27C191.407 317.332 191.614 317.359 191.796 317.351C191.978 317.342 192.138 317.274 192.277 317.146C192.419 317.018 192.544 316.81 192.652 316.52L192.81 316.085L190.415 309.455H191.779L193.436 314.534H193.505L195.162 309.455H196.53L193.833 316.874C193.708 317.214 193.549 317.503 193.355 317.739C193.162 317.977 192.932 318.156 192.665 318.276C192.398 318.395 192.088 318.455 191.736 318.455ZM201.401 314.423L203.515 309.455H204.614L201.874 316H200.928L198.243 309.455H199.33L201.401 314.423ZM198.976 309.455V316H197.728V309.455H198.976ZM203.86 316V309.455H205.1V316H203.86ZM209.619 316.132C208.974 316.132 208.419 315.994 207.953 315.719C207.49 315.44 207.132 315.05 206.879 314.547C206.629 314.041 206.504 313.449 206.504 312.77C206.504 312.099 206.629 311.509 206.879 310.997C207.132 310.486 207.484 310.087 207.936 309.8C208.39 309.513 208.922 309.369 209.529 309.369C209.899 309.369 210.257 309.43 210.603 309.553C210.95 309.675 211.261 309.866 211.537 310.128C211.812 310.389 212.029 310.729 212.189 311.146C212.348 311.561 212.427 312.065 212.427 312.659V313.111H207.224V312.156H211.179C211.179 311.821 211.11 311.524 210.974 311.266C210.838 311.004 210.646 310.798 210.399 310.648C210.154 310.497 209.868 310.422 209.538 310.422C209.18 310.422 208.868 310.51 208.6 310.686C208.336 310.859 208.132 311.087 207.987 311.368C207.845 311.646 207.774 311.949 207.774 312.276V313.021C207.774 313.459 207.85 313.831 208.004 314.138C208.16 314.445 208.377 314.679 208.656 314.841C208.934 315 209.26 315.08 209.632 315.08C209.873 315.08 210.093 315.045 210.292 314.977C210.491 314.906 210.663 314.801 210.808 314.662C210.953 314.523 211.064 314.351 211.14 314.146L212.346 314.364C212.25 314.719 212.076 315.03 211.826 315.297C211.579 315.561 211.268 315.767 210.893 315.915C210.521 316.06 210.096 316.132 209.619 316.132ZM218.277 312.178V313.281H214.732V312.178H218.277ZM215.089 309.455V316H213.841V309.455H215.089ZM219.168 309.455V316H217.923V309.455H219.168ZM220.06 310.554V309.455H225.583V310.554H223.448V316H222.204V310.554H220.06ZM227.89 311.705H229.79C230.591 311.705 231.208 311.903 231.64 312.301C232.071 312.699 232.287 313.212 232.287 313.839C232.287 314.249 232.191 314.616 231.998 314.943C231.804 315.27 231.522 315.528 231.15 315.719C230.777 315.906 230.324 316 229.79 316H226.931V309.455H228.179V314.901H229.79C230.157 314.901 230.458 314.805 230.694 314.615C230.929 314.422 231.047 314.176 231.047 313.878C231.047 313.562 230.929 313.305 230.694 313.107C230.458 312.905 230.157 312.804 229.79 312.804H227.89V311.705ZM233.216 316V309.455H234.49V316H233.216ZM167.857 328V321.455H173.196V328H171.947V322.554H169.097V328H167.857ZM176.804 328.145C176.39 328.145 176.015 328.068 175.679 327.915C175.344 327.759 175.078 327.533 174.882 327.237C174.689 326.942 174.593 326.58 174.593 326.151C174.593 325.781 174.664 325.477 174.806 325.239C174.948 325 175.14 324.811 175.381 324.672C175.623 324.533 175.892 324.428 176.191 324.357C176.489 324.286 176.793 324.232 177.103 324.195C177.495 324.149 177.813 324.112 178.057 324.084C178.301 324.053 178.479 324.003 178.59 323.935C178.701 323.866 178.756 323.756 178.756 323.602V323.572C178.756 323.2 178.651 322.912 178.441 322.707C178.233 322.503 177.924 322.401 177.512 322.401C177.083 322.401 176.745 322.496 176.498 322.686C176.253 322.874 176.084 323.082 175.99 323.312L174.793 323.04C174.935 322.642 175.142 322.321 175.415 322.077C175.691 321.83 176.007 321.651 176.365 321.54C176.723 321.426 177.1 321.369 177.495 321.369C177.756 321.369 178.033 321.401 178.326 321.463C178.621 321.523 178.897 321.634 179.152 321.795C179.411 321.957 179.623 322.189 179.787 322.49C179.952 322.788 180.034 323.176 180.034 323.653V328H178.79V327.105H178.739C178.657 327.27 178.533 327.432 178.368 327.591C178.203 327.75 177.992 327.882 177.733 327.987C177.475 328.092 177.165 328.145 176.804 328.145ZM177.081 327.122C177.434 327.122 177.735 327.053 177.985 326.913C178.238 326.774 178.429 326.592 178.56 326.368C178.694 326.141 178.76 325.898 178.76 325.639V324.795C178.715 324.841 178.627 324.884 178.496 324.923C178.368 324.96 178.222 324.993 178.057 325.021C177.892 325.047 177.732 325.071 177.576 325.094C177.419 325.114 177.289 325.131 177.184 325.145C176.936 325.176 176.711 325.229 176.506 325.303C176.304 325.376 176.142 325.483 176.02 325.622C175.901 325.759 175.841 325.94 175.841 326.168C175.841 326.483 175.958 326.722 176.191 326.884C176.424 327.043 176.721 327.122 177.081 327.122ZM187.071 321.455V326.956H188.03V330.109H186.773V328H181.732V321.455H182.98V326.901H185.827V321.455H187.071ZM190.691 326.214L193.576 321.455H194.948V328H193.7V323.236L190.827 328H189.442V321.455H190.691V326.214ZM199.482 328.132C198.837 328.132 198.282 327.994 197.816 327.719C197.353 327.44 196.995 327.05 196.742 326.547C196.492 326.041 196.367 325.449 196.367 324.77C196.367 324.099 196.492 323.509 196.742 322.997C196.995 322.486 197.347 322.087 197.799 321.8C198.254 321.513 198.785 321.369 199.393 321.369C199.762 321.369 200.12 321.43 200.467 321.553C200.813 321.675 201.124 321.866 201.4 322.128C201.675 322.389 201.893 322.729 202.052 323.146C202.211 323.561 202.29 324.065 202.29 324.659V325.111H197.087V324.156H201.042C201.042 323.821 200.974 323.524 200.837 323.266C200.701 323.004 200.509 322.798 200.262 322.648C200.018 322.497 199.731 322.422 199.401 322.422C199.043 322.422 198.731 322.51 198.464 322.686C198.2 322.859 197.995 323.087 197.85 323.368C197.708 323.646 197.637 323.949 197.637 324.276V325.021C197.637 325.459 197.714 325.831 197.867 326.138C198.023 326.445 198.241 326.679 198.519 326.841C198.798 327 199.123 327.08 199.495 327.08C199.737 327.08 199.957 327.045 200.156 326.977C200.354 326.906 200.526 326.801 200.671 326.662C200.816 326.523 200.927 326.351 201.004 326.146L202.21 326.364C202.113 326.719 201.94 327.03 201.69 327.297C201.442 327.561 201.131 327.767 200.756 327.915C200.384 328.06 199.96 328.132 199.482 328.132ZM208.14 324.178V325.281H204.595V324.178H208.14ZM204.953 321.455V328H203.704V321.455H204.953ZM209.031 321.455V328H207.787V321.455H209.031ZM209.924 322.554V321.455H215.446V322.554H213.311V328H212.067V322.554H209.924ZM218.394 328.145C217.979 328.145 217.604 328.068 217.269 327.915C216.934 327.759 216.668 327.533 216.472 327.237C216.279 326.942 216.183 326.58 216.183 326.151C216.183 325.781 216.254 325.477 216.396 325.239C216.538 325 216.729 324.811 216.971 324.672C217.212 324.533 217.482 324.428 217.781 324.357C218.079 324.286 218.383 324.232 218.692 324.195C219.085 324.149 219.403 324.112 219.647 324.084C219.891 324.053 220.069 324.003 220.18 323.935C220.29 323.866 220.346 323.756 220.346 323.602V323.572C220.346 323.2 220.241 322.912 220.031 322.707C219.823 322.503 219.513 322.401 219.102 322.401C218.673 322.401 218.335 322.496 218.087 322.686C217.843 322.874 217.674 323.082 217.58 323.312L216.383 323.04C216.525 322.642 216.732 322.321 217.005 322.077C217.281 321.83 217.597 321.651 217.955 321.54C218.313 321.426 218.69 321.369 219.085 321.369C219.346 321.369 219.623 321.401 219.915 321.463C220.211 321.523 220.487 321.634 220.742 321.795C221.001 321.957 221.212 322.189 221.377 322.49C221.542 322.788 221.624 323.176 221.624 323.653V328H220.38V327.105H220.329C220.246 327.27 220.123 327.432 219.958 327.591C219.793 327.75 219.582 327.882 219.323 327.987C219.065 328.092 218.755 328.145 218.394 328.145ZM218.671 327.122C219.023 327.122 219.325 327.053 219.575 326.913C219.827 326.774 220.019 326.592 220.15 326.368C220.283 326.141 220.35 325.898 220.35 325.639V324.795C220.305 324.841 220.217 324.884 220.086 324.923C219.958 324.96 219.812 324.993 219.647 325.021C219.482 325.047 219.322 325.071 219.165 325.094C219.009 325.114 218.879 325.131 218.773 325.145C218.526 325.176 218.3 325.229 218.096 325.303C217.894 325.376 217.732 325.483 217.61 325.622C217.491 325.759 217.431 325.94 217.431 326.168C217.431 326.483 217.548 326.722 217.781 326.884C218.013 327.043 218.31 327.122 218.671 327.122Z" fill="white"/>
<path d="M0 298H79C90.0457 298 99 306.954 99 318V336H20C8.95431 336 0 327.046 0 316V298Z" fill="#008CCF"/>
<path d="M17.5398 304.636C17.5398 305.568 17.3693 306.369 17.0284 307.04C16.6875 307.707 16.2202 308.222 15.6264 308.582C15.0355 308.94 14.3636 309.119 13.6108 309.119C12.8551 309.119 12.1804 308.94 11.5866 308.582C10.9957 308.222 10.5298 307.706 10.1889 307.036C9.84801 306.365 9.67756 305.565 9.67756 304.636C9.67756 303.705 9.84801 302.905 10.1889 302.237C10.5298 301.567 10.9957 301.053 11.5866 300.695C12.1804 300.334 12.8551 300.153 13.6108 300.153C14.3636 300.153 15.0355 300.334 15.6264 300.695C16.2202 301.053 16.6875 301.567 17.0284 302.237C17.3693 302.905 17.5398 303.705 17.5398 304.636ZM16.2358 304.636C16.2358 303.926 16.1207 303.328 15.8906 302.842C15.6634 302.354 15.3509 301.984 14.9531 301.734C14.5582 301.482 14.1108 301.355 13.6108 301.355C13.108 301.355 12.6591 301.482 12.2642 301.734C11.8693 301.984 11.5568 302.354 11.3267 302.842C11.0994 303.328 10.9858 303.926 10.9858 304.636C10.9858 305.347 11.0994 305.946 11.3267 306.435C11.5568 306.92 11.8693 307.29 12.2642 307.543C12.6591 307.793 13.108 307.918 13.6108 307.918C14.1108 307.918 14.5582 307.793 14.9531 307.543C15.3509 307.29 15.6634 306.92 15.8906 306.435C16.1207 305.946 16.2358 305.347 16.2358 304.636ZM18.7127 303.554V302.455H24.2354V303.554H22.1005V309H20.8562V303.554H18.7127ZM30.5327 302.455V309H29.2884V302.455H30.5327ZM29.9915 305.493V306.592C29.7955 306.672 29.5881 306.743 29.3693 306.805C29.1506 306.865 28.9205 306.912 28.679 306.946C28.4375 306.98 28.1861 306.997 27.9247 306.997C27.1151 306.997 26.4716 306.8 25.9943 306.405C25.517 306.007 25.2784 305.399 25.2784 304.581V302.442H26.5185V304.581C26.5185 304.891 26.5753 305.142 26.6889 305.335C26.8026 305.528 26.9645 305.67 27.1747 305.761C27.3849 305.852 27.6349 305.898 27.9247 305.898C28.3082 305.898 28.6619 305.862 28.9858 305.791C29.3125 305.717 29.6477 305.618 29.9915 305.493ZM35.0487 309.132C34.4038 309.132 33.8484 308.994 33.3825 308.719C32.9194 308.44 32.5614 308.05 32.3086 307.547C32.0586 307.041 31.9336 306.449 31.9336 305.77C31.9336 305.099 32.0586 304.509 32.3086 303.997C32.5614 303.486 32.9137 303.087 33.3654 302.8C33.82 302.513 34.3512 302.369 34.9592 302.369C35.3285 302.369 35.6864 302.43 36.033 302.553C36.3796 302.675 36.6907 302.866 36.9663 303.128C37.2418 303.389 37.4592 303.729 37.6183 304.146C37.7773 304.561 37.8569 305.065 37.8569 305.659V306.111H32.6538V305.156H36.6083C36.6083 304.821 36.5401 304.524 36.4038 304.266C36.2674 304.004 36.0756 303.798 35.8285 303.648C35.5842 303.497 35.2972 303.422 34.9677 303.422C34.6097 303.422 34.2972 303.51 34.0302 303.686C33.766 303.859 33.5614 304.087 33.4165 304.368C33.2745 304.646 33.2035 304.949 33.2035 305.276V306.021C33.2035 306.459 33.2802 306.831 33.4336 307.138C33.5898 307.445 33.8072 307.679 34.0856 307.841C34.364 308 34.6893 308.08 35.0614 308.08C35.3029 308.08 35.5231 308.045 35.7219 307.977C35.9208 307.906 36.0927 307.801 36.2376 307.662C36.3825 307.523 36.4933 307.351 36.57 307.146L37.7759 307.364C37.6793 307.719 37.506 308.03 37.256 308.297C37.0089 308.561 36.6978 308.767 36.3228 308.915C35.9506 309.06 35.5259 309.132 35.0487 309.132ZM38.6932 303.554V302.455H44.2159V303.554H42.081V309H40.8366V303.554H38.6932ZM49.9996 305.178V306.281H46.4542V305.178H49.9996ZM46.8121 302.455V309H45.5636V302.455H46.8121ZM50.8903 302.455V309H49.646V302.455H50.8903ZM53.5536 304.705H55.4542C56.2553 304.705 56.8718 304.903 57.3036 305.301C57.7354 305.699 57.9513 306.212 57.9513 306.839C57.9513 307.249 57.8548 307.616 57.6616 307.943C57.4684 308.27 57.1857 308.528 56.8136 308.719C56.4414 308.906 55.9883 309 55.4542 309H52.5948V302.455H53.8434V307.901H55.4542C55.8207 307.901 56.1218 307.805 56.3576 307.615C56.5934 307.422 56.7113 307.176 56.7113 306.878C56.7113 306.562 56.5934 306.305 56.3576 306.107C56.1218 305.905 55.8207 305.804 55.4542 305.804H53.5536V304.705ZM58.8803 309V302.455H60.1545V309H58.8803ZM64.6854 309.132C64.0405 309.132 63.4851 308.994 63.0192 308.719C62.5561 308.44 62.1982 308.05 61.9453 307.547C61.6953 307.041 61.5703 306.449 61.5703 305.77C61.5703 305.099 61.6953 304.509 61.9453 303.997C62.1982 303.486 62.5504 303.087 63.0021 302.8C63.4567 302.513 63.9879 302.369 64.5959 302.369C64.9652 302.369 65.3232 302.43 65.6697 302.553C66.0163 302.675 66.3274 302.866 66.603 303.128C66.8786 303.389 67.0959 303.729 67.255 304.146C67.4141 304.561 67.4936 305.065 67.4936 305.659V306.111H62.2905V305.156H66.245C66.245 304.821 66.1768 304.524 66.0405 304.266C65.9041 304.004 65.7124 303.798 65.4652 303.648C65.2209 303.497 64.9339 303.422 64.6044 303.422C64.2464 303.422 63.9339 303.51 63.6669 303.686C63.4027 303.859 63.1982 304.087 63.0533 304.368C62.9112 304.646 62.8402 304.949 62.8402 305.276V306.021C62.8402 306.459 62.9169 306.831 63.0703 307.138C63.2266 307.445 63.4439 307.679 63.7223 307.841C64.0007 308 64.326 308.08 64.6982 308.08C64.9396 308.08 65.1598 308.045 65.3587 307.977C65.5575 307.906 65.7294 307.801 65.8743 307.662C66.0192 307.523 66.13 307.351 66.2067 307.146L67.4126 307.364C67.3161 307.719 67.1428 308.03 66.8928 308.297C66.6456 308.561 66.3345 308.767 65.9595 308.915C65.5874 309.06 65.1626 309.132 64.6854 309.132ZM12.6733 322.229V311.273H13.9474V322.229H12.6733ZM12.6733 320.132C12.2102 320.132 11.7884 320.053 11.4077 319.893C11.027 319.732 10.6989 319.501 10.4233 319.203C10.1477 318.905 9.93466 318.548 9.78409 318.134C9.63636 317.719 9.5625 317.26 9.5625 316.757C9.5625 316.249 9.63636 315.787 9.78409 315.372C9.93466 314.957 10.1477 314.601 10.4233 314.303C10.6989 314.004 11.027 313.774 11.4077 313.612C11.7884 313.45 12.2102 313.369 12.6733 313.369H12.9886V320.132H12.6733ZM12.6733 319.058H12.8523V314.443H12.6733C12.3665 314.443 12.0994 314.506 11.8722 314.631C11.6449 314.753 11.456 314.922 11.3054 315.138C11.1548 315.351 11.0412 315.597 10.9645 315.875C10.8906 316.153 10.8537 316.447 10.8537 316.757C10.8537 317.172 10.9205 317.554 11.054 317.903C11.1875 318.25 11.3892 318.53 11.6591 318.743C11.929 318.953 12.267 319.058 12.6733 319.058ZM13.9474 320.132H13.6278V313.369H13.9474C14.4105 313.369 14.8324 313.45 15.2131 313.612C15.5938 313.774 15.9205 314.004 16.1932 314.303C16.4688 314.601 16.6804 314.957 16.8281 315.372C16.9787 315.787 17.054 316.249 17.054 316.757C17.054 317.26 16.9787 317.719 16.8281 318.134C16.6804 318.548 16.4688 318.905 16.1932 319.203C15.9205 319.501 15.5938 319.732 15.2131 319.893C14.8324 320.053 14.4105 320.132 13.9474 320.132ZM13.9474 319.058C14.2543 319.058 14.5213 318.999 14.7486 318.879C14.9759 318.757 15.1648 318.589 15.3153 318.376C15.4659 318.161 15.5781 317.915 15.652 317.639C15.7259 317.361 15.7628 317.067 15.7628 316.757C15.7628 316.345 15.696 315.964 15.5625 315.615C15.4318 315.263 15.2315 314.98 14.9616 314.767C14.6918 314.551 14.3537 314.443 13.9474 314.443H13.7642V319.058H13.9474ZM21.2269 320.132C20.6133 320.132 20.0778 319.991 19.6204 319.71C19.163 319.429 18.8079 319.036 18.555 318.53C18.3022 318.024 18.1758 317.433 18.1758 316.757C18.1758 316.078 18.3022 315.484 18.555 314.976C18.8079 314.467 19.163 314.072 19.6204 313.791C20.0778 313.51 20.6133 313.369 21.2269 313.369C21.8406 313.369 22.3761 313.51 22.8335 313.791C23.2908 314.072 23.646 314.467 23.8988 314.976C24.1516 315.484 24.2781 316.078 24.2781 316.757C24.2781 317.433 24.1516 318.024 23.8988 318.53C23.646 319.036 23.2908 319.429 22.8335 319.71C22.3761 319.991 21.8406 320.132 21.2269 320.132ZM21.2312 319.062C21.6289 319.062 21.9585 318.957 22.2198 318.747C22.4812 318.537 22.6744 318.257 22.7994 317.908C22.9272 317.558 22.9911 317.173 22.9911 316.753C22.9911 316.335 22.9272 315.952 22.7994 315.602C22.6744 315.25 22.4812 314.967 22.2198 314.754C21.9585 314.541 21.6289 314.435 21.2312 314.435C20.8306 314.435 20.4982 314.541 20.234 314.754C19.9727 314.967 19.7781 315.25 19.6502 315.602C19.5252 315.952 19.4627 316.335 19.4627 316.753C19.4627 317.173 19.5252 317.558 19.6502 317.908C19.7781 318.257 19.9727 318.537 20.234 318.747C20.4982 318.957 20.8306 319.062 21.2312 319.062ZM25.7003 322.455V313.455H26.9446V314.516H27.0511C27.125 314.379 27.2315 314.222 27.3707 314.043C27.5099 313.864 27.7031 313.707 27.9503 313.574C28.1974 313.438 28.5241 313.369 28.9304 313.369C29.4588 313.369 29.9304 313.503 30.3452 313.77C30.7599 314.037 31.0852 314.422 31.321 314.925C31.5597 315.428 31.679 316.033 31.679 316.74C31.679 317.447 31.5611 318.054 31.3253 318.56C31.0895 319.062 30.7656 319.45 30.3537 319.723C29.9418 319.993 29.4716 320.128 28.9432 320.128C28.5455 320.128 28.2202 320.061 27.9673 319.928C27.7173 319.794 27.5213 319.638 27.3793 319.459C27.2372 319.28 27.1278 319.121 27.0511 318.982H26.9744V322.455H25.7003ZM26.9489 316.727C26.9489 317.187 27.0156 317.591 27.1491 317.938C27.2827 318.284 27.4759 318.555 27.7287 318.751C27.9815 318.945 28.2912 319.041 28.6577 319.041C29.0384 319.041 29.3565 318.94 29.6122 318.739C29.8679 318.534 30.0611 318.257 30.1918 317.908C30.3253 317.558 30.392 317.165 30.392 316.727C30.392 316.295 30.3267 315.908 30.196 315.564C30.0682 315.22 29.875 314.949 29.6165 314.75C29.3608 314.551 29.0412 314.452 28.6577 314.452C28.2884 314.452 27.9759 314.547 27.7202 314.737C27.4673 314.928 27.2756 315.193 27.1449 315.534C27.0142 315.875 26.9489 316.273 26.9489 316.727ZM36.7798 318.423L38.8935 313.455H39.9929L37.2528 320H36.3068L33.6222 313.455H34.7088L36.7798 318.423ZM34.3551 313.455V320H33.1065V313.455H34.3551ZM39.2386 320V313.455H40.4787V320H39.2386ZM43.1357 315.705H45.0362C45.8374 315.705 46.4538 315.903 46.8857 316.301C47.3175 316.699 47.5334 317.212 47.5334 317.839C47.5334 318.249 47.4368 318.616 47.2436 318.943C47.0504 319.27 46.7678 319.528 46.3956 319.719C46.0234 319.906 45.5703 320 45.0362 320H42.1768V313.455H43.4254V318.901H45.0362C45.4027 318.901 45.7038 318.805 45.9396 318.615C46.1754 318.422 46.2933 318.176 46.2933 317.878C46.2933 317.562 46.1754 317.305 45.9396 317.107C45.7038 316.905 45.4027 316.804 45.0362 316.804H43.1357V315.705ZM48.4624 320V313.455H49.7365V320H48.4624ZM9.85653 333.455V324.455H11.1009V325.516H11.2074C11.2813 325.379 11.3878 325.222 11.527 325.043C11.6662 324.864 11.8594 324.707 12.1065 324.574C12.3537 324.438 12.6804 324.369 13.0866 324.369C13.6151 324.369 14.0866 324.503 14.5014 324.77C14.9162 325.037 15.2415 325.422 15.4773 325.925C15.7159 326.428 15.8352 327.033 15.8352 327.74C15.8352 328.447 15.7173 329.054 15.4815 329.56C15.2457 330.062 14.9219 330.45 14.5099 330.723C14.098 330.993 13.6278 331.128 13.0994 331.128C12.7017 331.128 12.3764 331.061 12.1236 330.928C11.8736 330.794 11.6776 330.638 11.5355 330.459C11.3935 330.28 11.2841 330.121 11.2074 329.982H11.1307V333.455H9.85653ZM11.1051 327.727C11.1051 328.187 11.1719 328.591 11.3054 328.938C11.4389 329.284 11.6321 329.555 11.8849 329.751C12.1378 329.945 12.4474 330.041 12.8139 330.041C13.1946 330.041 13.5128 329.94 13.7685 329.739C14.0241 329.534 14.2173 329.257 14.348 328.908C14.4815 328.558 14.5483 328.165 14.5483 327.727C14.5483 327.295 14.483 326.908 14.3523 326.564C14.2244 326.22 14.0313 325.949 13.7727 325.75C13.517 325.551 13.1974 325.452 12.8139 325.452C12.4446 325.452 12.1321 325.547 11.8764 325.737C11.6236 325.928 11.4318 326.193 11.3011 326.534C11.1705 326.875 11.1051 327.273 11.1051 327.727ZM17.8455 333.455C17.6552 333.455 17.4819 333.439 17.3256 333.408C17.1694 333.379 17.0529 333.348 16.9762 333.314L17.283 332.27C17.516 332.332 17.7234 332.359 17.9052 332.351C18.087 332.342 18.2475 332.274 18.3867 332.146C18.5288 332.018 18.6538 331.81 18.7617 331.52L18.9194 331.085L16.5245 324.455H17.8881L19.5458 329.534H19.614L21.2717 324.455H22.6396L19.9421 331.874C19.8171 332.214 19.658 332.503 19.4648 332.739C19.2717 332.977 19.0415 333.156 18.7745 333.276C18.5075 333.395 18.1978 333.455 17.8455 333.455ZM23.837 331V324.455H25.1112V327.199H25.7248L27.8853 324.455H29.462L26.9265 327.638L29.4918 331H27.9109L25.9379 328.384H25.1112V331H23.837ZM32.9691 331.132C32.3555 331.132 31.82 330.991 31.3626 330.71C30.9052 330.429 30.5501 330.036 30.2972 329.53C30.0444 329.024 29.918 328.433 29.918 327.757C29.918 327.078 30.0444 326.484 30.2972 325.976C30.5501 325.467 30.9052 325.072 31.3626 324.791C31.82 324.51 32.3555 324.369 32.9691 324.369C33.5827 324.369 34.1183 324.51 34.5756 324.791C35.033 325.072 35.3881 325.467 35.641 325.976C35.8938 326.484 36.0202 327.078 36.0202 327.757C36.0202 328.433 35.8938 329.024 35.641 329.53C35.3881 330.036 35.033 330.429 34.5756 330.71C34.1183 330.991 33.5827 331.132 32.9691 331.132ZM32.9734 330.062C33.3711 330.062 33.7006 329.957 33.962 329.747C34.2234 329.537 34.4165 329.257 34.5415 328.908C34.6694 328.558 34.7333 328.173 34.7333 327.753C34.7333 327.335 34.6694 326.952 34.5415 326.602C34.4165 326.25 34.2234 325.967 33.962 325.754C33.7006 325.541 33.3711 325.435 32.9734 325.435C32.5728 325.435 32.2404 325.541 31.9762 325.754C31.7148 325.967 31.5202 326.25 31.3924 326.602C31.2674 326.952 31.2049 327.335 31.2049 327.753C31.2049 328.173 31.2674 328.558 31.3924 328.908C31.5202 329.257 31.7148 329.537 31.9762 329.747C32.2404 329.957 32.5728 330.062 32.9734 330.062ZM37.4425 331V324.455H40.157C40.8956 324.455 41.4808 324.612 41.9126 324.928C42.3445 325.24 42.5604 325.665 42.5604 326.202C42.5604 326.585 42.4382 326.889 42.1939 327.114C41.9496 327.338 41.6257 327.489 41.2223 327.565C41.5149 327.599 41.7834 327.687 42.0277 327.83C42.272 327.969 42.468 328.156 42.6158 328.392C42.7663 328.628 42.8416 328.909 42.8416 329.236C42.8416 329.582 42.7521 329.889 42.5732 330.156C42.3942 330.42 42.1342 330.628 41.7933 330.778C41.4553 330.926 41.0476 331 40.5703 331H37.4425ZM38.6399 329.935H40.5703C40.8857 329.935 41.1328 329.859 41.3118 329.709C41.4908 329.558 41.5803 329.354 41.5803 329.095C41.5803 328.791 41.4908 328.553 41.3118 328.379C41.1328 328.203 40.8857 328.115 40.5703 328.115H38.6399V329.935ZM38.6399 327.182H40.1697C40.4084 327.182 40.6129 327.148 40.7834 327.08C40.9567 327.011 41.0888 326.915 41.1797 326.79C41.2734 326.662 41.3203 326.511 41.3203 326.338C41.3203 326.085 41.2166 325.888 41.0092 325.746C40.8018 325.604 40.5178 325.533 40.157 325.533H38.6399V327.182ZM46.9964 331.132C46.3828 331.132 45.8473 330.991 45.3899 330.71C44.9325 330.429 44.5774 330.036 44.3246 329.53C44.0717 329.024 43.9453 328.433 43.9453 327.757C43.9453 327.078 44.0717 326.484 44.3246 325.976C44.5774 325.467 44.9325 325.072 45.3899 324.791C45.8473 324.51 46.3828 324.369 46.9964 324.369C47.6101 324.369 48.1456 324.51 48.603 324.791C49.0604 325.072 49.4155 325.467 49.6683 325.976C49.9212 326.484 50.0476 327.078 50.0476 327.757C50.0476 328.433 49.9212 329.024 49.6683 329.53C49.4155 330.036 49.0604 330.429 48.603 330.71C48.1456 330.991 47.6101 331.132 46.9964 331.132ZM47.0007 330.062C47.3984 330.062 47.728 329.957 47.9893 329.747C48.2507 329.537 48.4439 329.257 48.5689 328.908C48.6967 328.558 48.7607 328.173 48.7607 327.753C48.7607 327.335 48.6967 326.952 48.5689 326.602C48.4439 326.25 48.2507 325.967 47.9893 325.754C47.728 325.541 47.3984 325.435 47.0007 325.435C46.6001 325.435 46.2678 325.541 46.0036 325.754C45.7422 325.967 45.5476 326.25 45.4197 326.602C45.2947 326.952 45.2322 327.335 45.2322 327.753C45.2322 328.173 45.2947 328.558 45.4197 328.908C45.5476 329.257 45.7422 329.537 46.0036 329.747C46.2678 329.957 46.6001 330.062 47.0007 330.062ZM50.8306 332.888V329.896H51.3633C51.4996 329.771 51.6147 329.622 51.7085 329.449C51.805 329.276 51.886 329.07 51.9513 328.831C52.0195 328.592 52.0763 328.314 52.1218 327.996C52.1673 327.675 52.207 327.308 52.2411 326.896L52.4457 324.455H56.8945V329.896H57.9002V332.888H56.6559V331H52.092V332.888H50.8306ZM52.7269 329.896H55.6502V325.545H53.5877L53.4513 326.896C53.386 327.584 53.3036 328.18 53.2042 328.686C53.1048 329.189 52.9457 329.592 52.7269 329.896ZM60.3942 329.214L63.2791 324.455H64.6513V331H63.4027V326.236L60.5305 331H59.1456V324.455H60.3942V329.214ZM65.5526 325.554V324.455H71.0753V325.554H68.9403V331H67.696V325.554H65.5526ZM74.9393 331.132C74.2944 331.132 73.739 330.994 73.2731 330.719C72.81 330.44 72.4521 330.05 72.1992 329.547C71.9492 329.041 71.8242 328.449 71.8242 327.77C71.8242 327.099 71.9492 326.509 72.1992 325.997C72.4521 325.486 72.8043 325.087 73.256 324.8C73.7106 324.513 74.2418 324.369 74.8498 324.369C75.2191 324.369 75.5771 324.43 75.9237 324.553C76.2702 324.675 76.5813 324.866 76.8569 325.128C77.1325 325.389 77.3498 325.729 77.5089 326.146C77.668 326.561 77.7475 327.065 77.7475 327.659V328.111H72.5444V327.156H76.4989C76.4989 326.821 76.4308 326.524 76.2944 326.266C76.158 326.004 75.9663 325.798 75.7191 325.648C75.4748 325.497 75.1879 325.422 74.8583 325.422C74.5004 325.422 74.1879 325.51 73.9208 325.686C73.6566 325.859 73.4521 326.087 73.3072 326.368C73.1651 326.646 73.0941 326.949 73.0941 327.276V328.021C73.0941 328.459 73.1708 328.831 73.3242 329.138C73.4805 329.445 73.6978 329.679 73.9762 329.841C74.2546 330 74.5799 330.08 74.9521 330.08C75.1935 330.08 75.4137 330.045 75.6126 329.977C75.8114 329.906 75.9833 329.801 76.1282 329.662C76.2731 329.523 76.3839 329.351 76.4606 329.146L77.6665 329.364C77.57 329.719 77.3967 330.03 77.1467 330.297C76.8995 330.561 76.5884 330.767 76.2134 330.915C75.8413 331.06 75.4165 331.132 74.9393 331.132ZM78.6456 331L78.6413 329.896H78.8757C79.0575 329.896 79.2095 329.858 79.3317 329.781C79.4567 329.702 79.5589 329.568 79.6385 329.381C79.718 329.193 79.7791 328.935 79.8217 328.605C79.8643 328.273 79.8956 327.855 79.9155 327.352L80.0305 324.455H84.5987V331H83.3501V325.554H81.2109L81.1087 327.778C81.0831 328.318 81.0277 328.79 80.9425 329.193C80.8601 329.597 80.7393 329.933 80.5803 330.203C80.4212 330.47 80.2166 330.67 79.9666 330.804C79.7166 330.935 79.4126 331 79.0547 331H78.6456ZM90.2013 331V325.541H88.6332C88.261 325.541 87.9712 325.628 87.7638 325.801C87.5565 325.974 87.4528 326.202 87.4528 326.483C87.4528 326.761 87.5479 326.986 87.7383 327.156C87.9315 327.324 88.2013 327.408 88.5479 327.408H90.5721V328.439H88.5479C88.065 328.439 87.6474 328.359 87.2951 328.2C86.9457 328.038 86.6758 327.81 86.4854 327.514C86.2979 327.219 86.2042 326.869 86.2042 326.466C86.2042 326.054 86.3008 325.699 86.494 325.401C86.69 325.099 86.9698 324.866 87.3335 324.702C87.6999 324.537 88.1332 324.455 88.6332 324.455H91.3988V331H90.2013ZM85.9059 331L87.7511 327.693H89.055L87.2099 331H85.9059Z" fill="white"/>
<path d="M154 241C154 229.954 162.954 221 174 221H253V239C253 250.046 244.046 259 233 259H154V241Z" fill="#008CCF"/>
<path d="M201.136 244L198.205 240.088H197.276V244H195.959V235.273H197.276V238.959H197.706L201.004 235.273H202.611L199.121 239.18L202.743 244H201.136ZM203.532 236.406V235.273H210.287V236.406H207.564V244H206.251V236.406H203.532Z" fill="white"/>
<path d="M303 241C303 229.954 311.954 221 323 221H402V239C402 250.046 393.046 259 382 259H303V241Z" fill="#008CCF"/>
<path d="M320.781 235.273V244H319.469V236.398H315.361V244H314.048V235.273H320.781ZM325.45 244.132C324.836 244.132 324.3 243.991 323.843 243.71C323.386 243.429 323.031 243.036 322.778 242.53C322.525 242.024 322.398 241.433 322.398 240.757C322.398 240.078 322.525 239.484 322.778 238.976C323.031 238.467 323.386 238.072 323.843 237.791C324.3 237.51 324.836 237.369 325.45 237.369C326.063 237.369 326.599 237.51 327.056 237.791C327.513 238.072 327.869 238.467 328.121 238.976C328.374 239.484 328.501 240.078 328.501 240.757C328.501 241.433 328.374 242.024 328.121 242.53C327.869 243.036 327.513 243.429 327.056 243.71C326.599 243.991 326.063 244.132 325.45 244.132ZM325.454 243.062C325.852 243.062 326.181 242.957 326.442 242.747C326.704 242.537 326.897 242.257 327.022 241.908C327.15 241.558 327.214 241.173 327.214 240.753C327.214 240.335 327.15 239.952 327.022 239.602C326.897 239.25 326.704 238.967 326.442 238.754C326.181 238.541 325.852 238.435 325.454 238.435C325.053 238.435 324.721 238.541 324.457 238.754C324.195 238.967 324.001 239.25 323.873 239.602C323.748 239.952 323.685 240.335 323.685 240.753C323.685 241.173 323.748 241.558 323.873 241.908C324.001 242.257 324.195 242.537 324.457 242.747C324.721 242.957 325.053 243.062 325.454 243.062ZM329.407 244L329.403 242.896H329.637C329.819 242.896 329.971 242.858 330.093 242.781C330.218 242.702 330.321 242.568 330.4 242.381C330.48 242.193 330.541 241.935 330.583 241.605C330.626 241.273 330.657 240.855 330.677 240.352L330.792 237.455H335.36V244H334.112V238.554H331.973L331.87 240.778C331.845 241.318 331.789 241.79 331.704 242.193C331.622 242.597 331.501 242.933 331.342 243.203C331.183 243.47 330.978 243.67 330.728 243.804C330.478 243.935 330.174 244 329.816 244H329.407ZM338.308 242.214L341.193 237.455H342.565V244H341.317V239.236L338.445 244H337.06V237.455H338.308V242.214ZM344.278 244V237.455H345.553V240.199H346.166L348.327 237.455H349.903L347.368 240.638L349.933 244H348.352L346.379 241.384H345.553V244H344.278ZM350.407 244L350.403 242.896H350.637C350.819 242.896 350.971 242.858 351.093 242.781C351.218 242.702 351.321 242.568 351.4 242.381C351.48 242.193 351.541 241.935 351.583 241.605C351.626 241.273 351.657 240.855 351.677 240.352L351.792 237.455H356.36V244H355.112V238.554H352.973L352.87 240.778C352.845 241.318 352.789 241.79 352.704 242.193C352.622 242.597 352.501 242.933 352.342 243.203C352.183 243.47 351.978 243.67 351.728 243.804C351.478 243.935 351.174 244 350.816 244H350.407ZM359.308 242.214L362.193 237.455H363.565V244H362.317V239.236L359.445 244H358.06V237.455H359.308V242.214ZM369.714 240.178V241.281H366.169V240.178H369.714ZM366.527 237.455V244H365.278V237.455H366.527ZM370.605 237.455V244H369.361V237.455H370.605ZM373.558 242.214L376.443 237.455H377.815V244H376.567V239.236L373.695 244H372.31V237.455H373.558V242.214ZM379.528 244V237.455H380.803V240.199H381.416L383.577 237.455H385.153L382.618 240.638L385.183 244H383.602L381.629 241.384H380.803V244H379.528ZM388.078 244.145C387.663 244.145 387.288 244.068 386.953 243.915C386.618 243.759 386.352 243.533 386.156 243.237C385.963 242.942 385.866 242.58 385.866 242.151C385.866 241.781 385.937 241.477 386.079 241.239C386.221 241 386.413 240.811 386.654 240.672C386.896 240.533 387.166 240.428 387.464 240.357C387.762 240.286 388.066 240.232 388.376 240.195C388.768 240.149 389.086 240.112 389.331 240.084C389.575 240.053 389.752 240.003 389.863 239.935C389.974 239.866 390.029 239.756 390.029 239.602V239.572C390.029 239.2 389.924 238.912 389.714 238.707C389.507 238.503 389.197 238.401 388.785 238.401C388.356 238.401 388.018 238.496 387.771 238.686C387.527 238.874 387.358 239.082 387.264 239.312L386.066 239.04C386.208 238.642 386.416 238.321 386.689 238.077C386.964 237.83 387.281 237.651 387.639 237.54C387.997 237.426 388.373 237.369 388.768 237.369C389.029 237.369 389.306 237.401 389.599 237.463C389.895 237.523 390.17 237.634 390.426 237.795C390.684 237.957 390.896 238.189 391.061 238.49C391.225 238.788 391.308 239.176 391.308 239.653V244H390.064V243.105H390.012C389.93 243.27 389.806 243.432 389.642 243.591C389.477 243.75 389.265 243.882 389.007 243.987C388.748 244.092 388.439 244.145 388.078 244.145ZM388.355 243.122C388.707 243.122 389.008 243.053 389.258 242.913C389.511 242.774 389.703 242.592 389.833 242.368C389.967 242.141 390.034 241.898 390.034 241.639V240.795C389.988 240.841 389.9 240.884 389.77 240.923C389.642 240.96 389.495 240.993 389.331 241.021C389.166 241.047 389.005 241.071 388.849 241.094C388.693 241.114 388.562 241.131 388.457 241.145C388.21 241.176 387.984 241.229 387.779 241.303C387.578 241.376 387.416 241.483 387.294 241.622C387.174 241.759 387.115 241.94 387.115 242.168C387.115 242.483 387.231 242.722 387.464 242.884C387.697 243.043 387.994 243.122 388.355 243.122Z" fill="white"/>
<path d="M457 241C457 229.954 465.954 221 477 221H556V239C556 250.046 547.046 259 536 259H457V241Z" fill="#008CCF"/>
<path d="M499.136 244L496.205 240.088H495.276V244H493.959V235.273H495.276V238.959H495.706L499.004 235.273H500.611L497.121 239.18L500.743 244H499.136ZM501.302 246.109V242.884H501.877C502.074 242.719 502.257 242.484 502.427 242.18C502.598 241.876 502.743 241.466 502.862 240.949C502.981 240.432 503.064 239.768 503.109 238.959L503.314 235.273H508.696V242.884H509.684V246.097H508.423V244H502.564V246.109H501.302ZM503.429 242.884H507.434V236.406H504.507L504.37 238.959C504.333 239.575 504.272 240.129 504.187 240.621C504.105 241.112 503.998 241.547 503.868 241.925C503.74 242.3 503.593 242.619 503.429 242.884ZM510.466 244V242.858L510.722 242.849C511.069 242.841 511.341 242.723 511.54 242.496C511.742 242.268 511.888 241.902 511.979 241.396C512.073 240.891 512.135 240.216 512.167 239.372L512.316 235.273H517.834V244H516.534V236.389H513.556L513.419 239.722C513.382 240.656 513.289 241.442 513.138 242.078C512.988 242.712 512.732 243.19 512.371 243.514C512.013 243.838 511.503 244 510.841 244H510.466Z" fill="white"/>
<path d="M125 132.989L127.887 127.989H122.113L125 132.989ZM124.5 41.9885L124.5 128.489H125.5L125.5 41.9885H124.5Z" fill="#8BCEEE"/>
<path d="M202 136L204.887 131H199.113L202 136ZM201.5 117V131.5H202.5V117H201.5Z" fill="#8BCEEE"/>
<path d="M51 136L53.8868 131H48.1132L51 136ZM50.5 117V131.5H51.5V117H50.5Z" fill="#8BCEEE"/>
<path d="M353 136L355.887 131H350.113L353 136ZM352.5 117V131.5H353.5V117H352.5Z" fill="#8BCEEE"/>
<path d="M353 210L350.113 215H355.887L353 210ZM353.5 220V214.5H352.5V220H353.5Z" fill="#8BCEEE"/>
<path d="M204 210L201.113 215H206.887L204 210ZM204.5 220V214.5H203.5V220H204.5Z" fill="#8BCEEE"/>
<path d="M103 241L108 243.887V238.113L103 241ZM123 240.5H107.5V241.5H123V240.5Z" fill="#8BCEEE"/>
<path d="M103 317L108 319.887V314.113L103 317ZM123 316.5H107.5V317.5H123V316.5Z" fill="#8BCEEE"/>
<path d="M152 317L147 314.113V319.887L152 317ZM132 317.5H147.5V316.5H132V317.5Z" fill="#8BCEEE"/>
<path d="M417 139.4L422.76 138.998L419.531 134.211L417 139.4ZM457.343 111.585L420.451 136.47L421.01 137.299L457.903 112.415L457.343 111.585Z" fill="#8BCEEE"/>
<path d="M417.816 201.883L420.346 207.072L423.575 202.285L417.816 201.883ZM457.06 227.75L421.826 203.985L421.267 204.814L456.501 228.579L457.06 227.75Z" fill="#8BCEEE"/>
<path d="M424 174L429 176.887V171.113L424 174ZM443 173.5H428.5V174.5H443V173.5Z" fill="#8BCEEE"/>
<path d="M335 174L340 176.887V171.113L335 174ZM405 173.5H339.5V174.5H405V173.5Z" fill="#8BCEEE"/>
<path d="M110 174L115 176.887V171.113L110 174ZM219 173.5H114.5V174.5H219V173.5Z" fill="#8BCEEE"/>
<line x1="128.5" y1="177.004" x2="127.5" y2="318.004" stroke="#8BCEEE"/>
<path d="M48 140H403.285C406.283 140.667 412.38 143.6 412.779 150C413.179 156.4 412.946 183.333 412.779 196C412.446 198.167 410.081 203.2 403.285 206C396.889 206 384.63 206 379.3 206H199.408" stroke="#8BCEEE"/>
</svg>
