<svg width="515" height="235" viewBox="0 0 515 235" fill="none" xmlns="http://www.w3.org/2000/svg">
<path d="M2.29439 6.0696C1.92318 6.0696 1.59257 6.0058 1.30256 5.8782C1.0142 5.74893 0.78634 5.57161 0.618963 5.34624C0.453243 5.1192 0.367898 4.85736 0.362926 4.56072H1.44673C1.45336 4.68501 1.49396 4.79439 1.56854 4.88885C1.64477 4.98165 1.74586 5.05374 1.8718 5.10511C1.99775 5.15649 2.13944 5.18217 2.29688 5.18217C2.46094 5.18217 2.60594 5.15317 2.73189 5.09517C2.85784 5.03717 2.95644 4.95679 3.0277 4.85405C3.09896 4.7513 3.13459 4.63281 3.13459 4.49858C3.13459 4.36269 3.09647 4.24254 3.02024 4.13814C2.94567 4.03208 2.83795 3.94922 2.69709 3.88956C2.55788 3.8299 2.39216 3.80007 2.19993 3.80007H1.72514V3.00959H2.19993C2.36233 3.00959 2.50568 2.98142 2.62997 2.92507C2.75592 2.86873 2.85369 2.79084 2.9233 2.69141C2.9929 2.59032 3.0277 2.47266 3.0277 2.33842C3.0277 2.21082 2.99704 2.09896 2.93572 2.00284C2.87607 1.90507 2.79155 1.82884 2.68217 1.77415C2.57446 1.71946 2.44851 1.69212 2.30433 1.69212C2.1585 1.69212 2.02509 1.71863 1.90412 1.77166C1.78314 1.82303 1.6862 1.89678 1.61328 1.9929C1.54036 2.08901 1.50142 2.2017 1.49645 2.33097H0.464844C0.469815 2.03764 0.553504 1.77912 0.715909 1.5554C0.878314 1.33168 1.09706 1.15684 1.37216 1.03089C1.64891 0.903291 1.96129 0.839488 2.3093 0.839488C2.66063 0.839488 2.96804 0.903291 3.23153 1.03089C3.49503 1.1585 3.69969 1.33085 3.84553 1.54794C3.99302 1.76338 4.06593 2.00533 4.06428 2.27379C4.06593 2.55883 3.97727 2.79664 3.7983 2.98722C3.62098 3.17779 3.3898 3.29877 3.10476 3.35014V3.38991C3.47929 3.43797 3.76432 3.56806 3.95987 3.78018C4.15708 3.99065 4.25485 4.25414 4.2532 4.57067C4.25485 4.86068 4.17116 5.11837 4.00213 5.34375C3.83475 5.56913 3.60357 5.74645 3.30859 5.87571C3.01361 6.00497 2.67554 6.0696 2.29439 6.0696ZM7.02299 6.11186C6.59544 6.1102 6.22754 6.00497 5.9193 5.79616C5.61272 5.58736 5.37657 5.28492 5.21085 4.88885C5.04679 4.49278 4.96558 4.01634 4.96724 3.45952C4.96724 2.90436 5.04927 2.43123 5.21333 2.04013C5.37905 1.64903 5.6152 1.35156 5.92179 1.14773C6.23002 0.942235 6.59709 0.839488 7.02299 0.839488C7.44889 0.839488 7.81513 0.942235 8.12172 1.14773C8.42995 1.35322 8.66693 1.65151 8.83265 2.04261C8.99837 2.43205 9.0804 2.90436 9.07875 3.45952C9.07875 4.01799 8.99589 4.49527 8.83017 4.89134C8.6661 5.28741 8.43078 5.58984 8.1242 5.79865C7.81762 6.00746 7.45055 6.11186 7.02299 6.11186ZM7.02299 5.21946C7.31466 5.21946 7.5475 5.0728 7.7215 4.77947C7.89551 4.48615 7.98168 4.04616 7.98002 3.45952C7.98002 3.07339 7.94025 2.75189 7.86071 2.49503C7.78282 2.23816 7.67179 2.0451 7.52761 1.91584C7.38509 1.78658 7.21689 1.72195 7.02299 1.72195C6.73298 1.72195 6.50098 1.86695 6.32697 2.15696C6.15297 2.44697 6.06513 2.88116 6.06348 3.45952C6.06348 3.85062 6.10242 4.17708 6.18031 4.43892C6.25985 4.6991 6.37172 4.89465 6.51589 5.02557C6.66007 5.15483 6.8291 5.21946 7.02299 5.21946ZM11.8423 6.11186C11.4148 6.1102 11.0469 6.00497 10.7386 5.79616C10.4321 5.58736 10.1959 5.28492 10.0302 4.88885C9.86612 4.49278 9.78492 4.01634 9.78658 3.45952C9.78658 2.90436 9.86861 2.43123 10.0327 2.04013C10.1984 1.64903 10.4345 1.35156 10.7411 1.14773C11.0494 0.942235 11.4164 0.839488 11.8423 0.839488C12.2682 0.839488 12.6345 0.942235 12.9411 1.14773C13.2493 1.35322 13.4863 1.65151 13.652 2.04261C13.8177 2.43205 13.8997 2.90436 13.8981 3.45952C13.8981 4.01799 13.8152 4.49527 13.6495 4.89134C13.4854 5.28741 13.2501 5.58984 12.9435 5.79865C12.637 6.00746 12.2699 6.11186 11.8423 6.11186ZM11.8423 5.21946C12.134 5.21946 12.3668 5.0728 12.5408 4.77947C12.7148 4.48615 12.801 4.04616 12.7994 3.45952C12.7994 3.07339 12.7596 2.75189 12.68 2.49503C12.6022 2.23816 12.4911 2.0451 12.3469 1.91584C12.2044 1.78658 12.0362 1.72195 11.8423 1.72195C11.5523 1.72195 11.3203 1.86695 11.1463 2.15696C10.9723 2.44697 10.8845 2.88116 10.8828 3.45952C10.8828 3.85062 10.9218 4.17708 10.9996 4.43892C11.0792 4.6991 11.1911 4.89465 11.3352 5.02557C11.4794 5.15483 11.6484 5.21946 11.8423 5.21946ZM18.2818 6.11186C17.8542 6.1102 17.4863 6.00497 17.1781 5.79616C16.8715 5.58736 16.6354 5.28492 16.4696 4.88885C16.3056 4.49278 16.2244 4.01634 16.226 3.45952C16.226 2.90436 16.3081 2.43123 16.4721 2.04013C16.6378 1.64903 16.874 1.35156 17.1806 1.14773C17.4888 0.942235 17.8559 0.839488 18.2818 0.839488C18.7077 0.839488 19.0739 0.942235 19.3805 1.14773C19.6887 1.35322 19.9257 1.65151 20.0914 2.04261C20.2572 2.43205 20.3392 2.90436 20.3375 3.45952C20.3375 4.01799 20.2547 4.49527 20.089 4.89134C19.9249 5.28741 19.6896 5.58984 19.383 5.79865C19.0764 6.00746 18.7093 6.11186 18.2818 6.11186ZM18.2818 5.21946C18.5734 5.21946 18.8063 5.0728 18.9803 4.77947C19.1543 4.48615 19.2405 4.04616 19.2388 3.45952C19.2388 3.07339 19.199 2.75189 19.1195 2.49503C19.0416 2.23816 18.9306 2.0451 18.7864 1.91584C18.6439 1.78658 18.4757 1.72195 18.2818 1.72195C17.9918 1.72195 17.7598 1.86695 17.5858 2.15696C17.4118 2.44697 17.3239 2.88116 17.3223 3.45952C17.3223 3.85062 17.3612 4.17708 17.4391 4.43892C17.5186 4.6991 17.6305 4.89465 17.7747 5.02557C17.9189 5.15483 18.0879 5.21946 18.2818 5.21946ZM23.1011 6.11186C22.6736 6.1102 22.3057 6.00497 21.9974 5.79616C21.6908 5.58736 21.4547 5.28492 21.289 4.88885C21.1249 4.49278 21.0437 4.01634 21.0454 3.45952C21.0454 2.90436 21.1274 2.43123 21.2915 2.04013C21.4572 1.64903 21.6933 1.35156 21.9999 1.14773C22.3081 0.942235 22.6752 0.839488 23.1011 0.839488C23.527 0.839488 23.8933 0.942235 24.1998 1.14773C24.5081 1.35322 24.7451 1.65151 24.9108 2.04261C25.0765 2.43205 25.1585 2.90436 25.1569 3.45952C25.1569 4.01799 25.074 4.49527 24.9083 4.89134C24.7442 5.28741 24.5089 5.58984 24.2023 5.79865C23.8957 6.00746 23.5287 6.11186 23.1011 6.11186ZM23.1011 5.21946C23.3928 5.21946 23.6256 5.0728 23.7996 4.77947C23.9736 4.48615 24.0598 4.04616 24.0581 3.45952C24.0581 3.07339 24.0184 2.75189 23.9388 2.49503C23.8609 2.23816 23.7499 2.0451 23.6057 1.91584C23.4632 1.78658 23.295 1.72195 23.1011 1.72195C22.8111 1.72195 22.5791 1.86695 22.4051 2.15696C22.2311 2.44697 22.1433 2.88116 22.1416 3.45952C22.1416 3.85062 22.1805 4.17708 22.2584 4.43892C22.338 4.6991 22.4498 4.89465 22.594 5.02557C22.7382 5.15483 22.9072 5.21946 23.1011 5.21946ZM27.9205 6.11186C27.4929 6.1102 27.125 6.00497 26.8168 5.79616C26.5102 5.58736 26.274 5.28492 26.1083 4.88885C25.9442 4.49278 25.863 4.01634 25.8647 3.45952C25.8647 2.90436 25.9467 2.43123 26.1108 2.04013C26.2765 1.64903 26.5127 1.35156 26.8192 1.14773C27.1275 0.942235 27.4946 0.839488 27.9205 0.839488C28.3464 0.839488 28.7126 0.942235 29.0192 1.14773C29.3274 1.35322 29.5644 1.65151 29.7301 2.04261C29.8958 2.43205 29.9779 2.90436 29.9762 3.45952C29.9762 4.01799 29.8933 4.49527 29.7276 4.89134C29.5636 5.28741 29.3282 5.58984 29.0217 5.79865C28.7151 6.00746 28.348 6.11186 27.9205 6.11186ZM27.9205 5.21946C28.2121 5.21946 28.445 5.0728 28.619 4.77947C28.793 4.48615 28.8791 4.04616 28.8775 3.45952C28.8775 3.07339 28.8377 2.75189 28.7582 2.49503C28.6803 2.23816 28.5692 2.0451 28.4251 1.91584C28.2826 1.78658 28.1143 1.72195 27.9205 1.72195C27.6304 1.72195 27.3984 1.86695 27.2244 2.15696C27.0504 2.44697 26.9626 2.88116 26.9609 3.45952C26.9609 3.85062 26.9999 4.17708 27.0778 4.43892C27.1573 4.6991 27.2692 4.89465 27.4134 5.02557C27.5575 5.15483 27.7266 5.21946 27.9205 5.21946Z" fill="#078FD0"/>
<path d="M0.412642 78V77.2244L2.22479 75.5465C2.37891 75.3974 2.50817 75.2631 2.61257 75.1438C2.71863 75.0245 2.79901 74.9077 2.85369 74.7933C2.90838 74.6773 2.93572 74.5522 2.93572 74.418C2.93572 74.2688 2.90175 74.1404 2.83381 74.0327C2.76586 73.9233 2.67306 73.8396 2.5554 73.7816C2.43774 73.7219 2.30433 73.6921 2.15518 73.6921C1.99941 73.6921 1.86352 73.7236 1.74751 73.7866C1.63151 73.8496 1.54202 73.9399 1.47905 74.0575C1.41607 74.1752 1.38459 74.3152 1.38459 74.4776H0.362926C0.362926 74.1445 0.438329 73.8554 0.589134 73.6101C0.739938 73.3648 0.951231 73.1751 1.22301 73.0408C1.49479 72.9066 1.808 72.8395 2.16264 72.8395C2.52723 72.8395 2.84458 72.9041 3.1147 73.0334C3.38648 73.161 3.59777 73.3383 3.74858 73.5653C3.89938 73.7924 3.97479 74.0526 3.97479 74.3459C3.97479 74.5381 3.93667 74.7279 3.86044 74.9151C3.78587 75.1024 3.65246 75.3104 3.46023 75.5391C3.26799 75.7661 2.99704 76.0387 2.64737 76.3569L1.90412 77.0852V77.12H4.0419V78H0.412642ZM6.81792 78.1119C6.39036 78.1102 6.02246 78.005 5.71422 77.7962C5.40764 77.5874 5.17149 77.2849 5.00577 76.8888C4.84171 76.4928 4.76051 76.0163 4.76216 75.4595C4.76216 74.9044 4.84419 74.4312 5.00826 74.0401C5.17398 73.649 5.41013 73.3516 5.71671 73.1477C6.02495 72.9422 6.39202 72.8395 6.81792 72.8395C7.24382 72.8395 7.61006 72.9422 7.91664 73.1477C8.22488 73.3532 8.46186 73.6515 8.62757 74.0426C8.79329 74.4321 8.87533 74.9044 8.87367 75.4595C8.87367 76.018 8.79081 76.4953 8.62509 76.8913C8.46103 77.2874 8.2257 77.5898 7.91912 77.7987C7.61254 78.0075 7.24547 78.1119 6.81792 78.1119ZM6.81792 77.2195C7.10958 77.2195 7.34242 77.0728 7.51642 76.7795C7.69043 76.4862 7.7766 76.0462 7.77495 75.4595C7.77495 75.0734 7.73517 74.7519 7.65563 74.495C7.57774 74.2382 7.46671 74.0451 7.32253 73.9158C7.18001 73.7866 7.01181 73.7219 6.81792 73.7219C6.52791 73.7219 6.2959 73.867 6.12189 74.157C5.94789 74.447 5.86006 74.8812 5.8584 75.4595C5.8584 75.8506 5.89734 76.1771 5.97523 76.4389C6.05478 76.6991 6.16664 76.8946 6.31081 77.0256C6.45499 77.1548 6.62402 77.2195 6.81792 77.2195ZM11.6373 78.1119C11.2097 78.1102 10.8418 78.005 10.5336 77.7962C10.227 77.5874 9.99083 77.2849 9.82511 76.8888C9.66104 76.4928 9.57984 76.0163 9.5815 75.4595C9.5815 74.9044 9.66353 74.4312 9.82759 74.0401C9.99331 73.649 10.2295 73.3516 10.536 73.1477C10.8443 72.9422 11.2114 72.8395 11.6373 72.8395C12.0632 72.8395 12.4294 72.9422 12.736 73.1477C13.0442 73.3532 13.2812 73.6515 13.4469 74.0426C13.6126 74.4321 13.6947 74.9044 13.693 75.4595C13.693 76.018 13.6101 76.4953 13.4444 76.8913C13.2804 77.2874 13.045 77.5898 12.7385 77.7987C12.4319 78.0075 12.0648 78.1119 11.6373 78.1119ZM11.6373 77.2195C11.9289 77.2195 12.1618 77.0728 12.3358 76.7795C12.5098 76.4862 12.5959 76.0462 12.5943 75.4595C12.5943 75.0734 12.5545 74.7519 12.475 74.495C12.3971 74.2382 12.286 74.0451 12.1419 73.9158C11.9993 73.7866 11.8311 73.7219 11.6373 73.7219C11.3472 73.7219 11.1152 73.867 10.9412 74.157C10.7672 74.447 10.6794 74.8812 10.6777 75.4595C10.6777 75.8506 10.7167 76.1771 10.7946 76.4389C10.8741 76.6991 10.986 76.8946 11.1301 77.0256C11.2743 77.1548 11.4434 77.2195 11.6373 77.2195ZM18.0767 78.1119C17.6491 78.1102 17.2813 78.005 16.973 77.7962C16.6664 77.5874 16.4303 77.2849 16.2646 76.8888C16.1005 76.4928 16.0193 76.0163 16.021 75.4595C16.021 74.9044 16.103 74.4312 16.267 74.0401C16.4328 73.649 16.6689 73.3516 16.9755 73.1477C17.2837 72.9422 17.6508 72.8395 18.0767 72.8395C18.5026 72.8395 18.8688 72.9422 19.1754 73.1477C19.4837 73.3532 19.7206 73.6515 19.8864 74.0426C20.0521 74.4321 20.1341 74.9044 20.1325 75.4595C20.1325 76.018 20.0496 76.4953 19.8839 76.8913C19.7198 77.2874 19.4845 77.5898 19.1779 77.7987C18.8713 78.0075 18.5043 78.1119 18.0767 78.1119ZM18.0767 77.2195C18.3684 77.2195 18.6012 77.0728 18.7752 76.7795C18.9492 76.4862 19.0354 76.0462 19.0337 75.4595C19.0337 75.0734 18.994 74.7519 18.9144 74.495C18.8365 74.2382 18.7255 74.0451 18.5813 73.9158C18.4388 73.7866 18.2706 73.7219 18.0767 73.7219C17.7867 73.7219 17.5547 73.867 17.3807 74.157C17.2067 74.447 17.1188 74.8812 17.1172 75.4595C17.1172 75.8506 17.1561 76.1771 17.234 76.4389C17.3136 76.6991 17.4254 76.8946 17.5696 77.0256C17.7138 77.1548 17.8828 77.2195 18.0767 77.2195ZM22.896 78.1119C22.4685 78.1102 22.1006 78.005 21.7923 77.7962C21.4858 77.5874 21.2496 77.2849 21.0839 76.8888C20.9198 76.4928 20.8386 76.0163 20.8403 75.4595C20.8403 74.9044 20.9223 74.4312 21.0864 74.0401C21.2521 73.649 21.4883 73.3516 21.7948 73.1477C22.1031 72.9422 22.4701 72.8395 22.896 72.8395C23.3219 72.8395 23.6882 72.9422 23.9948 73.1477C24.303 73.3532 24.54 73.6515 24.7057 74.0426C24.8714 74.4321 24.9535 74.9044 24.9518 75.4595C24.9518 76.018 24.8689 76.4953 24.7032 76.8913C24.5392 77.2874 24.3038 77.5898 23.9972 77.7987C23.6907 78.0075 23.3236 78.1119 22.896 78.1119ZM22.896 77.2195C23.1877 77.2195 23.4205 77.0728 23.5945 76.7795C23.7686 76.4862 23.8547 76.0462 23.8531 75.4595C23.8531 75.0734 23.8133 74.7519 23.7338 74.495C23.6559 74.2382 23.5448 74.0451 23.4007 73.9158C23.2581 73.7866 23.0899 73.7219 22.896 73.7219C22.606 73.7219 22.374 73.867 22.2 74.157C22.026 74.447 21.9382 74.8812 21.9365 75.4595C21.9365 75.8506 21.9755 76.1771 22.0534 76.4389C22.1329 76.6991 22.2448 76.8946 22.3889 77.0256C22.5331 77.1548 22.7021 77.2195 22.896 77.2195ZM27.7154 78.1119C27.2878 78.1102 26.9199 78.005 26.6117 77.7962C26.3051 77.5874 26.069 77.2849 25.9032 76.8888C25.7392 76.4928 25.658 76.0163 25.6596 75.4595C25.6596 74.9044 25.7417 74.4312 25.9057 74.0401C26.0714 73.649 26.3076 73.3516 26.6142 73.1477C26.9224 72.9422 27.2895 72.8395 27.7154 72.8395C28.1413 72.8395 28.5075 72.9422 28.8141 73.1477C29.1223 73.3532 29.3593 73.6515 29.525 74.0426C29.6908 74.4321 29.7728 74.9044 29.7711 75.4595C29.7711 76.018 29.6883 76.4953 29.5225 76.8913C29.3585 77.2874 29.1232 77.5898 28.8166 77.7987C28.51 78.0075 28.1429 78.1119 27.7154 78.1119ZM27.7154 77.2195C28.007 77.2195 28.2399 77.0728 28.4139 76.7795C28.5879 76.4862 28.6741 76.0462 28.6724 75.4595C28.6724 75.0734 28.6326 74.7519 28.5531 74.495C28.4752 74.2382 28.3642 74.0451 28.22 73.9158C28.0775 73.7866 27.9093 73.7219 27.7154 73.7219C27.4254 73.7219 27.1934 73.867 27.0194 74.157C26.8453 74.447 26.7575 74.8812 26.7559 75.4595C26.7559 75.8506 26.7948 76.1771 26.8727 76.4389C26.9522 76.6991 27.0641 76.8946 27.2083 77.0256C27.3525 77.1548 27.5215 77.2195 27.7154 77.2195Z" fill="#078FD0"/>
<path d="M3.62749 144.909V150H2.55114V145.931H2.52131L1.35547 146.662V145.707L2.61577 144.909H3.62749ZM6.83354 150.112C6.40598 150.11 6.03809 150.005 5.72985 149.796C5.42327 149.587 5.18712 149.285 5.0214 148.889C4.85733 148.493 4.77613 148.016 4.77779 147.46C4.77779 146.904 4.85982 146.431 5.02388 146.04C5.1896 145.649 5.42575 145.352 5.73233 145.148C6.04057 144.942 6.40764 144.839 6.83354 144.839C7.25944 144.839 7.62568 144.942 7.93226 145.148C8.2405 145.353 8.47748 145.652 8.6432 146.043C8.80892 146.432 8.89095 146.904 8.88929 147.46C8.88929 148.018 8.80643 148.495 8.64071 148.891C8.47665 149.287 8.24133 149.59 7.93475 149.799C7.62817 150.007 7.2611 150.112 6.83354 150.112ZM6.83354 149.219C7.12521 149.219 7.35804 149.073 7.53205 148.779C7.70605 148.486 7.79223 148.046 7.79057 147.46C7.79057 147.073 7.7508 146.752 7.67125 146.495C7.59337 146.238 7.48233 146.045 7.33816 145.916C7.19564 145.787 7.02743 145.722 6.83354 145.722C6.54353 145.722 6.31152 145.867 6.13752 146.157C5.96351 146.447 5.87568 146.881 5.87402 147.46C5.87402 147.851 5.91297 148.177 5.99086 148.439C6.0704 148.699 6.18226 148.895 6.32644 149.026C6.47061 149.155 6.63965 149.219 6.83354 149.219ZM11.6529 150.112C11.2253 150.11 10.8574 150.005 10.5492 149.796C10.2426 149.587 10.0065 149.285 9.84073 148.889C9.67667 148.493 9.59547 148.016 9.59712 147.46C9.59712 146.904 9.67915 146.431 9.84322 146.04C10.0089 145.649 10.2451 145.352 10.5517 145.148C10.8599 144.942 11.227 144.839 11.6529 144.839C12.0788 144.839 12.445 144.942 12.7516 145.148C13.0598 145.353 13.2968 145.652 13.4625 146.043C13.6283 146.432 13.7103 146.904 13.7086 147.46C13.7086 148.018 13.6258 148.495 13.46 148.891C13.296 149.287 13.0607 149.59 12.7541 149.799C12.4475 150.007 12.0804 150.112 11.6529 150.112ZM11.6529 149.219C11.9445 149.219 12.1774 149.073 12.3514 148.779C12.5254 148.486 12.6116 148.046 12.6099 147.46C12.6099 147.073 12.5701 146.752 12.4906 146.495C12.4127 146.238 12.3017 146.045 12.1575 145.916C12.015 145.787 11.8468 145.722 11.6529 145.722C11.3629 145.722 11.1309 145.867 10.9569 146.157C10.7828 146.447 10.695 146.881 10.6934 147.46C10.6934 147.851 10.7323 148.177 10.8102 148.439C10.8897 148.699 11.0016 148.895 11.1458 149.026C11.29 149.155 11.459 149.219 11.6529 149.219ZM18.0923 150.112C17.6648 150.11 17.2969 150.005 16.9886 149.796C16.6821 149.587 16.4459 149.285 16.2802 148.889C16.1161 148.493 16.0349 148.016 16.0366 147.46C16.0366 146.904 16.1186 146.431 16.2827 146.04C16.4484 145.649 16.6845 145.352 16.9911 145.148C17.2994 144.942 17.6664 144.839 18.0923 144.839C18.5182 144.839 18.8845 144.942 19.1911 145.148C19.4993 145.353 19.7363 145.652 19.902 146.043C20.0677 146.432 20.1497 146.904 20.1481 147.46C20.1481 148.018 20.0652 148.495 19.8995 148.891C19.7354 149.287 19.5001 149.59 19.1935 149.799C18.887 150.007 18.5199 150.112 18.0923 150.112ZM18.0923 149.219C18.384 149.219 18.6168 149.073 18.7908 148.779C18.9648 148.486 19.051 148.046 19.0494 147.46C19.0494 147.073 19.0096 146.752 18.93 146.495C18.8522 146.238 18.7411 146.045 18.5969 145.916C18.4544 145.787 18.2862 145.722 18.0923 145.722C17.8023 145.722 17.5703 145.867 17.3963 146.157C17.2223 146.447 17.1345 146.881 17.1328 147.46C17.1328 147.851 17.1718 148.177 17.2496 148.439C17.3292 148.699 17.4411 148.895 17.5852 149.026C17.7294 149.155 17.8984 149.219 18.0923 149.219ZM22.9117 150.112C22.4841 150.11 22.1162 150.005 21.808 149.796C21.5014 149.587 21.2652 149.285 21.0995 148.889C20.9355 148.493 20.8543 148.016 20.8559 147.46C20.8559 146.904 20.9379 146.431 21.102 146.04C21.2677 145.649 21.5039 145.352 21.8105 145.148C22.1187 144.942 22.4858 144.839 22.9117 144.839C23.3376 144.839 23.7038 144.942 24.0104 145.148C24.3186 145.353 24.5556 145.652 24.7213 146.043C24.887 146.432 24.9691 146.904 24.9674 147.46C24.9674 148.018 24.8846 148.495 24.7188 148.891C24.5548 149.287 24.3195 149.59 24.0129 149.799C23.7063 150.007 23.3392 150.112 22.9117 150.112ZM22.9117 149.219C23.2033 149.219 23.4362 149.073 23.6102 148.779C23.7842 148.486 23.8704 148.046 23.8687 147.46C23.8687 147.073 23.8289 146.752 23.7494 146.495C23.6715 146.238 23.5605 146.045 23.4163 145.916C23.2738 145.787 23.1056 145.722 22.9117 145.722C22.6217 145.722 22.3896 145.867 22.2156 146.157C22.0416 146.447 21.9538 146.881 21.9521 147.46C21.9521 147.851 21.9911 148.177 22.069 148.439C22.1485 148.699 22.2604 148.895 22.4046 149.026C22.5487 149.155 22.7178 149.219 22.9117 149.219ZM27.731 150.112C27.3034 150.11 26.9355 150.005 26.6273 149.796C26.3207 149.587 26.0846 149.285 25.9189 148.889C25.7548 148.493 25.6736 148.016 25.6752 147.46C25.6752 146.904 25.7573 146.431 25.9213 146.04C26.0871 145.649 26.3232 145.352 26.6298 145.148C26.938 144.942 27.3051 144.839 27.731 144.839C28.1569 144.839 28.5231 144.942 28.8297 145.148C29.138 145.353 29.3749 145.652 29.5407 146.043C29.7064 146.432 29.7884 146.904 29.7868 147.46C29.7868 148.018 29.7039 148.495 29.5382 148.891C29.3741 149.287 29.1388 149.59 28.8322 149.799C28.5256 150.007 28.1586 150.112 27.731 150.112ZM27.731 149.219C28.0227 149.219 28.2555 149.073 28.4295 148.779C28.6035 148.486 28.6897 148.046 28.688 147.46C28.688 147.073 28.6483 146.752 28.5687 146.495C28.4908 146.238 28.3798 146.045 28.2356 145.916C28.0931 145.787 27.9249 145.722 27.731 145.722C27.441 145.722 27.209 145.867 27.035 146.157C26.861 146.447 26.7731 146.881 26.7715 147.46C26.7715 147.851 26.8104 148.177 26.8883 148.439C26.9679 148.699 27.0797 148.895 27.2239 149.026C27.3681 149.155 27.5371 149.219 27.731 149.219Z" fill="#078FD0"/>
<path d="M75.7702 228.909V234H74.7063V229.784H72.6481V234H71.5842V228.909H75.7702ZM76.795 234V228.909H77.8714V231.01H80.0564V228.909H81.1302V234H80.0564V231.897H77.8714V234H76.795Z" fill="#078FD0"/>
<path d="M148.442 234V228.909H150.481C150.855 228.909 151.168 228.965 151.418 229.076C151.668 229.187 151.856 229.341 151.982 229.538C152.108 229.734 152.171 229.959 152.171 230.214C152.171 230.413 152.131 230.588 152.052 230.739C151.972 230.888 151.863 231.01 151.724 231.107C151.586 231.201 151.429 231.268 151.251 231.308V231.358C151.445 231.366 151.627 231.421 151.796 231.522C151.967 231.623 152.105 231.764 152.211 231.947C152.317 232.127 152.37 232.343 152.37 232.593C152.37 232.863 152.303 233.104 152.169 233.316C152.036 233.527 151.84 233.693 151.58 233.816C151.319 233.939 150.999 234 150.618 234H148.442ZM149.519 233.12H150.396C150.696 233.12 150.915 233.063 151.053 232.949C151.19 232.833 151.259 232.678 151.259 232.486C151.259 232.345 151.225 232.221 151.157 232.113C151.089 232.006 150.992 231.921 150.866 231.86C150.742 231.798 150.594 231.768 150.421 231.768H149.519V233.12ZM149.519 231.039H150.317C150.464 231.039 150.595 231.014 150.71 230.962C150.826 230.909 150.917 230.835 150.983 230.739C151.051 230.643 151.085 230.527 151.085 230.393C151.085 230.209 151.019 230.061 150.888 229.948C150.759 229.835 150.575 229.779 150.337 229.779H149.519V231.039ZM152.877 229.797V228.909H157.058V229.797H155.499V234H154.435V229.797H152.877Z" fill="#078FD0"/>
<path d="M229.934 230.691H228.846C228.826 230.551 228.785 230.425 228.724 230.316C228.662 230.205 228.584 230.111 228.488 230.033C228.391 229.955 228.28 229.895 228.154 229.854C228.03 229.812 227.895 229.792 227.749 229.792C227.486 229.792 227.256 229.857 227.061 229.988C226.865 230.117 226.714 230.306 226.606 230.555C226.498 230.802 226.444 231.102 226.444 231.455C226.444 231.817 226.498 232.122 226.606 232.369C226.715 232.616 226.868 232.803 227.063 232.929C227.259 233.055 227.485 233.118 227.742 233.118C227.886 233.118 228.019 233.098 228.142 233.06C228.266 233.022 228.377 232.967 228.473 232.894C228.569 232.819 228.648 232.729 228.711 232.623C228.776 232.517 228.821 232.396 228.846 232.26L229.934 232.265C229.906 232.499 229.836 232.724 229.723 232.941C229.612 233.156 229.462 233.35 229.273 233.52C229.086 233.689 228.862 233.824 228.602 233.923C228.343 234.021 228.051 234.07 227.724 234.07C227.27 234.07 226.864 233.967 226.506 233.761C226.15 233.556 225.868 233.258 225.661 232.869C225.456 232.48 225.353 232.008 225.353 231.455C225.353 230.899 225.457 230.427 225.666 230.038C225.875 229.648 226.158 229.352 226.516 229.148C226.874 228.942 227.277 228.839 227.724 228.839C228.019 228.839 228.293 228.881 228.545 228.964C228.798 229.047 229.023 229.168 229.218 229.327C229.414 229.484 229.573 229.677 229.696 229.906C229.82 230.135 229.9 230.396 229.934 230.691ZM230.706 234V228.909H232.715C233.101 228.909 233.43 228.983 233.702 229.13C233.973 229.276 234.18 229.479 234.323 229.739C234.467 229.998 234.539 230.296 234.539 230.634C234.539 230.972 234.466 231.271 234.32 231.529C234.175 231.788 233.963 231.989 233.687 232.133C233.412 232.277 233.078 232.349 232.687 232.349H231.407V231.487H232.513C232.72 231.487 232.891 231.451 233.025 231.38C233.161 231.307 233.262 231.207 233.329 231.079C233.397 230.95 233.431 230.802 233.431 230.634C233.431 230.465 233.397 230.318 233.329 230.192C233.262 230.064 233.161 229.966 233.025 229.896C232.89 229.825 232.717 229.789 232.508 229.789H231.782V234H230.706Z" fill="#078FD0"/>
<path d="M315.649 228.909H316.695V230.55C316.695 230.745 316.729 230.903 316.797 231.022C316.865 231.14 316.97 231.225 317.113 231.278C317.257 231.329 317.442 231.355 317.667 231.355C317.747 231.355 317.84 231.353 317.948 231.348C318.056 231.341 318.167 231.332 318.281 231.32C318.397 231.309 318.507 231.295 318.609 231.278C318.712 231.261 318.797 231.242 318.865 231.221V232.071C318.796 232.094 318.709 232.115 318.604 232.133C318.502 232.15 318.393 232.165 318.279 232.178C318.164 232.19 318.053 232.199 317.946 232.205C317.838 232.212 317.745 232.215 317.667 232.215C317.258 232.215 316.902 232.157 316.598 232.041C316.295 231.924 316.061 231.742 315.895 231.497C315.731 231.252 315.649 230.936 315.649 230.55V228.909ZM318.679 228.909H319.73V234H318.679V228.909ZM320.601 229.797V228.909H324.782V229.797H323.224V234H322.16V229.797H320.601Z" fill="#078FD0"/>
<path d="M396.77 228.909V234H395.706V229.784H393.648V234H392.584V228.909H396.77ZM397.601 229.797V228.909H401.782V229.797H400.224V234H399.16V229.797H397.601Z" fill="#078FD0"/>
<path d="M474.934 230.691H473.846C473.826 230.551 473.785 230.425 473.724 230.316C473.662 230.205 473.584 230.111 473.488 230.033C473.391 229.955 473.28 229.895 473.154 229.854C473.03 229.812 472.895 229.792 472.749 229.792C472.486 229.792 472.256 229.857 472.061 229.988C471.865 230.117 471.714 230.306 471.606 230.555C471.498 230.802 471.444 231.102 471.444 231.455C471.444 231.817 471.498 232.122 471.606 232.369C471.715 232.616 471.868 232.803 472.063 232.929C472.259 233.055 472.485 233.118 472.742 233.118C472.886 233.118 473.019 233.098 473.142 233.06C473.266 233.022 473.377 232.967 473.473 232.894C473.569 232.819 473.648 232.729 473.711 232.623C473.776 232.517 473.821 232.396 473.846 232.26L474.934 232.265C474.906 232.499 474.836 232.724 474.723 232.941C474.612 233.156 474.462 233.35 474.273 233.52C474.086 233.689 473.862 233.824 473.602 233.923C473.343 234.021 473.051 234.07 472.724 234.07C472.27 234.07 471.864 233.967 471.506 233.761C471.15 233.556 470.868 233.258 470.661 232.869C470.456 232.48 470.353 232.008 470.353 231.455C470.353 230.899 470.457 230.427 470.666 230.038C470.875 229.648 471.158 229.352 471.516 229.148C471.874 228.942 472.277 228.839 472.724 228.839C473.019 228.839 473.293 228.881 473.545 228.964C473.798 229.047 474.023 229.168 474.218 229.327C474.414 229.484 474.573 229.677 474.696 229.906C474.82 230.135 474.9 230.396 474.934 230.691ZM475.706 234V228.909H479.084V229.797H476.782V230.791H477.61C478.013 230.791 478.36 230.856 478.652 230.987C478.945 231.116 479.171 231.3 479.33 231.537C479.49 231.774 479.569 232.053 479.569 232.374C479.569 232.694 479.49 232.977 479.33 233.222C479.171 233.466 478.945 233.656 478.652 233.794C478.36 233.931 478.013 234 477.61 234H475.706ZM476.782 233.135H477.61C477.802 233.135 477.965 233.1 478.097 233.031C478.23 232.959 478.33 232.866 478.398 232.75C478.468 232.632 478.503 232.504 478.503 232.364C478.503 232.162 478.426 231.991 478.271 231.852C478.119 231.711 477.899 231.641 477.61 231.641H476.782V233.135Z" fill="#078FD0"/>
<path d="M0.412642 24V23.2244L2.22479 21.5465C2.37891 21.3974 2.50817 21.2631 2.61257 21.1438C2.71863 21.0245 2.79901 20.9077 2.85369 20.7933C2.90838 20.6773 2.93572 20.5522 2.93572 20.418C2.93572 20.2688 2.90175 20.1404 2.83381 20.0327C2.76586 19.9233 2.67306 19.8396 2.5554 19.7816C2.43774 19.7219 2.30433 19.6921 2.15518 19.6921C1.99941 19.6921 1.86352 19.7236 1.74751 19.7866C1.63151 19.8496 1.54202 19.9399 1.47905 20.0575C1.41607 20.1752 1.38459 20.3152 1.38459 20.4776H0.362926C0.362926 20.1445 0.438329 19.8554 0.589134 19.6101C0.739938 19.3648 0.951231 19.1751 1.22301 19.0408C1.49479 18.9066 1.808 18.8395 2.16264 18.8395C2.52723 18.8395 2.84458 18.9041 3.1147 19.0334C3.38648 19.161 3.59777 19.3383 3.74858 19.5653C3.89938 19.7924 3.97479 20.0526 3.97479 20.3459C3.97479 20.5381 3.93667 20.7279 3.86044 20.9151C3.78587 21.1024 3.65246 21.3104 3.46023 21.5391C3.26799 21.7661 2.99704 22.0387 2.64737 22.3569L1.90412 23.0852V23.12H4.0419V24H0.412642ZM5.02317 24L7.13361 19.8239V19.7891H4.67516V18.9091H8.24725V19.8015L6.13432 24H5.02317ZM10.7759 24.0696C10.4246 24.0696 10.1114 24.005 9.83629 23.8757C9.56286 23.7464 9.34576 23.5683 9.18501 23.3413C9.02427 23.1142 8.94058 22.854 8.93395 22.5607H9.97798C9.98958 22.7579 10.0724 22.9179 10.2266 23.0405C10.3807 23.1631 10.5638 23.2244 10.7759 23.2244C10.945 23.2244 11.0941 23.1871 11.2234 23.1126C11.3543 23.0363 11.4562 22.9311 11.5291 22.7969C11.6037 22.661 11.641 22.5052 11.641 22.3295C11.641 22.1506 11.6029 21.9931 11.5266 21.8572C11.4521 21.7214 11.3485 21.6153 11.2159 21.5391C11.0833 21.4628 10.9317 21.4239 10.761 21.4222C10.6119 21.4222 10.4669 21.4529 10.326 21.5142C10.1868 21.5755 10.0782 21.6592 10.0004 21.7653L9.04332 21.5938L9.28445 18.9091H12.3967V19.7891H10.1719L10.0401 21.0643H10.07C10.1594 20.9383 10.2945 20.8339 10.4751 20.7511C10.6558 20.6682 10.858 20.6268 11.0817 20.6268C11.3883 20.6268 11.6617 20.6989 11.902 20.843C12.1423 20.9872 12.332 21.1853 12.4712 21.4371C12.6104 21.6874 12.6792 21.9757 12.6776 22.3022C12.6792 22.6452 12.5997 22.9502 12.4389 23.217C12.2798 23.4821 12.0569 23.6909 11.7702 23.8434C11.4852 23.9942 11.1538 24.0696 10.7759 24.0696ZM17.0445 24.1119C16.6169 24.1102 16.249 24.005 15.9408 23.7962C15.6342 23.5874 15.3981 23.2849 15.2323 22.8888C15.0683 22.4928 14.9871 22.0163 14.9887 21.4595C14.9887 20.9044 15.0708 20.4312 15.2348 20.0401C15.4005 19.649 15.6367 19.3516 15.9433 19.1477C16.2515 18.9422 16.6186 18.8395 17.0445 18.8395C17.4704 18.8395 17.8366 18.9422 18.1432 19.1477C18.4514 19.3532 18.6884 19.6515 18.8541 20.0426C19.0199 20.4321 19.1019 20.9044 19.1002 21.4595C19.1002 22.018 19.0174 22.4953 18.8517 22.8913C18.6876 23.2874 18.4523 23.5898 18.1457 23.7987C17.8391 24.0075 17.472 24.1119 17.0445 24.1119ZM17.0445 23.2195C17.3361 23.2195 17.569 23.0728 17.743 22.7795C17.917 22.4862 18.0032 22.0462 18.0015 21.4595C18.0015 21.0734 17.9617 20.7519 17.8822 20.495C17.8043 20.2382 17.6933 20.0451 17.5491 19.9158C17.4066 19.7866 17.2384 19.7219 17.0445 19.7219C16.7545 19.7219 16.5225 19.867 16.3485 20.157C16.1744 20.447 16.0866 20.8812 16.085 21.4595C16.085 21.8506 16.1239 22.1771 16.2018 22.4389C16.2813 22.6991 16.3932 22.8946 16.5374 23.0256C16.6816 23.1548 16.8506 23.2195 17.0445 23.2195ZM21.8638 24.1119C21.4363 24.1102 21.0684 24.005 20.7601 23.7962C20.4535 23.5874 20.2174 23.2849 20.0517 22.8888C19.8876 22.4928 19.8064 22.0163 19.8081 21.4595C19.8081 20.9044 19.8901 20.4312 20.0542 20.0401C20.2199 19.649 20.456 19.3516 20.7626 19.1477C21.0708 18.9422 21.4379 18.8395 21.8638 18.8395C22.2897 18.8395 22.656 18.9422 22.9625 19.1477C23.2708 19.3532 23.5078 19.6515 23.6735 20.0426C23.8392 20.4321 23.9212 20.9044 23.9196 21.4595C23.9196 22.018 23.8367 22.4953 23.671 22.8913C23.5069 23.2874 23.2716 23.5898 22.965 23.7987C22.6584 24.0075 22.2914 24.1119 21.8638 24.1119ZM21.8638 23.2195C22.1555 23.2195 22.3883 23.0728 22.5623 22.7795C22.7363 22.4862 22.8225 22.0462 22.8208 21.4595C22.8208 21.0734 22.7811 20.7519 22.7015 20.495C22.6236 20.2382 22.5126 20.0451 22.3684 19.9158C22.2259 19.7866 22.0577 19.7219 21.8638 19.7219C21.5738 19.7219 21.3418 19.867 21.1678 20.157C20.9938 20.447 20.906 20.8812 20.9043 21.4595C20.9043 21.8506 20.9432 22.1771 21.0211 22.4389C21.1007 22.6991 21.2125 22.8946 21.3567 23.0256C21.5009 23.1548 21.6699 23.2195 21.8638 23.2195ZM26.6831 24.1119C26.2556 24.1102 25.8877 24.005 25.5795 23.7962C25.2729 23.5874 25.0367 23.2849 24.871 22.8888C24.7069 22.4928 24.6257 22.0163 24.6274 21.4595C24.6274 20.9044 24.7094 20.4312 24.8735 20.0401C25.0392 19.649 25.2754 19.3516 25.5819 19.1477C25.8902 18.9422 26.2573 18.8395 26.6831 18.8395C27.109 18.8395 27.4753 18.9422 27.7819 19.1477C28.0901 19.3532 28.3271 19.6515 28.4928 20.0426C28.6585 20.4321 28.7406 20.9044 28.7389 21.4595C28.7389 22.018 28.656 22.4953 28.4903 22.8913C28.3263 23.2874 28.0909 23.5898 27.7844 23.7987C27.4778 24.0075 27.1107 24.1119 26.6831 24.1119ZM26.6831 23.2195C26.9748 23.2195 27.2077 23.0728 27.3817 22.7795C27.5557 22.4862 27.6418 22.0462 27.6402 21.4595C27.6402 21.0734 27.6004 20.7519 27.5209 20.495C27.443 20.2382 27.3319 20.0451 27.1878 19.9158C27.0452 19.7866 26.877 19.7219 26.6831 19.7219C26.3931 19.7219 26.1611 19.867 25.9871 20.157C25.8131 20.447 25.7253 20.8812 25.7236 21.4595C25.7236 21.8506 25.7626 22.1771 25.8405 22.4389C25.92 22.6991 26.0319 22.8946 26.176 23.0256C26.3202 23.1548 26.4893 23.2195 26.6831 23.2195Z" fill="#8BCEEE"/>
<path d="M1.41264 42V41.2244L3.22479 39.5465C3.37891 39.3974 3.50817 39.2631 3.61257 39.1438C3.71863 39.0245 3.79901 38.9077 3.85369 38.7933C3.90838 38.6773 3.93572 38.5522 3.93572 38.418C3.93572 38.2688 3.90175 38.1404 3.83381 38.0327C3.76586 37.9233 3.67306 37.8396 3.5554 37.7816C3.43774 37.7219 3.30433 37.6921 3.15518 37.6921C2.99941 37.6921 2.86352 37.7236 2.74751 37.7866C2.63151 37.8496 2.54202 37.9399 2.47905 38.0575C2.41607 38.1752 2.38459 38.3152 2.38459 38.4776H1.36293C1.36293 38.1445 1.43833 37.8554 1.58913 37.6101C1.73994 37.3648 1.95123 37.1751 2.22301 37.0408C2.49479 36.9066 2.808 36.8395 3.16264 36.8395C3.52723 36.8395 3.84458 36.9041 4.1147 37.0334C4.38648 37.161 4.59777 37.3383 4.74858 37.5653C4.89938 37.7924 4.97479 38.0526 4.97479 38.3459C4.97479 38.5381 4.93667 38.7279 4.86044 38.9151C4.78587 39.1024 4.65246 39.3104 4.46023 39.5391C4.26799 39.7661 3.99704 40.0387 3.64737 40.3569L2.90412 41.0852V41.12H5.0419V42H1.41264ZM7.6812 42.0696C7.32987 42.0696 7.01666 42.005 6.74157 41.8757C6.46813 41.7464 6.25104 41.5683 6.09029 41.3413C5.92954 41.1142 5.84585 40.854 5.83922 40.5607H6.88326C6.89486 40.7579 6.97772 40.9179 7.13184 41.0405C7.28596 41.1631 7.46908 41.2244 7.6812 41.2244C7.85023 41.2244 7.99938 41.1871 8.12864 41.1126C8.25956 41.0363 8.36148 40.9311 8.43439 40.7969C8.50897 40.661 8.54625 40.5052 8.54625 40.3295C8.54625 40.1506 8.50814 39.9931 8.43191 39.8572C8.35733 39.7214 8.25376 39.6153 8.12118 39.5391C7.98861 39.4628 7.83697 39.4239 7.66628 39.4222C7.51713 39.4222 7.37213 39.4529 7.23127 39.5142C7.09206 39.5755 6.98352 39.6592 6.90563 39.7653L5.9486 39.5938L6.18972 36.9091H9.30194V37.7891H7.07715L6.9454 39.0643H6.97523C7.06472 38.9383 7.19978 38.8339 7.38042 38.7511C7.56105 38.6682 7.76323 38.6268 7.98695 38.6268C8.29353 38.6268 8.56697 38.6989 8.80726 38.843C9.04756 38.9872 9.2373 39.1853 9.37651 39.4371C9.51571 39.6874 9.58449 39.9757 9.58283 40.3022C9.58449 40.6452 9.50494 40.9502 9.34419 41.217C9.1851 41.4821 8.96221 41.6909 8.67552 41.8434C8.39048 41.9942 8.05904 42.0696 7.6812 42.0696ZM12.3296 42.1119C11.9021 42.1102 11.5342 42.005 11.2259 41.7962C10.9194 41.5874 10.6832 41.2849 10.5175 40.8888C10.3534 40.4928 10.2722 40.0163 10.2739 39.4595C10.2739 38.9044 10.3559 38.4312 10.52 38.0401C10.6857 37.649 10.9218 37.3516 11.2284 37.1477C11.5367 36.9422 11.9037 36.8395 12.3296 36.8395C12.7555 36.8395 13.1218 36.9422 13.4284 37.1477C13.7366 37.3532 13.9736 37.6515 14.1393 38.0426C14.305 38.4321 14.387 38.9044 14.3854 39.4595C14.3854 40.018 14.3025 40.4953 14.1368 40.8913C13.9727 41.2874 13.7374 41.5898 13.4308 41.7987C13.1243 42.0075 12.7572 42.1119 12.3296 42.1119ZM12.3296 41.2195C12.6213 41.2195 12.8541 41.0728 13.0281 40.7795C13.2021 40.4862 13.2883 40.0462 13.2867 39.4595C13.2867 39.0734 13.2469 38.7519 13.1673 38.495C13.0895 38.2382 12.9784 38.0451 12.8343 37.9158C12.6917 37.7866 12.5235 37.7219 12.3296 37.7219C12.0396 37.7219 11.8076 37.867 11.6336 38.157C11.4596 38.447 11.3718 38.8812 11.3701 39.4595C11.3701 39.8506 11.4091 40.1771 11.4869 40.4389C11.5665 40.6991 11.6784 40.8946 11.8225 41.0256C11.9667 41.1548 12.1357 41.2195 12.3296 41.2195ZM18.7691 42.1119C18.3415 42.1102 17.9736 42.005 17.6654 41.7962C17.3588 41.5874 17.1227 41.2849 16.9569 40.8888C16.7929 40.4928 16.7117 40.0163 16.7133 39.4595C16.7133 38.9044 16.7954 38.4312 16.9594 38.0401C17.1251 37.649 17.3613 37.3516 17.6679 37.1477C17.9761 36.9422 18.3432 36.8395 18.7691 36.8395C19.195 36.8395 19.5612 36.9422 19.8678 37.1477C20.176 37.3532 20.413 37.6515 20.5787 38.0426C20.7445 38.4321 20.8265 38.9044 20.8248 39.4595C20.8248 40.018 20.742 40.4953 20.5763 40.8913C20.4122 41.2874 20.1769 41.5898 19.8703 41.7987C19.5637 42.0075 19.1966 42.1119 18.7691 42.1119ZM18.7691 41.2195C19.0608 41.2195 19.2936 41.0728 19.4676 40.7795C19.6416 40.4862 19.7278 40.0462 19.7261 39.4595C19.7261 39.0734 19.6863 38.7519 19.6068 38.495C19.5289 38.2382 19.4179 38.0451 19.2737 37.9158C19.1312 37.7866 18.963 37.7219 18.7691 37.7219C18.4791 37.7219 18.2471 37.867 18.0731 38.157C17.8991 38.447 17.8112 38.8812 17.8096 39.4595C17.8096 39.8506 17.8485 40.1771 17.9264 40.4389C18.0059 40.6991 18.1178 40.8946 18.262 41.0256C18.4062 41.1548 18.5752 41.2195 18.7691 41.2195ZM23.5884 42.1119C23.1609 42.1102 22.793 42.005 22.4847 41.7962C22.1781 41.5874 21.942 41.2849 21.7763 40.8888C21.6122 40.4928 21.531 40.0163 21.5327 39.4595C21.5327 38.9044 21.6147 38.4312 21.7788 38.0401C21.9445 37.649 22.1806 37.3516 22.4872 37.1477C22.7955 36.9422 23.1625 36.8395 23.5884 36.8395C24.0143 36.8395 24.3806 36.9422 24.6871 37.1477C24.9954 37.3532 25.2324 37.6515 25.3981 38.0426C25.5638 38.4321 25.6458 38.9044 25.6442 39.4595C25.6442 40.018 25.5613 40.4953 25.3956 40.8913C25.2315 41.2874 24.9962 41.5898 24.6896 41.7987C24.383 42.0075 24.016 42.1119 23.5884 42.1119ZM23.5884 41.2195C23.8801 41.2195 24.1129 41.0728 24.2869 40.7795C24.4609 40.4862 24.5471 40.0462 24.5455 39.4595C24.5455 39.0734 24.5057 38.7519 24.4261 38.495C24.3482 38.2382 24.2372 38.0451 24.093 37.9158C23.9505 37.7866 23.7823 37.7219 23.5884 37.7219C23.2984 37.7219 23.0664 37.867 22.8924 38.157C22.7184 38.447 22.6306 38.8812 22.6289 39.4595C22.6289 39.8506 22.6679 40.1771 22.7457 40.4389C22.8253 40.6991 22.9371 40.8946 23.0813 41.0256C23.2255 41.1548 23.3945 41.2195 23.5884 41.2195ZM28.4078 42.1119C27.9802 42.1102 27.6123 42.005 27.3041 41.7962C26.9975 41.5874 26.7613 41.2849 26.5956 40.8888C26.4316 40.4928 26.3503 40.0163 26.352 39.4595C26.352 38.9044 26.434 38.4312 26.5981 38.0401C26.7638 37.649 27 37.3516 27.3066 37.1477C27.6148 36.9422 27.9819 36.8395 28.4078 36.8395C28.8337 36.8395 29.1999 36.9422 29.5065 37.1477C29.8147 37.3532 30.0517 37.6515 30.2174 38.0426C30.3831 38.4321 30.4652 38.9044 30.4635 39.4595C30.4635 40.018 30.3807 40.4953 30.2149 40.8913C30.0509 41.2874 29.8155 41.5898 29.509 41.7987C29.2024 42.0075 28.8353 42.1119 28.4078 42.1119ZM28.4078 41.2195C28.6994 41.2195 28.9323 41.0728 29.1063 40.7795C29.2803 40.4862 29.3664 40.0462 29.3648 39.4595C29.3648 39.0734 29.325 38.7519 29.2455 38.495C29.1676 38.2382 29.0566 38.0451 28.9124 37.9158C28.7699 37.7866 28.6017 37.7219 28.4078 37.7219C28.1177 37.7219 27.8857 37.867 27.7117 38.157C27.5377 38.447 27.4499 38.8812 27.4482 39.4595C27.4482 39.8506 27.4872 40.1771 27.5651 40.4389C27.6446 40.6991 27.7565 40.8946 27.9007 41.0256C28.0448 41.1548 28.2139 41.2195 28.4078 41.2195Z" fill="#8BCEEE"/>
<path d="M1.41264 60V59.2244L3.22479 57.5465C3.37891 57.3974 3.50817 57.2631 3.61257 57.1438C3.71863 57.0245 3.79901 56.9077 3.85369 56.7933C3.90838 56.6773 3.93572 56.5522 3.93572 56.418C3.93572 56.2688 3.90175 56.1404 3.83381 56.0327C3.76586 55.9233 3.67306 55.8396 3.5554 55.7816C3.43774 55.7219 3.30433 55.6921 3.15518 55.6921C2.99941 55.6921 2.86352 55.7236 2.74751 55.7866C2.63151 55.8496 2.54202 55.9399 2.47905 56.0575C2.41607 56.1752 2.38459 56.3152 2.38459 56.4776H1.36293C1.36293 56.1445 1.43833 55.8554 1.58913 55.6101C1.73994 55.3648 1.95123 55.1751 2.22301 55.0408C2.49479 54.9066 2.808 54.8395 3.16264 54.8395C3.52723 54.8395 3.84458 54.9041 4.1147 55.0334C4.38648 55.161 4.59777 55.3383 4.74858 55.5653C4.89938 55.7924 4.97479 56.0526 4.97479 56.3459C4.97479 56.5381 4.93667 56.7279 4.86044 56.9151C4.78587 57.1024 4.65246 57.3104 4.46023 57.5391C4.26799 57.7661 3.99704 58.0387 3.64737 58.3569L2.90412 59.0852V59.12H5.0419V60H1.41264ZM5.82182 60V59.2244L7.63397 57.5465C7.78809 57.3974 7.91735 57.2631 8.02175 57.1438C8.12781 57.0245 8.20819 56.9077 8.26287 56.7933C8.31756 56.6773 8.3449 56.5522 8.3449 56.418C8.3449 56.2688 8.31093 56.1404 8.24299 56.0327C8.17504 55.9233 8.08224 55.8396 7.96458 55.7816C7.84692 55.7219 7.71351 55.6921 7.56436 55.6921C7.40859 55.6921 7.2727 55.7236 7.15669 55.7866C7.04069 55.8496 6.9512 55.9399 6.88823 56.0575C6.82525 56.1752 6.79377 56.3152 6.79377 56.4776H5.77211C5.77211 56.1445 5.84751 55.8554 5.99831 55.6101C6.14912 55.3648 6.36041 55.1751 6.63219 55.0408C6.90397 54.9066 7.21718 54.8395 7.57182 54.8395C7.93641 54.8395 8.25376 54.9041 8.52388 55.0334C8.79566 55.161 9.00695 55.3383 9.15776 55.5653C9.30856 55.7924 9.38397 56.0526 9.38397 56.3459C9.38397 56.5381 9.34585 56.7279 9.26962 56.9151C9.19505 57.1024 9.06164 57.3104 8.86941 57.5391C8.67717 57.7661 8.40622 58.0387 8.05655 58.3569L7.3133 59.0852V59.12H9.45108V60H5.82182ZM12.0904 60.0696C11.7391 60.0696 11.4258 60.005 11.1507 59.8757C10.8773 59.7464 10.6602 59.5683 10.4995 59.3413C10.3387 59.1142 10.255 58.854 10.2484 58.5607H11.2924C11.304 58.7579 11.3869 58.9179 11.541 59.0405C11.6951 59.1631 11.8783 59.2244 12.0904 59.2244C12.2594 59.2244 12.4086 59.1871 12.5378 59.1126C12.6687 59.0363 12.7707 58.9311 12.8436 58.7969C12.9181 58.661 12.9554 58.5052 12.9554 58.3295C12.9554 58.1506 12.9173 57.9931 12.8411 57.8572C12.7665 57.7214 12.6629 57.6153 12.5304 57.5391C12.3978 57.4628 12.2462 57.4239 12.0755 57.4222C11.9263 57.4222 11.7813 57.4529 11.6404 57.5142C11.5012 57.5755 11.3927 57.6592 11.3148 57.7653L10.3578 57.5938L10.5989 54.9091H13.7111V55.7891H11.4863L11.3546 57.0643H11.3844C11.4739 56.9383 11.609 56.8339 11.7896 56.7511C11.9702 56.6682 12.1724 56.6268 12.3961 56.6268C12.7027 56.6268 12.9761 56.6989 13.2164 56.843C13.4567 56.9872 13.6465 57.1853 13.7857 57.4371C13.9249 57.6874 13.9937 57.9757 13.992 58.3022C13.9937 58.6452 13.9141 58.9502 13.7534 59.217C13.5943 59.4821 13.3714 59.6909 13.0847 59.8434C12.7997 59.9942 12.4682 60.0696 12.0904 60.0696ZM18.3589 60.1119C17.9314 60.1102 17.5635 60.005 17.2552 59.7962C16.9487 59.5874 16.7125 59.2849 16.5468 58.8888C16.3827 58.4928 16.3015 58.0163 16.3032 57.4595C16.3032 56.9044 16.3852 56.4312 16.5493 56.0401C16.715 55.649 16.9511 55.3516 17.2577 55.1477C17.566 54.9422 17.933 54.8395 18.3589 54.8395C18.7848 54.8395 19.1511 54.9422 19.4577 55.1477C19.7659 55.3532 20.0029 55.6515 20.1686 56.0426C20.3343 56.4321 20.4163 56.9044 20.4147 57.4595C20.4147 58.018 20.3318 58.4953 20.1661 58.8913C20.002 59.2874 19.7667 59.5898 19.4601 59.7987C19.1536 60.0075 18.7865 60.1119 18.3589 60.1119ZM18.3589 59.2195C18.6506 59.2195 18.8834 59.0728 19.0574 58.7795C19.2314 58.4862 19.3176 58.0462 19.316 57.4595C19.316 57.0734 19.2762 56.7519 19.1966 56.495C19.1188 56.2382 19.0077 56.0451 18.8635 55.9158C18.721 55.7866 18.5528 55.7219 18.3589 55.7219C18.0689 55.7219 17.8369 55.867 17.6629 56.157C17.4889 56.447 17.4011 56.8812 17.3994 57.4595C17.3994 57.8506 17.4384 58.1771 17.5162 58.4389C17.5958 58.6991 17.7077 58.8946 17.8518 59.0256C17.996 59.1548 18.165 59.2195 18.3589 59.2195ZM23.1783 60.1119C22.7507 60.1102 22.3828 60.005 22.0746 59.7962C21.768 59.5874 21.5318 59.2849 21.3661 58.8888C21.2021 58.4928 21.1209 58.0163 21.1225 57.4595C21.1225 56.9044 21.2045 56.4312 21.3686 56.0401C21.5343 55.649 21.7705 55.3516 22.0771 55.1477C22.3853 54.9422 22.7524 54.8395 23.1783 54.8395C23.6042 54.8395 23.9704 54.9422 24.277 55.1477C24.5852 55.3532 24.8222 55.6515 24.9879 56.0426C25.1536 56.4321 25.2357 56.9044 25.234 57.4595C25.234 58.018 25.1512 58.4953 24.9854 58.8913C24.8214 59.2874 24.5861 59.5898 24.2795 59.7987C23.9729 60.0075 23.6058 60.1119 23.1783 60.1119ZM23.1783 59.2195C23.4699 59.2195 23.7028 59.0728 23.8768 58.7795C24.0508 58.4862 24.137 58.0462 24.1353 57.4595C24.1353 57.0734 24.0955 56.7519 24.016 56.495C23.9381 56.2382 23.8271 56.0451 23.6829 55.9158C23.5404 55.7866 23.3722 55.7219 23.1783 55.7219C22.8883 55.7219 22.6563 55.867 22.4822 56.157C22.3082 56.447 22.2204 56.8812 22.2188 57.4595C22.2188 57.8506 22.2577 58.1771 22.3356 58.4389C22.4151 58.6991 22.527 58.8946 22.6712 59.0256C22.8153 59.1548 22.9844 59.2195 23.1783 59.2195ZM27.9976 60.1119C27.57 60.1102 27.2021 60.005 26.8939 59.7962C26.5873 59.5874 26.3512 59.2849 26.1855 58.8888C26.0214 58.4928 25.9402 58.0163 25.9419 57.4595C25.9419 56.9044 26.0239 56.4312 26.1879 56.0401C26.3537 55.649 26.5898 55.3516 26.8964 55.1477C27.2046 54.9422 27.5717 54.8395 27.9976 54.8395C28.4235 54.8395 28.7897 54.9422 29.0963 55.1477C29.4046 55.3532 29.6415 55.6515 29.8073 56.0426C29.973 56.4321 30.055 56.9044 30.0534 57.4595C30.0534 58.018 29.9705 58.4953 29.8048 58.8913C29.6407 59.2874 29.4054 59.5898 29.0988 59.7987C28.7922 60.0075 28.4252 60.1119 27.9976 60.1119ZM27.9976 59.2195C28.2893 59.2195 28.5221 59.0728 28.6961 58.7795C28.8701 58.4862 28.9563 58.0462 28.9546 57.4595C28.9546 57.0734 28.9149 56.7519 28.8353 56.495C28.7574 56.2382 28.6464 56.0451 28.5022 55.9158C28.3597 55.7866 28.1915 55.7219 27.9976 55.7219C27.7076 55.7219 27.4756 55.867 27.3016 56.157C27.1276 56.447 27.0397 56.8812 27.0381 57.4595C27.0381 57.8506 27.077 58.1771 27.1549 58.4389C27.2345 58.6991 27.3463 58.8946 27.4905 59.0256C27.6347 59.1548 27.8037 59.2195 27.9976 59.2195Z" fill="#8BCEEE"/>
<path d="M4.62749 90.9091V96H3.55114V91.9308H3.52131L2.35547 92.6616V91.707L3.61577 90.9091H4.62749ZM6.0388 96L8.14924 91.8239V91.7891H5.69078V90.9091H9.26287V91.8015L7.14995 96H6.0388ZM11.7915 96.0696C11.4402 96.0696 11.127 96.005 10.8519 95.8757C10.5785 95.7464 10.3614 95.5683 10.2006 95.3413C10.0399 95.1142 9.9562 94.854 9.94957 94.5607H10.9936C11.0052 94.7579 11.0881 94.9179 11.2422 95.0405C11.3963 95.1631 11.5794 95.2244 11.7915 95.2244C11.9606 95.2244 12.1097 95.1871 12.239 95.1126C12.3699 95.0363 12.4718 94.9311 12.5447 94.7969C12.6193 94.661 12.6566 94.5052 12.6566 94.3295C12.6566 94.1506 12.6185 93.9931 12.5423 93.8572C12.4677 93.7214 12.3641 93.6153 12.2315 93.5391C12.099 93.4628 11.9473 93.4239 11.7766 93.4222C11.6275 93.4222 11.4825 93.4529 11.3416 93.5142C11.2024 93.5755 11.0939 93.6592 11.016 93.7653L10.0589 93.5938L10.3001 90.9091H13.4123V91.7891H11.1875L11.0558 93.0643H11.0856C11.1751 92.9383 11.3101 92.8339 11.4908 92.7511C11.6714 92.6682 11.8736 92.6268 12.0973 92.6268C12.4039 92.6268 12.6773 92.6989 12.9176 92.843C13.1579 92.9872 13.3477 93.1853 13.4869 93.4371C13.6261 93.6874 13.6948 93.9757 13.6932 94.3022C13.6948 94.6452 13.6153 94.9502 13.4545 95.217C13.2955 95.4821 13.0726 95.6909 12.7859 95.8434C12.5008 95.9942 12.1694 96.0696 11.7915 96.0696ZM18.0601 96.1119C17.6325 96.1102 17.2646 96.005 16.9564 95.7962C16.6498 95.5874 16.4137 95.2849 16.248 94.8888C16.0839 94.4928 16.0027 94.0163 16.0044 93.4595C16.0044 92.9044 16.0864 92.4312 16.2504 92.0401C16.4162 91.649 16.6523 91.3516 16.9589 91.1477C17.2671 90.9422 17.6342 90.8395 18.0601 90.8395C18.486 90.8395 18.8522 90.9422 19.1588 91.1477C19.4671 91.3532 19.704 91.6515 19.8698 92.0426C20.0355 92.4321 20.1175 92.9044 20.1159 93.4595C20.1159 94.018 20.033 94.4953 19.8673 94.8913C19.7032 95.2874 19.4679 95.5898 19.1613 95.7987C18.8547 96.0075 18.4877 96.1119 18.0601 96.1119ZM18.0601 95.2195C18.3518 95.2195 18.5846 95.0728 18.7586 94.7795C18.9326 94.4862 19.0188 94.0462 19.0171 93.4595C19.0171 93.0734 18.9774 92.7519 18.8978 92.495C18.8199 92.2382 18.7089 92.0451 18.5647 91.9158C18.4222 91.7866 18.254 91.7219 18.0601 91.7219C17.7701 91.7219 17.5381 91.867 17.3641 92.157C17.1901 92.447 17.1022 92.8812 17.1006 93.4595C17.1006 93.8506 17.1395 94.1771 17.2174 94.4389C17.297 94.6991 17.4088 94.8946 17.553 95.0256C17.6972 95.1548 17.8662 95.2195 18.0601 95.2195ZM22.8794 96.1119C22.4519 96.1102 22.084 96.005 21.7757 95.7962C21.4692 95.5874 21.233 95.2849 21.0673 94.8888C20.9032 94.4928 20.822 94.0163 20.8237 93.4595C20.8237 92.9044 20.9057 92.4312 21.0698 92.0401C21.2355 91.649 21.4717 91.3516 21.7782 91.1477C22.0865 90.9422 22.4535 90.8395 22.8794 90.8395C23.3053 90.8395 23.6716 90.9422 23.9782 91.1477C24.2864 91.3532 24.5234 91.6515 24.6891 92.0426C24.8548 92.4321 24.9368 92.9044 24.9352 93.4595C24.9352 94.018 24.8523 94.4953 24.6866 94.8913C24.5225 95.2874 24.2872 95.5898 23.9806 95.7987C23.6741 96.0075 23.307 96.1119 22.8794 96.1119ZM22.8794 95.2195C23.1711 95.2195 23.4039 95.0728 23.5779 94.7795C23.752 94.4862 23.8381 94.0462 23.8365 93.4595C23.8365 93.0734 23.7967 92.7519 23.7172 92.495C23.6393 92.2382 23.5282 92.0451 23.3841 91.9158C23.2415 91.7866 23.0733 91.7219 22.8794 91.7219C22.5894 91.7219 22.3574 91.867 22.1834 92.157C22.0094 92.447 21.9216 92.8812 21.9199 93.4595C21.9199 93.8506 21.9589 94.1771 22.0368 94.4389C22.1163 94.6991 22.2282 94.8946 22.3723 95.0256C22.5165 95.1548 22.6855 95.2195 22.8794 95.2195ZM27.6988 96.1119C27.2712 96.1102 26.9033 96.005 26.5951 95.7962C26.2885 95.5874 26.0523 95.2849 25.8866 94.8888C25.7226 94.4928 25.6414 94.0163 25.643 93.4595C25.643 92.9044 25.7251 92.4312 25.8891 92.0401C26.0548 91.649 26.291 91.3516 26.5976 91.1477C26.9058 90.9422 27.2729 90.8395 27.6988 90.8395C28.1247 90.8395 28.4909 90.9422 28.7975 91.1477C29.1057 91.3532 29.3427 91.6515 29.5084 92.0426C29.6742 92.4321 29.7562 92.9044 29.7545 93.4595C29.7545 94.018 29.6717 94.4953 29.5059 94.8913C29.3419 95.2874 29.1066 95.5898 28.8 95.7987C28.4934 96.0075 28.1263 96.1119 27.6988 96.1119ZM27.6988 95.2195C27.9904 95.2195 28.2233 95.0728 28.3973 94.7795C28.5713 94.4862 28.6575 94.0462 28.6558 93.4595C28.6558 93.0734 28.616 92.7519 28.5365 92.495C28.4586 92.2382 28.3476 92.0451 28.2034 91.9158C28.0609 91.7866 27.8927 91.7219 27.6988 91.7219C27.4088 91.7219 27.1768 91.867 27.0028 92.157C26.8287 92.447 26.7409 92.8812 26.7393 93.4595C26.7393 93.8506 26.7782 94.1771 26.8561 94.4389C26.9356 94.6991 27.0475 94.8946 27.1917 95.0256C27.3358 95.1548 27.5049 95.2195 27.6988 95.2195Z" fill="#8BCEEE"/>
<path d="M5.62749 108.909V114H4.55114V109.931H4.52131L3.35547 110.662V109.707L4.61577 108.909H5.62749ZM8.69682 114.07C8.3455 114.07 8.03229 114.005 7.75719 113.876C7.48375 113.746 7.26666 113.568 7.10591 113.341C6.94516 113.114 6.86148 112.854 6.85485 112.561H7.89888C7.91048 112.758 7.99334 112.918 8.14746 113.04C8.30158 113.163 8.4847 113.224 8.69682 113.224C8.86586 113.224 9.015 113.187 9.14427 113.113C9.27518 113.036 9.3771 112.931 9.45002 112.797C9.52459 112.661 9.56188 112.505 9.56188 112.33C9.56188 112.151 9.52376 111.993 9.44753 111.857C9.37296 111.721 9.26938 111.615 9.13681 111.539C9.00423 111.463 8.8526 111.424 8.68191 111.422C8.53276 111.422 8.38775 111.453 8.24689 111.514C8.10769 111.576 7.99914 111.659 7.92125 111.765L6.96422 111.594L7.20534 108.909H10.3176V109.789H8.09277L7.96103 111.064H7.99086C8.08034 110.938 8.21541 110.834 8.39604 110.751C8.57667 110.668 8.77885 110.627 9.00257 110.627C9.30916 110.627 9.58259 110.699 9.82289 110.843C10.0632 110.987 10.2529 111.185 10.3921 111.437C10.5313 111.687 10.6001 111.976 10.5985 112.302C10.6001 112.645 10.5206 112.95 10.3598 113.217C10.2007 113.482 9.97784 113.691 9.69114 113.843C9.4061 113.994 9.07466 114.07 8.69682 114.07ZM13.3453 114.112C12.9177 114.11 12.5498 114.005 12.2416 113.796C11.935 113.587 11.6988 113.285 11.5331 112.889C11.3691 112.493 11.2878 112.016 11.2895 111.46C11.2895 110.904 11.3715 110.431 11.5356 110.04C11.7013 109.649 11.9375 109.352 12.2441 109.148C12.5523 108.942 12.9194 108.839 13.3453 108.839C13.7712 108.839 14.1374 108.942 14.444 109.148C14.7522 109.353 14.9892 109.652 15.1549 110.043C15.3206 110.432 15.4027 110.904 15.401 111.46C15.401 112.018 15.3182 112.495 15.1524 112.891C14.9884 113.287 14.753 113.59 14.4465 113.799C14.1399 114.007 13.7728 114.112 13.3453 114.112ZM13.3453 113.219C13.6369 113.219 13.8698 113.073 14.0438 112.779C14.2178 112.486 14.3039 112.046 14.3023 111.46C14.3023 111.073 14.2625 110.752 14.183 110.495C14.1051 110.238 13.9941 110.045 13.8499 109.916C13.7074 109.787 13.5392 109.722 13.3453 109.722C13.0552 109.722 12.8232 109.867 12.6492 110.157C12.4752 110.447 12.3874 110.881 12.3857 111.46C12.3857 111.851 12.4247 112.177 12.5026 112.439C12.5821 112.699 12.694 112.895 12.8382 113.026C12.9823 113.155 13.1514 113.219 13.3453 113.219ZM19.7847 114.112C19.3572 114.11 18.9893 114.005 18.681 113.796C18.3744 113.587 18.1383 113.285 17.9726 112.889C17.8085 112.493 17.7273 112.016 17.729 111.46C17.729 110.904 17.811 110.431 17.9751 110.04C18.1408 109.649 18.3769 109.352 18.6835 109.148C18.9917 108.942 19.3588 108.839 19.7847 108.839C20.2106 108.839 20.5769 108.942 20.8834 109.148C21.1917 109.353 21.4287 109.652 21.5944 110.043C21.7601 110.432 21.8421 110.904 21.8405 111.46C21.8405 112.018 21.7576 112.495 21.5919 112.891C21.4278 113.287 21.1925 113.59 20.8859 113.799C20.5793 114.007 20.2123 114.112 19.7847 114.112ZM19.7847 113.219C20.0764 113.219 20.3092 113.073 20.4832 112.779C20.6572 112.486 20.7434 112.046 20.7417 111.46C20.7417 111.073 20.702 110.752 20.6224 110.495C20.5445 110.238 20.4335 110.045 20.2893 109.916C20.1468 109.787 19.9786 109.722 19.7847 109.722C19.4947 109.722 19.2627 109.867 19.0887 110.157C18.9147 110.447 18.8269 110.881 18.8252 111.46C18.8252 111.851 18.8641 112.177 18.942 112.439C19.0216 112.699 19.1334 112.895 19.2776 113.026C19.4218 113.155 19.5908 113.219 19.7847 113.219ZM24.604 114.112C24.1765 114.11 23.8086 114.005 23.5004 113.796C23.1938 113.587 22.9576 113.285 22.7919 112.889C22.6278 112.493 22.5466 112.016 22.5483 111.46C22.5483 110.904 22.6303 110.431 22.7944 110.04C22.9601 109.649 23.1963 109.352 23.5028 109.148C23.8111 108.942 24.1781 108.839 24.604 108.839C25.0299 108.839 25.3962 108.942 25.7028 109.148C26.011 109.353 26.248 109.652 26.4137 110.043C26.5794 110.432 26.6615 110.904 26.6598 111.46C26.6598 112.018 26.5769 112.495 26.4112 112.891C26.2472 113.287 26.0118 113.59 25.7053 113.799C25.3987 114.007 25.0316 114.112 24.604 114.112ZM24.604 113.219C24.8957 113.219 25.1286 113.073 25.3026 112.779C25.4766 112.486 25.5627 112.046 25.5611 111.46C25.5611 111.073 25.5213 110.752 25.4418 110.495C25.3639 110.238 25.2528 110.045 25.1087 109.916C24.9661 109.787 24.7979 109.722 24.604 109.722C24.314 109.722 24.082 109.867 23.908 110.157C23.734 110.447 23.6462 110.881 23.6445 111.46C23.6445 111.851 23.6835 112.177 23.7614 112.439C23.8409 112.699 23.9528 112.895 24.0969 113.026C24.2411 113.155 24.4102 113.219 24.604 113.219ZM29.4234 114.112C28.9958 114.11 28.6279 114.005 28.3197 113.796C28.0131 113.587 27.777 113.285 27.6112 112.889C27.4472 112.493 27.366 112.016 27.3676 111.46C27.3676 110.904 27.4497 110.431 27.6137 110.04C27.7794 109.649 28.0156 109.352 28.3222 109.148C28.6304 108.942 28.9975 108.839 29.4234 108.839C29.8493 108.839 30.2155 108.942 30.5221 109.148C30.8303 109.353 31.0673 109.652 31.233 110.043C31.3988 110.432 31.4808 110.904 31.4791 111.46C31.4791 112.018 31.3963 112.495 31.2306 112.891C31.0665 113.287 30.8312 113.59 30.5246 113.799C30.218 114.007 29.8509 114.112 29.4234 114.112ZM29.4234 113.219C29.7151 113.219 29.9479 113.073 30.1219 112.779C30.2959 112.486 30.3821 112.046 30.3804 111.46C30.3804 111.073 30.3406 110.752 30.2611 110.495C30.1832 110.238 30.0722 110.045 29.928 109.916C29.7855 109.787 29.6173 109.722 29.4234 109.722C29.1334 109.722 28.9014 109.867 28.7274 110.157C28.5534 110.447 28.4655 110.881 28.4639 111.46C28.4639 111.851 28.5028 112.177 28.5807 112.439C28.6602 112.699 28.7721 112.895 28.9163 113.026C29.0605 113.155 29.2295 113.219 29.4234 113.219Z" fill="#8BCEEE"/>
<path d="M4.62749 126.909V132H3.55114V127.931H3.52131L2.35547 128.662V127.707L3.61577 126.909H4.62749ZM5.83745 132V131.224L7.64959 129.547C7.80371 129.397 7.93297 129.263 8.03738 129.144C8.14344 129.025 8.22381 128.908 8.2785 128.793C8.33319 128.677 8.36053 128.552 8.36053 128.418C8.36053 128.269 8.32656 128.14 8.25861 128.033C8.19067 127.923 8.09786 127.84 7.9802 127.782C7.86254 127.722 7.72914 127.692 7.57999 127.692C7.42421 127.692 7.28832 127.724 7.17232 127.787C7.05632 127.85 6.96683 127.94 6.90385 128.058C6.84088 128.175 6.80939 128.315 6.80939 128.478H5.78773C5.78773 128.145 5.86313 127.855 6.01394 127.61C6.16474 127.365 6.37604 127.175 6.64782 127.041C6.9196 126.907 7.23281 126.839 7.58745 126.839C7.95203 126.839 8.26938 126.904 8.53951 127.033C8.81129 127.161 9.02258 127.338 9.17338 127.565C9.32419 127.792 9.39959 128.053 9.39959 128.346C9.39959 128.538 9.36148 128.728 9.28525 128.915C9.21067 129.102 9.07727 129.31 8.88503 129.539C8.6928 129.766 8.42185 130.039 8.07218 130.357L7.32892 131.085V131.12H9.46671V132H5.83745ZM12.106 132.07C11.7547 132.07 11.4415 132.005 11.1664 131.876C10.8929 131.746 10.6758 131.568 10.5151 131.341C10.3543 131.114 10.2707 130.854 10.264 130.561H11.3081C11.3197 130.758 11.4025 130.918 11.5566 131.04C11.7108 131.163 11.8939 131.224 12.106 131.224C12.275 131.224 12.4242 131.187 12.5534 131.113C12.6844 131.036 12.7863 130.931 12.8592 130.797C12.9338 130.661 12.9711 130.505 12.9711 130.33C12.9711 130.151 12.9329 129.993 12.8567 129.857C12.7821 129.721 12.6786 129.615 12.546 129.539C12.4134 129.463 12.2618 129.424 12.0911 129.422C11.9419 129.422 11.7969 129.453 11.6561 129.514C11.5169 129.576 11.4083 129.659 11.3304 129.765L10.3734 129.594L10.6145 126.909H13.7267V127.789H11.502L11.3702 129.064H11.4C11.4895 128.938 11.6246 128.834 11.8052 128.751C11.9859 128.668 12.188 128.627 12.4118 128.627C12.7183 128.627 12.9918 128.699 13.2321 128.843C13.4724 128.987 13.6621 129.185 13.8013 129.437C13.9405 129.687 14.0093 129.976 14.0076 130.302C14.0093 130.645 13.9297 130.95 13.769 131.217C13.6099 131.482 13.387 131.691 13.1003 131.843C12.8153 131.994 12.4838 132.07 12.106 132.07ZM18.3746 132.112C17.947 132.11 17.5791 132.005 17.2709 131.796C16.9643 131.587 16.7281 131.285 16.5624 130.889C16.3983 130.493 16.3171 130.016 16.3188 129.46C16.3188 128.904 16.4008 128.431 16.5649 128.04C16.7306 127.649 16.9668 127.352 17.2733 127.148C17.5816 126.942 17.9487 126.839 18.3746 126.839C18.8005 126.839 19.1667 126.942 19.4733 127.148C19.7815 127.353 20.0185 127.652 20.1842 128.043C20.3499 128.432 20.432 128.904 20.4303 129.46C20.4303 130.018 20.3474 130.495 20.1817 130.891C20.0177 131.287 19.7823 131.59 19.4758 131.799C19.1692 132.007 18.8021 132.112 18.3746 132.112ZM18.3746 131.219C18.6662 131.219 18.8991 131.073 19.0731 130.779C19.2471 130.486 19.3332 130.046 19.3316 129.46C19.3316 129.073 19.2918 128.752 19.2123 128.495C19.1344 128.238 19.0233 128.045 18.8792 127.916C18.7367 127.787 18.5684 127.722 18.3746 127.722C18.0845 127.722 17.8525 127.867 17.6785 128.157C17.5045 128.447 17.4167 128.881 17.415 129.46C17.415 129.851 17.454 130.177 17.5319 130.439C17.6114 130.699 17.7233 130.895 17.8675 131.026C18.0116 131.155 18.1807 131.219 18.3746 131.219ZM23.1939 132.112C22.7663 132.11 22.3984 132.005 22.0902 131.796C21.7836 131.587 21.5475 131.285 21.3817 130.889C21.2177 130.493 21.1365 130.016 21.1381 129.46C21.1381 128.904 21.2202 128.431 21.3842 128.04C21.55 127.649 21.7861 127.352 22.0927 127.148C22.4009 126.942 22.768 126.839 23.1939 126.839C23.6198 126.839 23.986 126.942 24.2926 127.148C24.6009 127.353 24.8378 127.652 25.0036 128.043C25.1693 128.432 25.2513 128.904 25.2496 129.46C25.2496 130.018 25.1668 130.495 25.0011 130.891C24.837 131.287 24.6017 131.59 24.2951 131.799C23.9885 132.007 23.6214 132.112 23.1939 132.112ZM23.1939 131.219C23.4856 131.219 23.7184 131.073 23.8924 130.779C24.0664 130.486 24.1526 130.046 24.1509 129.46C24.1509 129.073 24.1112 128.752 24.0316 128.495C23.9537 128.238 23.8427 128.045 23.6985 127.916C23.556 127.787 23.3878 127.722 23.1939 127.722C22.9039 127.722 22.6719 127.867 22.4979 128.157C22.3239 128.447 22.236 128.881 22.2344 129.46C22.2344 129.851 22.2733 130.177 22.3512 130.439C22.4308 130.699 22.5426 130.895 22.6868 131.026C22.831 131.155 23 131.219 23.1939 131.219ZM28.0132 132.112C27.5857 132.11 27.2178 132.005 26.9095 131.796C26.603 131.587 26.3668 131.285 26.2011 130.889C26.037 130.493 25.9558 130.016 25.9575 129.46C25.9575 128.904 26.0395 128.431 26.2036 128.04C26.3693 127.649 26.6054 127.352 26.912 127.148C27.2203 126.942 27.5873 126.839 28.0132 126.839C28.4391 126.839 28.8054 126.942 29.1119 127.148C29.4202 127.353 29.6572 127.652 29.8229 128.043C29.9886 128.432 30.0706 128.904 30.069 129.46C30.069 130.018 29.9861 130.495 29.8204 130.891C29.6563 131.287 29.421 131.59 29.1144 131.799C28.8079 132.007 28.4408 132.112 28.0132 132.112ZM28.0132 131.219C28.3049 131.219 28.5377 131.073 28.7117 130.779C28.8857 130.486 28.9719 130.046 28.9703 129.46C28.9703 129.073 28.9305 128.752 28.8509 128.495C28.7731 128.238 28.662 128.045 28.5178 127.916C28.3753 127.787 28.2071 127.722 28.0132 127.722C27.7232 127.722 27.4912 127.867 27.3172 128.157C27.1432 128.447 27.0554 128.881 27.0537 129.46C27.0537 129.851 27.0927 130.177 27.1705 130.439C27.2501 130.699 27.3619 130.895 27.5061 131.026C27.6503 131.155 27.8193 131.219 28.0132 131.219Z" fill="#8BCEEE"/>
<path d="M7.61399 168L9.72443 163.824V163.789H7.26598V162.909H10.8381V163.801L8.72514 168H7.61399ZM13.3667 168.07C13.0154 168.07 12.7022 168.005 12.4271 167.876C12.1537 167.746 11.9366 167.568 11.7758 167.341C11.6151 167.114 11.5314 166.854 11.5248 166.561H12.5688C12.5804 166.758 12.6633 166.918 12.8174 167.04C12.9715 167.163 13.1546 167.224 13.3667 167.224C13.5358 167.224 13.6849 167.187 13.8142 167.113C13.9451 167.036 14.047 166.931 14.1199 166.797C14.1945 166.661 14.2318 166.505 14.2318 166.33C14.2318 166.151 14.1937 165.993 14.1175 165.857C14.0429 165.721 13.9393 165.615 13.8067 165.539C13.6742 165.463 13.5225 165.424 13.3518 165.422C13.2027 165.422 13.0577 165.453 12.9168 165.514C12.7776 165.576 12.6691 165.659 12.5912 165.765L11.6341 165.594L11.8753 162.909H14.9875V163.789H12.7627L12.6309 165.064H12.6608C12.7503 164.938 12.8853 164.834 13.066 164.751C13.2466 164.668 13.4488 164.627 13.6725 164.627C13.9791 164.627 14.2525 164.699 14.4928 164.843C14.7331 164.987 14.9229 165.185 15.0621 165.437C15.2013 165.687 15.27 165.976 15.2684 166.302C15.27 166.645 15.1905 166.95 15.0297 167.217C14.8706 167.482 14.6478 167.691 14.3611 167.843C14.076 167.994 13.7446 168.07 13.3667 168.07ZM19.6353 168.112C19.2077 168.11 18.8398 168.005 18.5316 167.796C18.225 167.587 17.9889 167.285 17.8232 166.889C17.6591 166.493 17.5779 166.016 17.5795 165.46C17.5795 164.904 17.6616 164.431 17.8256 164.04C17.9914 163.649 18.2275 163.352 18.5341 163.148C18.8423 162.942 19.2094 162.839 19.6353 162.839C20.0612 162.839 20.4274 162.942 20.734 163.148C21.0423 163.353 21.2792 163.652 21.445 164.043C21.6107 164.432 21.6927 164.904 21.6911 165.46C21.6911 166.018 21.6082 166.495 21.4425 166.891C21.2784 167.287 21.0431 167.59 20.7365 167.799C20.4299 168.007 20.0629 168.112 19.6353 168.112ZM19.6353 167.219C19.927 167.219 20.1598 167.073 20.3338 166.779C20.5078 166.486 20.594 166.046 20.5923 165.46C20.5923 165.073 20.5526 164.752 20.473 164.495C20.3951 164.238 20.2841 164.045 20.1399 163.916C19.9974 163.787 19.8292 163.722 19.6353 163.722C19.3453 163.722 19.1133 163.867 18.9393 164.157C18.7653 164.447 18.6774 164.881 18.6758 165.46C18.6758 165.851 18.7147 166.177 18.7926 166.439C18.8722 166.699 18.984 166.895 19.1282 167.026C19.2724 167.155 19.4414 167.219 19.6353 167.219ZM24.4546 168.112C24.0271 168.11 23.6592 168.005 23.3509 167.796C23.0444 167.587 22.8082 167.285 22.6425 166.889C22.4784 166.493 22.3972 166.016 22.3989 165.46C22.3989 164.904 22.4809 164.431 22.645 164.04C22.8107 163.649 23.0468 163.352 23.3534 163.148C23.6617 162.942 24.0287 162.839 24.4546 162.839C24.8805 162.839 25.2468 162.942 25.5534 163.148C25.8616 163.353 26.0986 163.652 26.2643 164.043C26.43 164.432 26.512 164.904 26.5104 165.46C26.5104 166.018 26.4275 166.495 26.2618 166.891C26.0977 167.287 25.8624 167.59 25.5558 167.799C25.2493 168.007 24.8822 168.112 24.4546 168.112ZM24.4546 167.219C24.7463 167.219 24.9791 167.073 25.1531 166.779C25.3271 166.486 25.4133 166.046 25.4117 165.46C25.4117 165.073 25.3719 164.752 25.2923 164.495C25.2145 164.238 25.1034 164.045 24.9593 163.916C24.8167 163.787 24.6485 163.722 24.4546 163.722C24.1646 163.722 23.9326 163.867 23.7586 164.157C23.5846 164.447 23.4968 164.881 23.4951 165.46C23.4951 165.851 23.5341 166.177 23.6119 166.439C23.6915 166.699 23.8034 166.895 23.9475 167.026C24.0917 167.155 24.2607 167.219 24.4546 167.219ZM29.274 168.112C28.8464 168.11 28.4785 168.005 28.1703 167.796C27.8637 167.587 27.6275 167.285 27.4618 166.889C27.2978 166.493 27.2166 166.016 27.2182 165.46C27.2182 164.904 27.3002 164.431 27.4643 164.04C27.63 163.649 27.8662 163.352 28.1728 163.148C28.481 162.942 28.8481 162.839 29.274 162.839C29.6999 162.839 30.0661 162.942 30.3727 163.148C30.6809 163.353 30.9179 163.652 31.0836 164.043C31.2493 164.432 31.3314 164.904 31.3297 165.46C31.3297 166.018 31.2469 166.495 31.0811 166.891C30.9171 167.287 30.6818 167.59 30.3752 167.799C30.0686 168.007 29.7015 168.112 29.274 168.112ZM29.274 167.219C29.5656 167.219 29.7985 167.073 29.9725 166.779C30.1465 166.486 30.2327 166.046 30.231 165.46C30.231 165.073 30.1912 164.752 30.1117 164.495C30.0338 164.238 29.9228 164.045 29.7786 163.916C29.6361 163.787 29.4679 163.722 29.274 163.722C28.984 163.722 28.752 163.867 28.5779 164.157C28.4039 164.447 28.3161 164.881 28.3145 165.46C28.3145 165.851 28.3534 166.177 28.4313 166.439C28.5108 166.699 28.6227 166.895 28.7669 167.026C28.911 167.155 29.0801 167.219 29.274 167.219Z" fill="#8BCEEE"/>
<path d="M7.27202 186.07C6.92069 186.07 6.60748 186.005 6.33239 185.876C6.05895 185.746 5.84186 185.568 5.68111 185.341C5.52036 185.114 5.43667 184.854 5.43004 184.561H6.47408C6.48568 184.758 6.56854 184.918 6.72266 185.04C6.87678 185.163 7.0599 185.224 7.27202 185.224C7.44105 185.224 7.5902 185.187 7.71946 185.113C7.85038 185.036 7.9523 184.931 8.02521 184.797C8.09979 184.661 8.13707 184.505 8.13707 184.33C8.13707 184.151 8.09896 183.993 8.02273 183.857C7.94815 183.721 7.84458 183.615 7.712 183.539C7.57943 183.463 7.42779 183.424 7.2571 183.422C7.10795 183.422 6.96295 183.453 6.82209 183.514C6.68288 183.576 6.57434 183.659 6.49645 183.765L5.53942 183.594L5.78054 180.909H8.89276V181.789H6.66797L6.53622 183.064H6.56605C6.65554 182.938 6.7906 182.834 6.97124 182.751C7.15187 182.668 7.35405 182.627 7.57777 182.627C7.88435 182.627 8.15779 182.699 8.39808 182.843C8.63838 182.987 8.82812 183.185 8.96733 183.437C9.10653 183.687 9.17531 183.976 9.17365 184.302C9.17531 184.645 9.09576 184.95 8.93501 185.217C8.77592 185.482 8.55303 185.691 8.26634 185.843C7.9813 185.994 7.64986 186.07 7.27202 186.07ZM11.9205 186.112C11.4929 186.11 11.125 186.005 10.8168 185.796C10.5102 185.587 10.274 185.285 10.1083 184.889C9.94425 184.493 9.86304 184.016 9.8647 183.46C9.8647 182.904 9.94673 182.431 10.1108 182.04C10.2765 181.649 10.5127 181.352 10.8192 181.148C11.1275 180.942 11.4946 180.839 11.9205 180.839C12.3464 180.839 12.7126 180.942 13.0192 181.148C13.3274 181.353 13.5644 181.652 13.7301 182.043C13.8958 182.432 13.9779 182.904 13.9762 183.46C13.9762 184.018 13.8933 184.495 13.7276 184.891C13.5636 185.287 13.3282 185.59 13.0217 185.799C12.7151 186.007 12.348 186.112 11.9205 186.112ZM11.9205 185.219C12.2121 185.219 12.445 185.073 12.619 184.779C12.793 184.486 12.8791 184.046 12.8775 183.46C12.8775 183.073 12.8377 182.752 12.7582 182.495C12.6803 182.238 12.5692 182.045 12.4251 181.916C12.2826 181.787 12.1143 181.722 11.9205 181.722C11.6304 181.722 11.3984 181.867 11.2244 182.157C11.0504 182.447 10.9626 182.881 10.9609 183.46C10.9609 183.851 10.9999 184.177 11.0778 184.439C11.1573 184.699 11.2692 184.895 11.4134 185.026C11.5575 185.155 11.7266 185.219 11.9205 185.219ZM18.3599 186.112C17.9324 186.11 17.5645 186.005 17.2562 185.796C16.9496 185.587 16.7135 185.285 16.5478 184.889C16.3837 184.493 16.3025 184.016 16.3042 183.46C16.3042 182.904 16.3862 182.431 16.5502 182.04C16.716 181.649 16.9521 181.352 17.2587 181.148C17.5669 180.942 17.934 180.839 18.3599 180.839C18.7858 180.839 19.152 180.942 19.4586 181.148C19.7669 181.353 20.0038 181.652 20.1696 182.043C20.3353 182.432 20.4173 182.904 20.4157 183.46C20.4157 184.018 20.3328 184.495 20.1671 184.891C20.003 185.287 19.7677 185.59 19.4611 185.799C19.1545 186.007 18.7875 186.112 18.3599 186.112ZM18.3599 185.219C18.6516 185.219 18.8844 185.073 19.0584 184.779C19.2324 184.486 19.3186 184.046 19.3169 183.46C19.3169 183.073 19.2772 182.752 19.1976 182.495C19.1197 182.238 19.0087 182.045 18.8645 181.916C18.722 181.787 18.5538 181.722 18.3599 181.722C18.0699 181.722 17.8379 181.867 17.6639 182.157C17.4899 182.447 17.402 182.881 17.4004 183.46C17.4004 183.851 17.4393 184.177 17.5172 184.439C17.5968 184.699 17.7086 184.895 17.8528 185.026C17.997 185.155 18.166 185.219 18.3599 185.219ZM23.1792 186.112C22.7517 186.11 22.3838 186.005 22.0756 185.796C21.769 185.587 21.5328 185.285 21.3671 184.889C21.203 184.493 21.1218 184.016 21.1235 183.46C21.1235 182.904 21.2055 182.431 21.3696 182.04C21.5353 181.649 21.7715 181.352 22.078 181.148C22.3863 180.942 22.7533 180.839 23.1792 180.839C23.6051 180.839 23.9714 180.942 24.278 181.148C24.5862 181.353 24.8232 181.652 24.9889 182.043C25.1546 182.432 25.2367 182.904 25.235 183.46C25.235 184.018 25.1521 184.495 24.9864 184.891C24.8224 185.287 24.587 185.59 24.2805 185.799C23.9739 186.007 23.6068 186.112 23.1792 186.112ZM23.1792 185.219C23.4709 185.219 23.7037 185.073 23.8778 184.779C24.0518 184.486 24.1379 184.046 24.1363 183.46C24.1363 183.073 24.0965 182.752 24.017 182.495C23.9391 182.238 23.828 182.045 23.6839 181.916C23.5413 181.787 23.3731 181.722 23.1792 181.722C22.8892 181.722 22.6572 181.867 22.4832 182.157C22.3092 182.447 22.2214 182.881 22.2197 183.46C22.2197 183.851 22.2587 184.177 22.3366 184.439C22.4161 184.699 22.528 184.895 22.6721 185.026C22.8163 185.155 22.9854 185.219 23.1792 185.219ZM27.9986 186.112C27.571 186.11 27.2031 186.005 26.8949 185.796C26.5883 185.587 26.3522 185.285 26.1864 184.889C26.0224 184.493 25.9412 184.016 25.9428 183.46C25.9428 182.904 26.0249 182.431 26.1889 182.04C26.3546 181.649 26.5908 181.352 26.8974 181.148C27.2056 180.942 27.5727 180.839 27.9986 180.839C28.4245 180.839 28.7907 180.942 29.0973 181.148C29.4055 181.353 29.6425 181.652 29.8082 182.043C29.974 182.432 30.056 182.904 30.0543 183.46C30.0543 184.018 29.9715 184.495 29.8058 184.891C29.6417 185.287 29.4064 185.59 29.0998 185.799C28.7932 186.007 28.4261 186.112 27.9986 186.112ZM27.9986 185.219C28.2902 185.219 28.5231 185.073 28.6971 184.779C28.8711 184.486 28.9573 184.046 28.9556 183.46C28.9556 183.073 28.9158 182.752 28.8363 182.495C28.7584 182.238 28.6474 182.045 28.5032 181.916C28.3607 181.787 28.1925 181.722 27.9986 181.722C27.7086 181.722 27.4766 181.867 27.3026 182.157C27.1286 182.447 27.0407 182.881 27.0391 183.46C27.0391 183.851 27.078 184.177 27.1559 184.439C27.2354 184.699 27.3473 184.895 27.4915 185.026C27.6357 185.155 27.8047 185.219 27.9986 185.219Z" fill="#8BCEEE"/>
<path d="M6.41264 204V203.224L8.22479 201.547C8.37891 201.397 8.50817 201.263 8.61257 201.144C8.71863 201.025 8.79901 200.908 8.85369 200.793C8.90838 200.677 8.93572 200.552 8.93572 200.418C8.93572 200.269 8.90175 200.14 8.83381 200.033C8.76586 199.923 8.67306 199.84 8.5554 199.782C8.43774 199.722 8.30433 199.692 8.15518 199.692C7.99941 199.692 7.86352 199.724 7.74751 199.787C7.63151 199.85 7.54202 199.94 7.47905 200.058C7.41607 200.175 7.38459 200.315 7.38459 200.478H6.36293C6.36293 200.145 6.43833 199.855 6.58913 199.61C6.73994 199.365 6.95123 199.175 7.22301 199.041C7.49479 198.907 7.808 198.839 8.16264 198.839C8.52723 198.839 8.84458 198.904 9.1147 199.033C9.38648 199.161 9.59777 199.338 9.74858 199.565C9.89938 199.792 9.97479 200.053 9.97479 200.346C9.97479 200.538 9.93667 200.728 9.86044 200.915C9.78587 201.102 9.65246 201.31 9.46023 201.539C9.26799 201.766 8.99704 202.039 8.64737 202.357L7.90412 203.085V203.12H10.0419V204H6.41264ZM12.6812 204.07C12.3299 204.07 12.0167 204.005 11.7416 203.876C11.4681 203.746 11.251 203.568 11.0903 203.341C10.9295 203.114 10.8459 202.854 10.8392 202.561H11.8833C11.8949 202.758 11.9777 202.918 12.1318 203.04C12.286 203.163 12.4691 203.224 12.6812 203.224C12.8502 203.224 12.9994 203.187 13.1286 203.113C13.2596 203.036 13.3615 202.931 13.4344 202.797C13.509 202.661 13.5463 202.505 13.5463 202.33C13.5463 202.151 13.5081 201.993 13.4319 201.857C13.3573 201.721 13.2538 201.615 13.1212 201.539C12.9886 201.463 12.837 201.424 12.6663 201.422C12.5171 201.422 12.3721 201.453 12.2313 201.514C12.0921 201.576 11.9835 201.659 11.9056 201.765L10.9486 201.594L11.1897 198.909H14.3019V199.789H12.0771L11.9454 201.064H11.9752C12.0647 200.938 12.1998 200.834 12.3804 200.751C12.561 200.668 12.7632 200.627 12.9869 200.627C13.2935 200.627 13.567 200.699 13.8073 200.843C14.0476 200.987 14.2373 201.185 14.3765 201.437C14.5157 201.687 14.5845 201.976 14.5828 202.302C14.5845 202.645 14.5049 202.95 14.3442 203.217C14.1851 203.482 13.9622 203.691 13.6755 203.843C13.3905 203.994 13.059 204.07 12.6812 204.07ZM18.9498 204.112C18.5222 204.11 18.1543 204.005 17.8461 203.796C17.5395 203.587 17.3033 203.285 17.1376 202.889C16.9735 202.493 16.8923 202.016 16.894 201.46C16.894 200.904 16.976 200.431 17.1401 200.04C17.3058 199.649 17.542 199.352 17.8485 199.148C18.1568 198.942 18.5239 198.839 18.9498 198.839C19.3757 198.839 19.7419 198.942 20.0485 199.148C20.3567 199.353 20.5937 199.652 20.7594 200.043C20.9251 200.432 21.0072 200.904 21.0055 201.46C21.0055 202.018 20.9226 202.495 20.7569 202.891C20.5929 203.287 20.3575 203.59 20.051 203.799C19.7444 204.007 19.3773 204.112 18.9498 204.112ZM18.9498 203.219C19.2414 203.219 19.4743 203.073 19.6483 202.779C19.8223 202.486 19.9084 202.046 19.9068 201.46C19.9068 201.073 19.867 200.752 19.7875 200.495C19.7096 200.238 19.5985 200.045 19.4544 199.916C19.3118 199.787 19.1436 199.722 18.9498 199.722C18.6597 199.722 18.4277 199.867 18.2537 200.157C18.0797 200.447 17.9919 200.881 17.9902 201.46C17.9902 201.851 18.0292 202.177 18.1071 202.439C18.1866 202.699 18.2985 202.895 18.4426 203.026C18.5868 203.155 18.7559 203.219 18.9498 203.219ZM23.7691 204.112C23.3415 204.11 22.9736 204.005 22.6654 203.796C22.3588 203.587 22.1227 203.285 21.9569 202.889C21.7929 202.493 21.7117 202.016 21.7133 201.46C21.7133 200.904 21.7954 200.431 21.9594 200.04C22.1251 199.649 22.3613 199.352 22.6679 199.148C22.9761 198.942 23.3432 198.839 23.7691 198.839C24.195 198.839 24.5612 198.942 24.8678 199.148C25.176 199.353 25.413 199.652 25.5787 200.043C25.7445 200.432 25.8265 200.904 25.8248 201.46C25.8248 202.018 25.742 202.495 25.5763 202.891C25.4122 203.287 25.1769 203.59 24.8703 203.799C24.5637 204.007 24.1966 204.112 23.7691 204.112ZM23.7691 203.219C24.0608 203.219 24.2936 203.073 24.4676 202.779C24.6416 202.486 24.7278 202.046 24.7261 201.46C24.7261 201.073 24.6863 200.752 24.6068 200.495C24.5289 200.238 24.4179 200.045 24.2737 199.916C24.1312 199.787 23.963 199.722 23.7691 199.722C23.4791 199.722 23.2471 199.867 23.0731 200.157C22.8991 200.447 22.8112 200.881 22.8096 201.46C22.8096 201.851 22.8485 202.177 22.9264 202.439C23.0059 202.699 23.1178 202.895 23.262 203.026C23.4062 203.155 23.5752 203.219 23.7691 203.219ZM28.5884 204.112C28.1609 204.11 27.793 204.005 27.4847 203.796C27.1781 203.587 26.942 203.285 26.7763 202.889C26.6122 202.493 26.531 202.016 26.5327 201.46C26.5327 200.904 26.6147 200.431 26.7788 200.04C26.9445 199.649 27.1806 199.352 27.4872 199.148C27.7955 198.942 28.1625 198.839 28.5884 198.839C29.0143 198.839 29.3806 198.942 29.6871 199.148C29.9954 199.353 30.2324 199.652 30.3981 200.043C30.5638 200.432 30.6458 200.904 30.6442 201.46C30.6442 202.018 30.5613 202.495 30.3956 202.891C30.2315 203.287 29.9962 203.59 29.6896 203.799C29.383 204.007 29.016 204.112 28.5884 204.112ZM28.5884 203.219C28.8801 203.219 29.1129 203.073 29.2869 202.779C29.4609 202.486 29.5471 202.046 29.5455 201.46C29.5455 201.073 29.5057 200.752 29.4261 200.495C29.3482 200.238 29.2372 200.045 29.093 199.916C28.9505 199.787 28.7823 199.722 28.5884 199.722C28.2984 199.722 28.0664 199.867 27.8924 200.157C27.7184 200.447 27.6306 200.881 27.6289 201.46C27.6289 201.851 27.6679 202.177 27.7457 202.439C27.8253 202.699 27.9371 202.895 28.0813 203.026C28.2255 203.155 28.3945 203.219 28.5884 203.219Z" fill="#8BCEEE"/>
<path d="M28.4087 222.112C27.9812 222.11 27.6133 222.005 27.305 221.796C26.9985 221.587 26.7623 221.285 26.5966 220.889C26.4325 220.493 26.3513 220.016 26.353 219.46C26.353 218.904 26.435 218.431 26.5991 218.04C26.7648 217.649 27.0009 217.352 27.3075 217.148C27.6158 216.942 27.9828 216.839 28.4087 216.839C28.8346 216.839 29.2009 216.942 29.5075 217.148C29.8157 217.353 30.0527 217.652 30.2184 218.043C30.3841 218.432 30.4661 218.904 30.4645 219.46C30.4645 220.018 30.3816 220.495 30.2159 220.891C30.0518 221.287 29.8165 221.59 29.5099 221.799C29.2034 222.007 28.8363 222.112 28.4087 222.112ZM28.4087 221.219C28.7004 221.219 28.9332 221.073 29.1072 220.779C29.2813 220.486 29.3674 220.046 29.3658 219.46C29.3658 219.073 29.326 218.752 29.2464 218.495C29.1686 218.238 29.0575 218.045 28.9134 217.916C28.7708 217.787 28.6026 217.722 28.4087 217.722C28.1187 217.722 27.8867 217.867 27.7127 218.157C27.5387 218.447 27.4509 218.881 27.4492 219.46C27.4492 219.851 27.4882 220.177 27.5661 220.439C27.6456 220.699 27.7575 220.895 27.9016 221.026C28.0458 221.155 28.2148 221.219 28.4087 221.219Z" fill="#8BCEEE"/>
<line x1="39.9989" y1="3.52832" x2="514.999" y2="2.49997" stroke="#8BCEEE"/>
<line x1="39.9989" y1="21.5566" x2="514.999" y2="20.5283" stroke="#8BCEEE"/>
<line x1="39.9989" y1="39.5851" x2="514.999" y2="38.5567" stroke="#8BCEEE"/>
<line x1="39.9989" y1="57.6134" x2="514.999" y2="56.5851" stroke="#8BCEEE"/>
<line x1="39.9989" y1="75.6417" x2="514.999" y2="74.6134" stroke="#8BCEEE"/>
<line x1="39.9989" y1="93.6701" x2="514.999" y2="92.6418" stroke="#8BCEEE"/>
<line x1="39.9989" y1="111.698" x2="514.999" y2="110.67" stroke="#8BCEEE"/>
<line x1="39.9989" y1="129.727" x2="514.999" y2="128.698" stroke="#8BCEEE"/>
<line x1="39.9989" y1="147.755" x2="514.999" y2="146.727" stroke="#8BCEEE"/>
<line x1="39.9989" y1="165.784" x2="514.999" y2="164.755" stroke="#8BCEEE"/>
<line x1="39.9989" y1="183.812" x2="514.999" y2="182.784" stroke="#8BCEEE"/>
<line x1="39.9989" y1="201.84" x2="514.999" y2="200.812" stroke="#8BCEEE"/>
<path d="M151 123C151 121.343 152.343 120 154 120H180C181.657 120 183 121.343 183 123V220H151V123Z" fill="#8BCEEE"/>
<path d="M136 47C136 45.3431 137.343 44 139 44H167C168.657 44 170 45.3431 170 47V220H136V47Z" fill="#78B18B"/>
<path d="M74 115C74 113.343 75.3431 112 77 112H103C104.657 112 106 113.343 106 115V220H74V115Z" fill="#8BCEEE"/>
<path d="M59 46C59 44.3432 60.3431 43 62 43H90C91.6569 43 93 44.3431 93 46V220H59V46Z" fill="#78B18B"/>
<path d="M226 78C226 76.3431 227.343 75 229 75H257C258.657 75 260 76.3431 260 78V219H226V78Z" fill="#8BCEEE"/>
<path d="M303 152C303 150.343 304.343 149 306 149H334C335.657 149 337 150.343 337 152V219H303V152Z" fill="#8BCEEE"/>
<path d="M380 11C380 9.34315 381.343 8 383 8H411C412.657 8 414 9.34315 414 11V219H380V11Z" fill="#8BCEEE"/>
<path d="M458 66C458 64.3431 459.343 63 461 63H489C490.657 63 492 64.3431 492 66V219H458V66Z" fill="#8BCEEE"/>
<path d="M213 133C213 131.343 214.343 130 216 130H244C245.657 130 247 131.343 247 133V219H213V133Z" fill="#78B18B"/>
<line x1="39.9989" y1="219.869" x2="514.999" y2="218.84" stroke="#8BCEEE"/>
</svg>
